<svg xmlns="http://www.w3.org/2000/svg" xmlns:xlink="http://www.w3.org/1999/xlink" width="500" zoomAndPan="magnify" viewBox="0 0 375 374.999991" height="500" preserveAspectRatio="xMidYMid meet" version="1.0"><defs><g/></defs><rect x="-37.5" width="450" fill="#ffffff" y="-37.499999" height="449.999989" fill-opacity="1"/><rect x="-37.5" width="450" fill="#f1efe7" y="-37.499999" height="449.999989" fill-opacity="1"/><g fill="#000000" fill-opacity="1"><g transform="translate(46.688588, 197.21507)"><g><path d="M 0.21875 -18.09375 L 0.21875 -22.625 L 16.125 -22.625 L 16.125 -18.09375 L 10.75 -18.09375 L 10.75 0 L 5.59375 0 L 5.59375 -18.09375 Z M 0.21875 -18.09375 "/></g></g></g><g fill="#000000" fill-opacity="1"><g transform="translate(61.795249, 197.21507)"><g><path d="M 15.875 -6.359375 L 5.671875 -6.359375 C 5.671875 -5.367188 5.988281 -4.632812 6.625 -4.15625 C 7.269531 -3.6875 7.96875 -3.453125 8.71875 -3.453125 C 9.507812 -3.453125 10.128906 -3.554688 10.578125 -3.765625 C 11.035156 -3.972656 11.554688 -4.390625 12.140625 -5.015625 L 15.65625 -3.265625 C 14.195312 -0.816406 11.765625 0.40625 8.359375 0.40625 C 6.242188 0.40625 4.425781 -0.316406 2.90625 -1.765625 C 1.382812 -3.222656 0.625 -4.972656 0.625 -7.015625 C 0.625 -9.066406 1.382812 -10.820312 2.90625 -12.28125 C 4.425781 -13.75 6.242188 -14.484375 8.359375 -14.484375 C 10.585938 -14.484375 12.398438 -13.835938 13.796875 -12.546875 C 15.203125 -11.253906 15.90625 -9.410156 15.90625 -7.015625 C 15.90625 -6.691406 15.894531 -6.472656 15.875 -6.359375 Z M 5.8125 -9.046875 L 11.15625 -9.046875 C 11.050781 -9.773438 10.765625 -10.335938 10.296875 -10.734375 C 9.828125 -11.128906 9.226562 -11.328125 8.5 -11.328125 C 7.695312 -11.328125 7.054688 -11.113281 6.578125 -10.6875 C 6.109375 -10.269531 5.851562 -9.722656 5.8125 -9.046875 Z M 5.8125 -9.046875 "/></g></g></g><g fill="#000000" fill-opacity="1"><g transform="translate(77.093825, 197.21507)"><g><path d="M 15.875 -6.359375 L 5.671875 -6.359375 C 5.671875 -5.367188 5.988281 -4.632812 6.625 -4.15625 C 7.269531 -3.6875 7.96875 -3.453125 8.71875 -3.453125 C 9.507812 -3.453125 10.128906 -3.554688 10.578125 -3.765625 C 11.035156 -3.972656 11.554688 -4.390625 12.140625 -5.015625 L 15.65625 -3.265625 C 14.195312 -0.816406 11.765625 0.40625 8.359375 0.40625 C 6.242188 0.40625 4.425781 -0.316406 2.90625 -1.765625 C 1.382812 -3.222656 0.625 -4.972656 0.625 -7.015625 C 0.625 -9.066406 1.382812 -10.820312 2.90625 -12.28125 C 4.425781 -13.75 6.242188 -14.484375 8.359375 -14.484375 C 10.585938 -14.484375 12.398438 -13.835938 13.796875 -12.546875 C 15.203125 -11.253906 15.90625 -9.410156 15.90625 -7.015625 C 15.90625 -6.691406 15.894531 -6.472656 15.875 -6.359375 Z M 5.8125 -9.046875 L 11.15625 -9.046875 C 11.050781 -9.773438 10.765625 -10.335938 10.296875 -10.734375 C 9.828125 -11.128906 9.226562 -11.328125 8.5 -11.328125 C 7.695312 -11.328125 7.054688 -11.113281 6.578125 -10.6875 C 6.109375 -10.269531 5.851562 -9.722656 5.8125 -9.046875 Z M 5.8125 -9.046875 "/></g></g></g><g fill="#000000" fill-opacity="1"><g transform="translate(92.392403, 197.21507)"><g/></g></g><g fill="#000000" fill-opacity="1"><g transform="translate(98.643337, 197.21507)"><g><path d="M 1.640625 -22.625 L 9.734375 -22.625 C 11.910156 -22.625 13.679688 -22.039062 15.046875 -20.875 C 16.421875 -19.71875 17.109375 -18.0625 17.109375 -15.90625 C 17.109375 -14.238281 16.691406 -12.84375 15.859375 -11.71875 C 15.023438 -10.59375 13.898438 -9.800781 12.484375 -9.34375 L 20.265625 0 L 13.71875 0 L 6.796875 -8.9375 L 6.796875 0 L 1.640625 0 Z M 6.796875 -12.59375 L 7.40625 -12.59375 C 7.875 -12.59375 8.273438 -12.597656 8.609375 -12.609375 C 8.941406 -12.628906 9.316406 -12.691406 9.734375 -12.796875 C 10.148438 -12.910156 10.488281 -13.066406 10.75 -13.265625 C 11.007812 -13.472656 11.226562 -13.765625 11.40625 -14.140625 C 11.59375 -14.523438 11.6875 -14.992188 11.6875 -15.546875 C 11.6875 -16.097656 11.59375 -16.5625 11.40625 -16.9375 C 11.226562 -17.320312 11.007812 -17.613281 10.75 -17.8125 C 10.488281 -18.019531 10.148438 -18.175781 9.734375 -18.28125 C 9.316406 -18.394531 8.941406 -18.460938 8.609375 -18.484375 C 8.273438 -18.503906 7.875 -18.515625 7.40625 -18.515625 L 6.796875 -18.515625 Z M 6.796875 -12.59375 "/></g></g></g><g fill="#000000" fill-opacity="1"><g transform="translate(117.040047, 197.21507)"><g><path d="M 15.875 -6.359375 L 5.671875 -6.359375 C 5.671875 -5.367188 5.988281 -4.632812 6.625 -4.15625 C 7.269531 -3.6875 7.96875 -3.453125 8.71875 -3.453125 C 9.507812 -3.453125 10.128906 -3.554688 10.578125 -3.765625 C 11.035156 -3.972656 11.554688 -4.390625 12.140625 -5.015625 L 15.65625 -3.265625 C 14.195312 -0.816406 11.765625 0.40625 8.359375 0.40625 C 6.242188 0.40625 4.425781 -0.316406 2.90625 -1.765625 C 1.382812 -3.222656 0.625 -4.972656 0.625 -7.015625 C 0.625 -9.066406 1.382812 -10.820312 2.90625 -12.28125 C 4.425781 -13.75 6.242188 -14.484375 8.359375 -14.484375 C 10.585938 -14.484375 12.398438 -13.835938 13.796875 -12.546875 C 15.203125 -11.253906 15.90625 -9.410156 15.90625 -7.015625 C 15.90625 -6.691406 15.894531 -6.472656 15.875 -6.359375 Z M 5.8125 -9.046875 L 11.15625 -9.046875 C 11.050781 -9.773438 10.765625 -10.335938 10.296875 -10.734375 C 9.828125 -11.128906 9.226562 -11.328125 8.5 -11.328125 C 7.695312 -11.328125 7.054688 -11.113281 6.578125 -10.6875 C 6.109375 -10.269531 5.851562 -9.722656 5.8125 -9.046875 Z M 5.8125 -9.046875 "/></g></g></g><g fill="#000000" fill-opacity="1"><g transform="translate(132.338622, 197.21507)"><g><path d="M 17.9375 0 L 12.0625 0 L 8.96875 -3.96875 L 5.875 0 L 0 0 L 6 -7.34375 L 0.84375 -14.0625 L 6.53125 -14.0625 L 8.96875 -10.796875 L 11.40625 -14.0625 L 17.078125 -14.0625 L 11.921875 -7.34375 Z M 17.9375 0 "/></g></g></g><g fill="#000000" fill-opacity="1"><g transform="translate(149.035475, 197.21507)"><g/></g></g><g fill="#000000" fill-opacity="1"><g transform="translate(155.286414, 197.21507)"><g><path d="M 0.796875 -5.953125 C 0.796875 -6.628906 0.953125 -7.273438 1.265625 -7.890625 C 1.578125 -8.515625 2.015625 -9.082031 2.578125 -9.59375 C 3.140625 -10.101562 3.710938 -10.550781 4.296875 -10.9375 C 4.890625 -11.320312 5.5625 -11.71875 6.3125 -12.125 C 4.789062 -14.019531 4.03125 -15.691406 4.03125 -17.140625 C 4.03125 -18.929688 4.65625 -20.359375 5.90625 -21.421875 C 7.15625 -22.492188 8.9375 -23.03125 11.25 -23.03125 C 13.363281 -23.03125 15.007812 -22.4375 16.1875 -21.25 C 17.375 -20.0625 17.96875 -18.691406 17.96875 -17.140625 C 17.96875 -16.492188 17.8125 -15.863281 17.5 -15.25 C 17.1875 -14.644531 16.8125 -14.125 16.375 -13.6875 C 15.945312 -13.257812 15.515625 -12.878906 15.078125 -12.546875 C 14.640625 -12.222656 14.265625 -11.976562 13.953125 -11.8125 L 13.484375 -11.578125 L 16.515625 -8.453125 C 17.171875 -8.742188 18.273438 -9.691406 19.828125 -11.296875 L 23 -8.171875 C 21.976562 -7.003906 20.910156 -5.972656 19.796875 -5.078125 L 24.6875 0 L 18.1875 0 L 15.9375 -2.328125 C 15.238281 -1.835938 14.722656 -1.484375 14.390625 -1.265625 C 14.066406 -1.054688 13.578125 -0.785156 12.921875 -0.453125 C 12.273438 -0.128906 11.609375 0.09375 10.921875 0.21875 C 10.242188 0.34375 9.492188 0.40625 8.671875 0.40625 C 7.953125 0.40625 7.242188 0.347656 6.546875 0.234375 C 5.859375 0.117188 5.160156 -0.0859375 4.453125 -0.390625 C 3.753906 -0.691406 3.140625 -1.070312 2.609375 -1.53125 C 2.078125 -1.988281 1.640625 -2.597656 1.296875 -3.359375 C 0.960938 -4.117188 0.796875 -4.984375 0.796875 -5.953125 Z M 11.25 -19.390625 C 10.582031 -19.390625 10.082031 -19.175781 9.75 -18.75 C 9.425781 -18.332031 9.265625 -17.796875 9.265625 -17.140625 C 9.265625 -16.753906 9.398438 -16.328125 9.671875 -15.859375 C 9.953125 -15.398438 10.226562 -15.03125 10.5 -14.75 L 10.90625 -14.375 C 12.59375 -15.28125 13.4375 -16.203125 13.4375 -17.140625 C 13.4375 -18.640625 12.707031 -19.390625 11.25 -19.390625 Z M 12.59375 -5.765625 L 9 -9.296875 C 8.9375 -9.273438 8.847656 -9.238281 8.734375 -9.1875 C 8.628906 -9.144531 8.441406 -9.035156 8.171875 -8.859375 C 7.898438 -8.691406 7.660156 -8.503906 7.453125 -8.296875 C 7.253906 -8.085938 7.066406 -7.804688 6.890625 -7.453125 C 6.722656 -7.109375 6.640625 -6.742188 6.640625 -6.359375 C 6.640625 -5.753906 6.894531 -5.285156 7.40625 -4.953125 C 7.914062 -4.628906 8.507812 -4.46875 9.1875 -4.46875 C 9.738281 -4.46875 10.296875 -4.570312 10.859375 -4.78125 C 11.421875 -4.988281 11.847656 -5.203125 12.140625 -5.421875 Z M 12.59375 -5.765625 "/></g></g></g><g fill="#000000" fill-opacity="1"><g transform="translate(176.890929, 197.21507)"><g/></g></g><g fill="#000000" fill-opacity="1"><g transform="translate(183.141869, 197.21507)"><g><path d="M 13.140625 -22.625 L 22.265625 0 L 16.734375 0 L 15.046875 -4.53125 L 6.4375 -4.53125 L 4.765625 0 L -0.765625 0 L 8.359375 -22.625 Z M 13.296875 -9.046875 L 10.78125 -15.625 L 10.71875 -15.625 L 8.203125 -9.046875 Z M 13.296875 -9.046875 "/></g></g></g><g fill="#000000" fill-opacity="1"><g transform="translate(203.402955, 197.21507)"><g><path d="M 7.765625 -14.484375 C 8.566406 -14.484375 9.359375 -14.390625 10.140625 -14.203125 C 10.929688 -14.023438 11.519531 -13.84375 11.90625 -13.65625 L 12.484375 -13.375 L 10.890625 -10.203125 C 9.785156 -10.785156 8.742188 -11.078125 7.765625 -11.078125 C 7.210938 -11.078125 6.820312 -11.015625 6.59375 -10.890625 C 6.363281 -10.773438 6.25 -10.554688 6.25 -10.234375 C 6.25 -10.160156 6.257812 -10.085938 6.28125 -10.015625 C 6.300781 -9.941406 6.335938 -9.867188 6.390625 -9.796875 C 6.441406 -9.734375 6.488281 -9.675781 6.53125 -9.625 C 6.582031 -9.582031 6.660156 -9.535156 6.765625 -9.484375 C 6.878906 -9.429688 6.96875 -9.390625 7.03125 -9.359375 C 7.09375 -9.335938 7.195312 -9.296875 7.34375 -9.234375 C 7.488281 -9.179688 7.597656 -9.140625 7.671875 -9.109375 C 7.742188 -9.085938 7.867188 -9.046875 8.046875 -8.984375 C 8.222656 -8.929688 8.359375 -8.898438 8.453125 -8.890625 C 9.015625 -8.722656 9.503906 -8.535156 9.921875 -8.328125 C 10.347656 -8.128906 10.789062 -7.859375 11.25 -7.515625 C 11.71875 -7.171875 12.078125 -6.734375 12.328125 -6.203125 C 12.585938 -5.671875 12.71875 -5.066406 12.71875 -4.390625 C 12.71875 -1.191406 10.5 0.40625 6.0625 0.40625 C 5.050781 0.40625 4.09375 0.253906 3.1875 -0.046875 C 2.289062 -0.359375 1.640625 -0.671875 1.234375 -0.984375 L 0.625 -1.484375 L 2.609375 -4.796875 C 2.753906 -4.671875 2.941406 -4.519531 3.171875 -4.34375 C 3.410156 -4.164062 3.84375 -3.925781 4.46875 -3.625 C 5.09375 -3.332031 5.632812 -3.1875 6.09375 -3.1875 C 7.09375 -3.1875 7.59375 -3.523438 7.59375 -4.203125 C 7.59375 -4.503906 7.460938 -4.742188 7.203125 -4.921875 C 6.953125 -5.097656 6.519531 -5.296875 5.90625 -5.515625 C 5.289062 -5.734375 4.8125 -5.929688 4.46875 -6.109375 C 3.59375 -6.566406 2.898438 -7.082031 2.390625 -7.65625 C 1.878906 -8.238281 1.625 -9.003906 1.625 -9.953125 C 1.625 -11.378906 2.175781 -12.488281 3.28125 -13.28125 C 4.382812 -14.082031 5.878906 -14.484375 7.765625 -14.484375 Z M 7.765625 -14.484375 "/></g></g></g><g fill="#000000" fill-opacity="1"><g transform="translate(215.658238, 197.21507)"><g><path d="M 7.765625 -14.484375 C 8.566406 -14.484375 9.359375 -14.390625 10.140625 -14.203125 C 10.929688 -14.023438 11.519531 -13.84375 11.90625 -13.65625 L 12.484375 -13.375 L 10.890625 -10.203125 C 9.785156 -10.785156 8.742188 -11.078125 7.765625 -11.078125 C 7.210938 -11.078125 6.820312 -11.015625 6.59375 -10.890625 C 6.363281 -10.773438 6.25 -10.554688 6.25 -10.234375 C 6.25 -10.160156 6.257812 -10.085938 6.28125 -10.015625 C 6.300781 -9.941406 6.335938 -9.867188 6.390625 -9.796875 C 6.441406 -9.734375 6.488281 -9.675781 6.53125 -9.625 C 6.582031 -9.582031 6.660156 -9.535156 6.765625 -9.484375 C 6.878906 -9.429688 6.96875 -9.390625 7.03125 -9.359375 C 7.09375 -9.335938 7.195312 -9.296875 7.34375 -9.234375 C 7.488281 -9.179688 7.597656 -9.140625 7.671875 -9.109375 C 7.742188 -9.085938 7.867188 -9.046875 8.046875 -8.984375 C 8.222656 -8.929688 8.359375 -8.898438 8.453125 -8.890625 C 9.015625 -8.722656 9.503906 -8.535156 9.921875 -8.328125 C 10.347656 -8.128906 10.789062 -7.859375 11.25 -7.515625 C 11.71875 -7.171875 12.078125 -6.734375 12.328125 -6.203125 C 12.585938 -5.671875 12.71875 -5.066406 12.71875 -4.390625 C 12.71875 -1.191406 10.5 0.40625 6.0625 0.40625 C 5.050781 0.40625 4.09375 0.253906 3.1875 -0.046875 C 2.289062 -0.359375 1.640625 -0.671875 1.234375 -0.984375 L 0.625 -1.484375 L 2.609375 -4.796875 C 2.753906 -4.671875 2.941406 -4.519531 3.171875 -4.34375 C 3.410156 -4.164062 3.84375 -3.925781 4.46875 -3.625 C 5.09375 -3.332031 5.632812 -3.1875 6.09375 -3.1875 C 7.09375 -3.1875 7.59375 -3.523438 7.59375 -4.203125 C 7.59375 -4.503906 7.460938 -4.742188 7.203125 -4.921875 C 6.953125 -5.097656 6.519531 -5.296875 5.90625 -5.515625 C 5.289062 -5.734375 4.8125 -5.929688 4.46875 -6.109375 C 3.59375 -6.566406 2.898438 -7.082031 2.390625 -7.65625 C 1.878906 -8.238281 1.625 -9.003906 1.625 -9.953125 C 1.625 -11.378906 2.175781 -12.488281 3.28125 -13.28125 C 4.382812 -14.082031 5.878906 -14.484375 7.765625 -14.484375 Z M 7.765625 -14.484375 "/></g></g></g><g fill="#000000" fill-opacity="1"><g transform="translate(227.913522, 197.21507)"><g><path d="M 2.96875 -1.671875 C 1.40625 -3.054688 0.625 -4.835938 0.625 -7.015625 C 0.625 -9.191406 1.4375 -10.976562 3.0625 -12.375 C 4.695312 -13.78125 6.710938 -14.484375 9.109375 -14.484375 C 11.460938 -14.484375 13.445312 -13.773438 15.0625 -12.359375 C 16.6875 -10.953125 17.5 -9.171875 17.5 -7.015625 C 17.5 -4.859375 16.707031 -3.082031 15.125 -1.6875 C 13.539062 -0.289062 11.535156 0.40625 9.109375 0.40625 C 6.578125 0.40625 4.53125 -0.285156 2.96875 -1.671875 Z M 6.71875 -9.40625 C 6.09375 -8.78125 5.78125 -7.984375 5.78125 -7.015625 C 5.78125 -6.046875 6.082031 -5.253906 6.6875 -4.640625 C 7.289062 -4.035156 8.085938 -3.734375 9.078125 -3.734375 C 10.023438 -3.734375 10.804688 -4.039062 11.421875 -4.65625 C 12.035156 -5.28125 12.34375 -6.066406 12.34375 -7.015625 C 12.34375 -7.984375 12.023438 -8.78125 11.390625 -9.40625 C 10.765625 -10.03125 9.992188 -10.34375 9.078125 -10.34375 C 8.140625 -10.34375 7.351562 -10.03125 6.71875 -9.40625 Z M 6.71875 -9.40625 "/></g></g></g><g fill="#000000" fill-opacity="1"><g transform="translate(244.802284, 197.21507)"><g><path d="M 9.125 -10.5 C 8.21875 -10.5 7.429688 -10.160156 6.765625 -9.484375 C 6.109375 -8.804688 5.78125 -7.992188 5.78125 -7.046875 C 5.78125 -6.078125 6.109375 -5.253906 6.765625 -4.578125 C 7.429688 -3.898438 8.21875 -3.5625 9.125 -3.5625 C 9.570312 -3.5625 9.988281 -3.613281 10.375 -3.71875 C 10.769531 -3.832031 11.0625 -3.945312 11.25 -4.0625 L 11.484375 -4.21875 L 13.140625 -0.84375 C 13.003906 -0.757812 12.820312 -0.644531 12.59375 -0.5 C 12.363281 -0.363281 11.84375 -0.179688 11.03125 0.046875 C 10.21875 0.285156 9.347656 0.40625 8.421875 0.40625 C 6.347656 0.40625 4.53125 -0.316406 2.96875 -1.765625 C 1.40625 -3.222656 0.625 -4.96875 0.625 -7 C 0.625 -9.039062 1.40625 -10.796875 2.96875 -12.265625 C 4.53125 -13.742188 6.347656 -14.484375 8.421875 -14.484375 C 9.347656 -14.484375 10.203125 -14.375 10.984375 -14.15625 C 11.773438 -13.9375 12.335938 -13.710938 12.671875 -13.484375 L 13.140625 -13.15625 L 11.484375 -9.84375 C 10.878906 -10.28125 10.09375 -10.5 9.125 -10.5 Z M 9.125 -10.5 "/></g></g></g><g fill="#000000" fill-opacity="1"><g transform="translate(257.030143, 197.21507)"><g><path d="M 2.109375 -21.90625 C 2.679688 -22.476562 3.359375 -22.765625 4.140625 -22.765625 C 4.921875 -22.765625 5.59375 -22.476562 6.15625 -21.90625 C 6.726562 -21.34375 7.015625 -20.664062 7.015625 -19.875 C 7.015625 -19.09375 6.726562 -18.414062 6.15625 -17.84375 C 5.59375 -17.28125 4.921875 -17 4.140625 -17 C 3.359375 -17 2.679688 -17.28125 2.109375 -17.84375 C 1.546875 -18.414062 1.265625 -19.09375 1.265625 -19.875 C 1.265625 -20.664062 1.546875 -21.34375 2.109375 -21.90625 Z M 1.640625 -14.0625 L 1.640625 0 L 6.5 0 L 6.5 -14.0625 Z M 1.640625 -14.0625 "/></g></g></g><g fill="#000000" fill-opacity="1"><g transform="translate(264.076179, 197.21507)"><g><path d="M 2.59375 -1.734375 C 1.28125 -3.171875 0.625 -4.929688 0.625 -7.015625 C 0.625 -9.097656 1.28125 -10.863281 2.59375 -12.3125 C 3.914062 -13.757812 5.59375 -14.484375 7.625 -14.484375 C 9.488281 -14.484375 11.023438 -13.894531 12.234375 -12.71875 L 12.234375 -14.0625 L 17.078125 -14.0625 L 17.078125 0 L 12.28125 0 L 12.28125 -1.59375 L 12.234375 -1.59375 C 11.023438 -0.257812 9.488281 0.40625 7.625 0.40625 C 5.59375 0.40625 3.914062 -0.304688 2.59375 -1.734375 Z M 6.71875 -9.40625 C 6.09375 -8.78125 5.78125 -7.984375 5.78125 -7.015625 C 5.78125 -6.046875 6.082031 -5.253906 6.6875 -4.640625 C 7.289062 -4.035156 8.085938 -3.734375 9.078125 -3.734375 C 10.023438 -3.734375 10.804688 -4.039062 11.421875 -4.65625 C 12.035156 -5.28125 12.34375 -6.066406 12.34375 -7.015625 C 12.34375 -7.984375 12.023438 -8.78125 11.390625 -9.40625 C 10.765625 -10.03125 9.992188 -10.34375 9.078125 -10.34375 C 8.140625 -10.34375 7.351562 -10.03125 6.71875 -9.40625 Z M 6.71875 -9.40625 "/></g></g></g><g fill="#000000" fill-opacity="1"><g transform="translate(281.568123, 197.21507)"><g><path d="M 2.46875 -14.0625 L 2.46875 -19.3125 L 7.328125 -19.3125 L 7.328125 -14.0625 L 10.28125 -14.0625 L 10.28125 -10.359375 L 7.328125 -10.359375 L 7.328125 -5.890625 C 7.328125 -4.597656 7.691406 -3.953125 8.421875 -3.953125 C 8.597656 -3.953125 8.785156 -3.988281 8.984375 -4.0625 C 9.191406 -4.132812 9.347656 -4.207031 9.453125 -4.28125 L 9.625 -4.390625 L 10.828125 -0.46875 C 9.785156 0.113281 8.597656 0.40625 7.265625 0.40625 C 6.347656 0.40625 5.5625 0.25 4.90625 -0.0625 C 4.25 -0.382812 3.75 -0.816406 3.40625 -1.359375 C 3.070312 -1.898438 2.832031 -2.46875 2.6875 -3.0625 C 2.539062 -3.65625 2.46875 -4.289062 2.46875 -4.96875 L 2.46875 -10.359375 L 0.4375 -10.359375 L 0.4375 -14.0625 Z M 2.46875 -14.0625 "/></g></g></g><g fill="#000000" fill-opacity="1"><g transform="translate(291.163951, 197.21507)"><g><path d="M 15.875 -6.359375 L 5.671875 -6.359375 C 5.671875 -5.367188 5.988281 -4.632812 6.625 -4.15625 C 7.269531 -3.6875 7.96875 -3.453125 8.71875 -3.453125 C 9.507812 -3.453125 10.128906 -3.554688 10.578125 -3.765625 C 11.035156 -3.972656 11.554688 -4.390625 12.140625 -5.015625 L 15.65625 -3.265625 C 14.195312 -0.816406 11.765625 0.40625 8.359375 0.40625 C 6.242188 0.40625 4.425781 -0.316406 2.90625 -1.765625 C 1.382812 -3.222656 0.625 -4.972656 0.625 -7.015625 C 0.625 -9.066406 1.382812 -10.820312 2.90625 -12.28125 C 4.425781 -13.75 6.242188 -14.484375 8.359375 -14.484375 C 10.585938 -14.484375 12.398438 -13.835938 13.796875 -12.546875 C 15.203125 -11.253906 15.90625 -9.410156 15.90625 -7.015625 C 15.90625 -6.691406 15.894531 -6.472656 15.875 -6.359375 Z M 5.8125 -9.046875 L 11.15625 -9.046875 C 11.050781 -9.773438 10.765625 -10.335938 10.296875 -10.734375 C 9.828125 -11.128906 9.226562 -11.328125 8.5 -11.328125 C 7.695312 -11.328125 7.054688 -11.113281 6.578125 -10.6875 C 6.109375 -10.269531 5.851562 -9.722656 5.8125 -9.046875 Z M 5.8125 -9.046875 "/></g></g></g><g fill="#000000" fill-opacity="1"><g transform="translate(306.46252, 197.21507)"><g><path d="M 7.765625 -14.484375 C 8.566406 -14.484375 9.359375 -14.390625 10.140625 -14.203125 C 10.929688 -14.023438 11.519531 -13.84375 11.90625 -13.65625 L 12.484375 -13.375 L 10.890625 -10.203125 C 9.785156 -10.785156 8.742188 -11.078125 7.765625 -11.078125 C 7.210938 -11.078125 6.820312 -11.015625 6.59375 -10.890625 C 6.363281 -10.773438 6.25 -10.554688 6.25 -10.234375 C 6.25 -10.160156 6.257812 -10.085938 6.28125 -10.015625 C 6.300781 -9.941406 6.335938 -9.867188 6.390625 -9.796875 C 6.441406 -9.734375 6.488281 -9.675781 6.53125 -9.625 C 6.582031 -9.582031 6.660156 -9.535156 6.765625 -9.484375 C 6.878906 -9.429688 6.96875 -9.390625 7.03125 -9.359375 C 7.09375 -9.335938 7.195312 -9.296875 7.34375 -9.234375 C 7.488281 -9.179688 7.597656 -9.140625 7.671875 -9.109375 C 7.742188 -9.085938 7.867188 -9.046875 8.046875 -8.984375 C 8.222656 -8.929688 8.359375 -8.898438 8.453125 -8.890625 C 9.015625 -8.722656 9.503906 -8.535156 9.921875 -8.328125 C 10.347656 -8.128906 10.789062 -7.859375 11.25 -7.515625 C 11.71875 -7.171875 12.078125 -6.734375 12.328125 -6.203125 C 12.585938 -5.671875 12.71875 -5.066406 12.71875 -4.390625 C 12.71875 -1.191406 10.5 0.40625 6.0625 0.40625 C 5.050781 0.40625 4.09375 0.253906 3.1875 -0.046875 C 2.289062 -0.359375 1.640625 -0.671875 1.234375 -0.984375 L 0.625 -1.484375 L 2.609375 -4.796875 C 2.753906 -4.671875 2.941406 -4.519531 3.171875 -4.34375 C 3.410156 -4.164062 3.84375 -3.925781 4.46875 -3.625 C 5.09375 -3.332031 5.632812 -3.1875 6.09375 -3.1875 C 7.09375 -3.1875 7.59375 -3.523438 7.59375 -4.203125 C 7.59375 -4.503906 7.460938 -4.742188 7.203125 -4.921875 C 6.953125 -5.097656 6.519531 -5.296875 5.90625 -5.515625 C 5.289062 -5.734375 4.8125 -5.929688 4.46875 -6.109375 C 3.59375 -6.566406 2.898438 -7.082031 2.390625 -7.65625 C 1.878906 -8.238281 1.625 -9.003906 1.625 -9.953125 C 1.625 -11.378906 2.175781 -12.488281 3.28125 -13.28125 C 4.382812 -14.082031 5.878906 -14.484375 7.765625 -14.484375 Z M 7.765625 -14.484375 "/></g></g></g><g fill="#000000" fill-opacity="1"><g transform="translate(318.717792, 197.21507)"><g><path d="M 4.765625 -5.875 C 5.648438 -5.875 6.394531 -5.566406 7 -4.953125 C 7.613281 -4.335938 7.921875 -3.59375 7.921875 -2.71875 C 7.921875 -1.851562 7.613281 -1.113281 7 -0.5 C 6.394531 0.101562 5.648438 0.40625 4.765625 0.40625 C 3.910156 0.40625 3.175781 0.101562 2.5625 -0.5 C 1.945312 -1.113281 1.640625 -1.851562 1.640625 -2.71875 C 1.640625 -3.59375 1.945312 -4.335938 2.5625 -4.953125 C 3.175781 -5.566406 3.910156 -5.875 4.765625 -5.875 Z M 4.765625 -5.875 "/></g></g></g><g fill="#000000" fill-opacity="1"><g transform="translate(34.288939, 214.909278)"><g><path d="M 3.875 -3.0625 C 4.164062 -2.957031 4.40625 -2.785156 4.59375 -2.546875 C 4.78125 -2.316406 4.875 -2.015625 4.875 -1.640625 C 4.875 -1.054688 4.703125 -0.632812 4.359375 -0.375 C 4.015625 -0.125 3.597656 0 3.109375 0 L 1.046875 0 C 0.941406 0 0.847656 -0.0351562 0.765625 -0.109375 C 0.691406 -0.179688 0.65625 -0.273438 0.65625 -0.390625 L 0.65625 -5.21875 C 0.65625 -5.320312 0.691406 -5.410156 0.765625 -5.484375 C 0.847656 -5.554688 0.941406 -5.59375 1.046875 -5.59375 L 3.109375 -5.59375 C 3.585938 -5.59375 3.953125 -5.472656 4.203125 -5.234375 C 4.460938 -4.992188 4.59375 -4.648438 4.59375 -4.203125 C 4.59375 -3.941406 4.53125 -3.710938 4.40625 -3.515625 C 4.28125 -3.316406 4.101562 -3.164062 3.875 -3.0625 Z M 3.765625 -4.078125 C 3.765625 -4.328125 3.695312 -4.515625 3.5625 -4.640625 C 3.425781 -4.773438 3.234375 -4.84375 2.984375 -4.84375 L 1.484375 -4.84375 L 1.484375 -3.28125 L 3.015625 -3.28125 C 3.234375 -3.289062 3.410156 -3.363281 3.546875 -3.5 C 3.691406 -3.632812 3.765625 -3.828125 3.765625 -4.078125 Z M 3.09375 -0.734375 C 3.382812 -0.734375 3.617188 -0.804688 3.796875 -0.953125 C 3.972656 -1.109375 4.0625 -1.335938 4.0625 -1.640625 C 4.0625 -2.234375 3.726562 -2.53125 3.0625 -2.53125 L 1.484375 -2.53125 L 1.484375 -0.734375 Z M 3.09375 -0.734375 "/></g></g></g><g fill="#000000" fill-opacity="1"><g transform="translate(44.729009, 214.909278)"><g><path d="M 3.6875 -4.1875 C 3.800781 -4.1875 3.894531 -4.148438 3.96875 -4.078125 C 4.039062 -4.003906 4.078125 -3.914062 4.078125 -3.8125 L 4.078125 -1.6875 C 4.078125 -1.125 3.921875 -0.6875 3.609375 -0.375 C 3.304688 -0.0703125 2.875 0.078125 2.3125 0.078125 C 1.757812 0.078125 1.328125 -0.0703125 1.015625 -0.375 C 0.710938 -0.6875 0.5625 -1.125 0.5625 -1.6875 L 0.5625 -3.8125 C 0.5625 -3.914062 0.597656 -4.003906 0.671875 -4.078125 C 0.742188 -4.148438 0.832031 -4.1875 0.9375 -4.1875 C 1.050781 -4.1875 1.144531 -4.148438 1.21875 -4.078125 C 1.289062 -4.003906 1.328125 -3.914062 1.328125 -3.8125 L 1.328125 -1.6875 C 1.328125 -0.976562 1.65625 -0.625 2.3125 -0.625 C 2.632812 -0.625 2.878906 -0.710938 3.046875 -0.890625 C 3.222656 -1.066406 3.3125 -1.332031 3.3125 -1.6875 L 3.3125 -3.8125 C 3.3125 -3.914062 3.347656 -4.003906 3.421875 -4.078125 C 3.492188 -4.148438 3.582031 -4.1875 3.6875 -4.1875 Z M 3.6875 -4.1875 "/></g></g></g><g fill="#000000" fill-opacity="1"><g transform="translate(54.585073, 214.909278)"><g><path d="M 0.328125 -0.65625 C 0.273438 -0.726562 0.25 -0.800781 0.25 -0.875 C 0.25 -0.976562 0.304688 -1.066406 0.421875 -1.140625 C 0.472656 -1.179688 0.535156 -1.203125 0.609375 -1.203125 C 0.703125 -1.203125 0.789062 -1.160156 0.875 -1.078125 C 1.03125 -0.898438 1.195312 -0.765625 1.375 -0.671875 C 1.5625 -0.578125 1.785156 -0.53125 2.046875 -0.53125 C 2.253906 -0.539062 2.429688 -0.585938 2.578125 -0.671875 C 2.734375 -0.765625 2.8125 -0.910156 2.8125 -1.109375 C 2.8125 -1.285156 2.734375 -1.421875 2.578125 -1.515625 C 2.421875 -1.609375 2.191406 -1.695312 1.890625 -1.78125 C 1.585938 -1.863281 1.335938 -1.945312 1.140625 -2.03125 C 0.941406 -2.125 0.773438 -2.253906 0.640625 -2.421875 C 0.503906 -2.585938 0.4375 -2.804688 0.4375 -3.078125 C 0.4375 -3.316406 0.503906 -3.523438 0.640625 -3.703125 C 0.773438 -3.890625 0.957031 -4.03125 1.1875 -4.125 C 1.414062 -4.226562 1.660156 -4.28125 1.921875 -4.28125 C 2.179688 -4.28125 2.4375 -4.234375 2.6875 -4.140625 C 2.945312 -4.046875 3.15625 -3.898438 3.3125 -3.703125 C 3.375 -3.628906 3.40625 -3.550781 3.40625 -3.46875 C 3.40625 -3.382812 3.363281 -3.300781 3.28125 -3.21875 C 3.226562 -3.175781 3.160156 -3.15625 3.078125 -3.15625 C 2.984375 -3.15625 2.90625 -3.1875 2.84375 -3.25 C 2.738281 -3.375 2.601562 -3.46875 2.4375 -3.53125 C 2.269531 -3.601562 2.085938 -3.640625 1.890625 -3.640625 C 1.691406 -3.640625 1.519531 -3.597656 1.375 -3.515625 C 1.238281 -3.441406 1.171875 -3.304688 1.171875 -3.109375 C 1.171875 -2.921875 1.25 -2.78125 1.40625 -2.6875 C 1.5625 -2.59375 1.804688 -2.503906 2.140625 -2.421875 C 2.421875 -2.347656 2.65625 -2.269531 2.84375 -2.1875 C 3.03125 -2.101562 3.1875 -1.972656 3.3125 -1.796875 C 3.4375 -1.628906 3.5 -1.410156 3.5 -1.140625 C 3.5 -0.890625 3.425781 -0.671875 3.28125 -0.484375 C 3.144531 -0.304688 2.957031 -0.164062 2.71875 -0.0625 C 2.488281 0.03125 2.242188 0.078125 1.984375 0.078125 C 1.648438 0.078125 1.335938 0.0195312 1.046875 -0.09375 C 0.765625 -0.207031 0.523438 -0.394531 0.328125 -0.65625 Z M 0.328125 -0.65625 "/></g></g></g><g fill="#000000" fill-opacity="1"><g transform="translate(63.617131, 214.909278)"><g><path d="M 1.28125 -0.390625 C 1.28125 -0.273438 1.242188 -0.179688 1.171875 -0.109375 C 1.109375 -0.0351562 1.019531 0 0.90625 0 C 0.800781 0 0.710938 -0.0351562 0.640625 -0.109375 C 0.566406 -0.179688 0.53125 -0.273438 0.53125 -0.390625 L 0.53125 -3.84375 C 0.53125 -3.957031 0.566406 -4.050781 0.640625 -4.125 C 0.710938 -4.195312 0.800781 -4.234375 0.90625 -4.234375 C 1.019531 -4.234375 1.109375 -4.195312 1.171875 -4.125 C 1.242188 -4.050781 1.28125 -3.957031 1.28125 -3.84375 Z M 0.90625 -4.765625 C 0.75 -4.765625 0.632812 -4.789062 0.5625 -4.84375 C 0.5 -4.894531 0.46875 -4.984375 0.46875 -5.109375 L 0.46875 -5.234375 C 0.46875 -5.367188 0.503906 -5.460938 0.578125 -5.515625 C 0.648438 -5.566406 0.757812 -5.59375 0.90625 -5.59375 C 1.0625 -5.59375 1.171875 -5.5625 1.234375 -5.5 C 1.296875 -5.445312 1.328125 -5.359375 1.328125 -5.234375 L 1.328125 -5.109375 C 1.328125 -4.984375 1.289062 -4.894531 1.21875 -4.84375 C 1.15625 -4.789062 1.050781 -4.765625 0.90625 -4.765625 Z M 0.90625 -4.765625 "/></g></g></g><g fill="#000000" fill-opacity="1"><g transform="translate(70.64916, 214.909278)"><g><path d="M 2.703125 -4.28125 C 3.660156 -4.28125 4.140625 -3.707031 4.140625 -2.5625 L 4.140625 -0.390625 C 4.140625 -0.273438 4.101562 -0.179688 4.03125 -0.109375 C 3.957031 -0.0351562 3.867188 0 3.765625 0 C 3.648438 0 3.554688 -0.0351562 3.484375 -0.109375 C 3.421875 -0.179688 3.390625 -0.273438 3.390625 -0.390625 L 3.390625 -2.546875 C 3.390625 -2.867188 3.316406 -3.117188 3.171875 -3.296875 C 3.023438 -3.484375 2.789062 -3.578125 2.46875 -3.578125 C 2.25 -3.578125 2.050781 -3.53125 1.875 -3.4375 C 1.707031 -3.34375 1.570312 -3.21875 1.46875 -3.0625 C 1.375 -2.90625 1.328125 -2.734375 1.328125 -2.546875 L 1.328125 -0.390625 C 1.328125 -0.273438 1.289062 -0.179688 1.21875 -0.109375 C 1.144531 -0.0351562 1.050781 0 0.9375 0 C 0.832031 0 0.742188 -0.0351562 0.671875 -0.109375 C 0.597656 -0.179688 0.5625 -0.273438 0.5625 -0.390625 L 0.5625 -3.8125 C 0.5625 -3.914062 0.597656 -4.003906 0.671875 -4.078125 C 0.742188 -4.148438 0.832031 -4.1875 0.9375 -4.1875 C 1.050781 -4.1875 1.144531 -4.148438 1.21875 -4.078125 C 1.289062 -4.003906 1.328125 -3.914062 1.328125 -3.8125 L 1.328125 -3.53125 C 1.460938 -3.738281 1.65625 -3.914062 1.90625 -4.0625 C 2.15625 -4.207031 2.421875 -4.28125 2.703125 -4.28125 Z M 2.703125 -4.28125 "/></g></g></g><g fill="#000000" fill-opacity="1"><g transform="translate(80.577225, 214.909278)"><g><path d="M 4.25 -2.25 C 4.238281 -2.15625 4.195312 -2.070312 4.125 -2 C 4.050781 -1.9375 3.960938 -1.90625 3.859375 -1.90625 L 1.046875 -1.90625 C 1.085938 -1.519531 1.234375 -1.207031 1.484375 -0.96875 C 1.742188 -0.738281 2.0625 -0.625 2.4375 -0.625 C 2.695312 -0.625 2.90625 -0.660156 3.0625 -0.734375 C 3.21875 -0.804688 3.359375 -0.90625 3.484375 -1.03125 C 3.566406 -1.070312 3.644531 -1.09375 3.71875 -1.09375 C 3.8125 -1.09375 3.890625 -1.0625 3.953125 -1 C 4.015625 -0.9375 4.046875 -0.863281 4.046875 -0.78125 C 4.046875 -0.664062 3.988281 -0.5625 3.875 -0.46875 C 3.71875 -0.3125 3.507812 -0.179688 3.25 -0.078125 C 3 0.0234375 2.742188 0.078125 2.484375 0.078125 C 2.046875 0.078125 1.660156 -0.0078125 1.328125 -0.1875 C 1.003906 -0.375 0.753906 -0.628906 0.578125 -0.953125 C 0.398438 -1.273438 0.3125 -1.644531 0.3125 -2.0625 C 0.3125 -2.507812 0.398438 -2.898438 0.578125 -3.234375 C 0.765625 -3.578125 1.007812 -3.835938 1.3125 -4.015625 C 1.613281 -4.191406 1.9375 -4.28125 2.28125 -4.28125 C 2.625 -4.28125 2.945312 -4.191406 3.25 -4.015625 C 3.550781 -3.847656 3.789062 -3.609375 3.96875 -3.296875 C 4.144531 -2.984375 4.238281 -2.632812 4.25 -2.25 Z M 2.28125 -3.578125 C 1.988281 -3.578125 1.734375 -3.492188 1.515625 -3.328125 C 1.296875 -3.160156 1.148438 -2.898438 1.078125 -2.546875 L 3.4375 -2.546875 L 3.4375 -2.609375 C 3.414062 -2.898438 3.289062 -3.132812 3.0625 -3.3125 C 2.832031 -3.488281 2.570312 -3.578125 2.28125 -3.578125 Z M 2.28125 -3.578125 "/></g></g></g><g fill="#000000" fill-opacity="1"><g transform="translate(90.35328, 214.909278)"><g><path d="M 0.328125 -0.65625 C 0.273438 -0.726562 0.25 -0.800781 0.25 -0.875 C 0.25 -0.976562 0.304688 -1.066406 0.421875 -1.140625 C 0.472656 -1.179688 0.535156 -1.203125 0.609375 -1.203125 C 0.703125 -1.203125 0.789062 -1.160156 0.875 -1.078125 C 1.03125 -0.898438 1.195312 -0.765625 1.375 -0.671875 C 1.5625 -0.578125 1.785156 -0.53125 2.046875 -0.53125 C 2.253906 -0.539062 2.429688 -0.585938 2.578125 -0.671875 C 2.734375 -0.765625 2.8125 -0.910156 2.8125 -1.109375 C 2.8125 -1.285156 2.734375 -1.421875 2.578125 -1.515625 C 2.421875 -1.609375 2.191406 -1.695312 1.890625 -1.78125 C 1.585938 -1.863281 1.335938 -1.945312 1.140625 -2.03125 C 0.941406 -2.125 0.773438 -2.253906 0.640625 -2.421875 C 0.503906 -2.585938 0.4375 -2.804688 0.4375 -3.078125 C 0.4375 -3.316406 0.503906 -3.523438 0.640625 -3.703125 C 0.773438 -3.890625 0.957031 -4.03125 1.1875 -4.125 C 1.414062 -4.226562 1.660156 -4.28125 1.921875 -4.28125 C 2.179688 -4.28125 2.4375 -4.234375 2.6875 -4.140625 C 2.945312 -4.046875 3.15625 -3.898438 3.3125 -3.703125 C 3.375 -3.628906 3.40625 -3.550781 3.40625 -3.46875 C 3.40625 -3.382812 3.363281 -3.300781 3.28125 -3.21875 C 3.226562 -3.175781 3.160156 -3.15625 3.078125 -3.15625 C 2.984375 -3.15625 2.90625 -3.1875 2.84375 -3.25 C 2.738281 -3.375 2.601562 -3.46875 2.4375 -3.53125 C 2.269531 -3.601562 2.085938 -3.640625 1.890625 -3.640625 C 1.691406 -3.640625 1.519531 -3.597656 1.375 -3.515625 C 1.238281 -3.441406 1.171875 -3.304688 1.171875 -3.109375 C 1.171875 -2.921875 1.25 -2.78125 1.40625 -2.6875 C 1.5625 -2.59375 1.804688 -2.503906 2.140625 -2.421875 C 2.421875 -2.347656 2.65625 -2.269531 2.84375 -2.1875 C 3.03125 -2.101562 3.1875 -1.972656 3.3125 -1.796875 C 3.4375 -1.628906 3.5 -1.410156 3.5 -1.140625 C 3.5 -0.890625 3.425781 -0.671875 3.28125 -0.484375 C 3.144531 -0.304688 2.957031 -0.164062 2.71875 -0.0625 C 2.488281 0.03125 2.242188 0.078125 1.984375 0.078125 C 1.648438 0.078125 1.335938 0.0195312 1.046875 -0.09375 C 0.765625 -0.207031 0.523438 -0.394531 0.328125 -0.65625 Z M 0.328125 -0.65625 "/></g></g></g><g fill="#000000" fill-opacity="1"><g transform="translate(99.385336, 214.909278)"><g><path d="M 0.328125 -0.65625 C 0.273438 -0.726562 0.25 -0.800781 0.25 -0.875 C 0.25 -0.976562 0.304688 -1.066406 0.421875 -1.140625 C 0.472656 -1.179688 0.535156 -1.203125 0.609375 -1.203125 C 0.703125 -1.203125 0.789062 -1.160156 0.875 -1.078125 C 1.03125 -0.898438 1.195312 -0.765625 1.375 -0.671875 C 1.5625 -0.578125 1.785156 -0.53125 2.046875 -0.53125 C 2.253906 -0.539062 2.429688 -0.585938 2.578125 -0.671875 C 2.734375 -0.765625 2.8125 -0.910156 2.8125 -1.109375 C 2.8125 -1.285156 2.734375 -1.421875 2.578125 -1.515625 C 2.421875 -1.609375 2.191406 -1.695312 1.890625 -1.78125 C 1.585938 -1.863281 1.335938 -1.945312 1.140625 -2.03125 C 0.941406 -2.125 0.773438 -2.253906 0.640625 -2.421875 C 0.503906 -2.585938 0.4375 -2.804688 0.4375 -3.078125 C 0.4375 -3.316406 0.503906 -3.523438 0.640625 -3.703125 C 0.773438 -3.890625 0.957031 -4.03125 1.1875 -4.125 C 1.414062 -4.226562 1.660156 -4.28125 1.921875 -4.28125 C 2.179688 -4.28125 2.4375 -4.234375 2.6875 -4.140625 C 2.945312 -4.046875 3.15625 -3.898438 3.3125 -3.703125 C 3.375 -3.628906 3.40625 -3.550781 3.40625 -3.46875 C 3.40625 -3.382812 3.363281 -3.300781 3.28125 -3.21875 C 3.226562 -3.175781 3.160156 -3.15625 3.078125 -3.15625 C 2.984375 -3.15625 2.90625 -3.1875 2.84375 -3.25 C 2.738281 -3.375 2.601562 -3.46875 2.4375 -3.53125 C 2.269531 -3.601562 2.085938 -3.640625 1.890625 -3.640625 C 1.691406 -3.640625 1.519531 -3.597656 1.375 -3.515625 C 1.238281 -3.441406 1.171875 -3.304688 1.171875 -3.109375 C 1.171875 -2.921875 1.25 -2.78125 1.40625 -2.6875 C 1.5625 -2.59375 1.804688 -2.503906 2.140625 -2.421875 C 2.421875 -2.347656 2.65625 -2.269531 2.84375 -2.1875 C 3.03125 -2.101562 3.1875 -1.972656 3.3125 -1.796875 C 3.4375 -1.628906 3.5 -1.410156 3.5 -1.140625 C 3.5 -0.890625 3.425781 -0.671875 3.28125 -0.484375 C 3.144531 -0.304688 2.957031 -0.164062 2.71875 -0.0625 C 2.488281 0.03125 2.242188 0.078125 1.984375 0.078125 C 1.648438 0.078125 1.335938 0.0195312 1.046875 -0.09375 C 0.765625 -0.207031 0.523438 -0.394531 0.328125 -0.65625 Z M 0.328125 -0.65625 "/></g></g></g><g fill="#000000" fill-opacity="1"><g transform="translate(108.417391, 214.909278)"><g/></g></g><g fill="#000000" fill-opacity="1"><g transform="translate(115.849425, 214.909278)"><g><path d="M 4.65625 -5.265625 C 4.78125 -5.203125 4.84375 -5.097656 4.84375 -4.953125 C 4.84375 -4.859375 4.8125 -4.769531 4.75 -4.6875 C 4.6875 -4.601562 4.597656 -4.5625 4.484375 -4.5625 C 4.410156 -4.5625 4.335938 -4.578125 4.265625 -4.609375 C 3.941406 -4.796875 3.585938 -4.890625 3.203125 -4.890625 C 2.796875 -4.890625 2.441406 -4.800781 2.140625 -4.625 C 1.835938 -4.457031 1.597656 -4.210938 1.421875 -3.890625 C 1.253906 -3.578125 1.171875 -3.210938 1.171875 -2.796875 C 1.171875 -2.359375 1.257812 -1.976562 1.4375 -1.65625 C 1.613281 -1.332031 1.851562 -1.085938 2.15625 -0.921875 C 2.46875 -0.753906 2.816406 -0.671875 3.203125 -0.671875 C 3.597656 -0.671875 3.953125 -0.765625 4.265625 -0.953125 C 4.335938 -0.992188 4.410156 -1.015625 4.484375 -1.015625 C 4.597656 -1.015625 4.691406 -0.96875 4.765625 -0.875 C 4.828125 -0.789062 4.859375 -0.703125 4.859375 -0.609375 C 4.859375 -0.546875 4.835938 -0.488281 4.796875 -0.4375 C 4.765625 -0.382812 4.71875 -0.335938 4.65625 -0.296875 C 4.457031 -0.179688 4.226562 -0.0859375 3.96875 -0.015625 C 3.707031 0.046875 3.453125 0.078125 3.203125 0.078125 C 2.679688 0.078125 2.203125 -0.0351562 1.765625 -0.265625 C 1.335938 -0.492188 0.992188 -0.828125 0.734375 -1.265625 C 0.472656 -1.703125 0.34375 -2.210938 0.34375 -2.796875 C 0.34375 -3.335938 0.46875 -3.820312 0.71875 -4.25 C 0.96875 -4.6875 1.304688 -5.03125 1.734375 -5.28125 C 2.171875 -5.53125 2.660156 -5.65625 3.203125 -5.65625 C 3.710938 -5.65625 4.195312 -5.523438 4.65625 -5.265625 Z M 4.65625 -5.265625 "/></g></g></g><g fill="#000000" fill-opacity="1"><g transform="translate(126.169494, 214.909278)"><g><path d="M 4.53125 -2.09375 C 4.53125 -1.675781 4.4375 -1.300781 4.25 -0.96875 C 4.0625 -0.644531 3.804688 -0.390625 3.484375 -0.203125 C 3.171875 -0.015625 2.816406 0.078125 2.421875 0.078125 C 2.035156 0.078125 1.679688 -0.015625 1.359375 -0.203125 C 1.035156 -0.390625 0.78125 -0.644531 0.59375 -0.96875 C 0.40625 -1.300781 0.3125 -1.675781 0.3125 -2.09375 C 0.3125 -2.507812 0.40625 -2.882812 0.59375 -3.21875 C 0.78125 -3.5625 1.035156 -3.820312 1.359375 -4 C 1.679688 -4.1875 2.035156 -4.28125 2.421875 -4.28125 C 2.816406 -4.28125 3.171875 -4.1875 3.484375 -4 C 3.804688 -3.820312 4.0625 -3.5625 4.25 -3.21875 C 4.4375 -2.882812 4.53125 -2.507812 4.53125 -2.09375 Z M 3.78125 -2.09375 C 3.78125 -2.382812 3.71875 -2.640625 3.59375 -2.859375 C 3.476562 -3.085938 3.316406 -3.265625 3.109375 -3.390625 C 2.898438 -3.515625 2.671875 -3.578125 2.421875 -3.578125 C 2.171875 -3.578125 1.941406 -3.515625 1.734375 -3.390625 C 1.535156 -3.265625 1.375 -3.085938 1.25 -2.859375 C 1.132812 -2.640625 1.078125 -2.382812 1.078125 -2.09375 C 1.078125 -1.8125 1.132812 -1.554688 1.25 -1.328125 C 1.375 -1.109375 1.535156 -0.9375 1.734375 -0.8125 C 1.941406 -0.6875 2.171875 -0.625 2.421875 -0.625 C 2.671875 -0.625 2.898438 -0.6875 3.109375 -0.8125 C 3.316406 -0.9375 3.476562 -1.109375 3.59375 -1.328125 C 3.71875 -1.554688 3.78125 -1.8125 3.78125 -2.09375 Z M 3.78125 -2.09375 "/></g></g></g><g fill="#000000" fill-opacity="1"><g transform="translate(136.23356, 214.909278)"><g><path d="M 2.703125 -4.28125 C 3.660156 -4.28125 4.140625 -3.707031 4.140625 -2.5625 L 4.140625 -0.390625 C 4.140625 -0.273438 4.101562 -0.179688 4.03125 -0.109375 C 3.957031 -0.0351562 3.867188 0 3.765625 0 C 3.648438 0 3.554688 -0.0351562 3.484375 -0.109375 C 3.421875 -0.179688 3.390625 -0.273438 3.390625 -0.390625 L 3.390625 -2.546875 C 3.390625 -2.867188 3.316406 -3.117188 3.171875 -3.296875 C 3.023438 -3.484375 2.789062 -3.578125 2.46875 -3.578125 C 2.25 -3.578125 2.050781 -3.53125 1.875 -3.4375 C 1.707031 -3.34375 1.570312 -3.21875 1.46875 -3.0625 C 1.375 -2.90625 1.328125 -2.734375 1.328125 -2.546875 L 1.328125 -0.390625 C 1.328125 -0.273438 1.289062 -0.179688 1.21875 -0.109375 C 1.144531 -0.0351562 1.050781 0 0.9375 0 C 0.832031 0 0.742188 -0.0351562 0.671875 -0.109375 C 0.597656 -0.179688 0.5625 -0.273438 0.5625 -0.390625 L 0.5625 -3.8125 C 0.5625 -3.914062 0.597656 -4.003906 0.671875 -4.078125 C 0.742188 -4.148438 0.832031 -4.1875 0.9375 -4.1875 C 1.050781 -4.1875 1.144531 -4.148438 1.21875 -4.078125 C 1.289062 -4.003906 1.328125 -3.914062 1.328125 -3.8125 L 1.328125 -3.53125 C 1.460938 -3.738281 1.65625 -3.914062 1.90625 -4.0625 C 2.15625 -4.207031 2.421875 -4.28125 2.703125 -4.28125 Z M 2.703125 -4.28125 "/></g></g></g><g fill="#000000" fill-opacity="1"><g transform="translate(146.16163, 214.909278)"><g><path d="M 0.328125 -0.65625 C 0.273438 -0.726562 0.25 -0.800781 0.25 -0.875 C 0.25 -0.976562 0.304688 -1.066406 0.421875 -1.140625 C 0.472656 -1.179688 0.535156 -1.203125 0.609375 -1.203125 C 0.703125 -1.203125 0.789062 -1.160156 0.875 -1.078125 C 1.03125 -0.898438 1.195312 -0.765625 1.375 -0.671875 C 1.5625 -0.578125 1.785156 -0.53125 2.046875 -0.53125 C 2.253906 -0.539062 2.429688 -0.585938 2.578125 -0.671875 C 2.734375 -0.765625 2.8125 -0.910156 2.8125 -1.109375 C 2.8125 -1.285156 2.734375 -1.421875 2.578125 -1.515625 C 2.421875 -1.609375 2.191406 -1.695312 1.890625 -1.78125 C 1.585938 -1.863281 1.335938 -1.945312 1.140625 -2.03125 C 0.941406 -2.125 0.773438 -2.253906 0.640625 -2.421875 C 0.503906 -2.585938 0.4375 -2.804688 0.4375 -3.078125 C 0.4375 -3.316406 0.503906 -3.523438 0.640625 -3.703125 C 0.773438 -3.890625 0.957031 -4.03125 1.1875 -4.125 C 1.414062 -4.226562 1.660156 -4.28125 1.921875 -4.28125 C 2.179688 -4.28125 2.4375 -4.234375 2.6875 -4.140625 C 2.945312 -4.046875 3.15625 -3.898438 3.3125 -3.703125 C 3.375 -3.628906 3.40625 -3.550781 3.40625 -3.46875 C 3.40625 -3.382812 3.363281 -3.300781 3.28125 -3.21875 C 3.226562 -3.175781 3.160156 -3.15625 3.078125 -3.15625 C 2.984375 -3.15625 2.90625 -3.1875 2.84375 -3.25 C 2.738281 -3.375 2.601562 -3.46875 2.4375 -3.53125 C 2.269531 -3.601562 2.085938 -3.640625 1.890625 -3.640625 C 1.691406 -3.640625 1.519531 -3.597656 1.375 -3.515625 C 1.238281 -3.441406 1.171875 -3.304688 1.171875 -3.109375 C 1.171875 -2.921875 1.25 -2.78125 1.40625 -2.6875 C 1.5625 -2.59375 1.804688 -2.503906 2.140625 -2.421875 C 2.421875 -2.347656 2.65625 -2.269531 2.84375 -2.1875 C 3.03125 -2.101562 3.1875 -1.972656 3.3125 -1.796875 C 3.4375 -1.628906 3.5 -1.410156 3.5 -1.140625 C 3.5 -0.890625 3.425781 -0.671875 3.28125 -0.484375 C 3.144531 -0.304688 2.957031 -0.164062 2.71875 -0.0625 C 2.488281 0.03125 2.242188 0.078125 1.984375 0.078125 C 1.648438 0.078125 1.335938 0.0195312 1.046875 -0.09375 C 0.765625 -0.207031 0.523438 -0.394531 0.328125 -0.65625 Z M 0.328125 -0.65625 "/></g></g></g><g fill="#000000" fill-opacity="1"><g transform="translate(155.19369, 214.909278)"><g><path d="M 3.6875 -4.1875 C 3.800781 -4.1875 3.894531 -4.148438 3.96875 -4.078125 C 4.039062 -4.003906 4.078125 -3.914062 4.078125 -3.8125 L 4.078125 -1.6875 C 4.078125 -1.125 3.921875 -0.6875 3.609375 -0.375 C 3.304688 -0.0703125 2.875 0.078125 2.3125 0.078125 C 1.757812 0.078125 1.328125 -0.0703125 1.015625 -0.375 C 0.710938 -0.6875 0.5625 -1.125 0.5625 -1.6875 L 0.5625 -3.8125 C 0.5625 -3.914062 0.597656 -4.003906 0.671875 -4.078125 C 0.742188 -4.148438 0.832031 -4.1875 0.9375 -4.1875 C 1.050781 -4.1875 1.144531 -4.148438 1.21875 -4.078125 C 1.289062 -4.003906 1.328125 -3.914062 1.328125 -3.8125 L 1.328125 -1.6875 C 1.328125 -0.976562 1.65625 -0.625 2.3125 -0.625 C 2.632812 -0.625 2.878906 -0.710938 3.046875 -0.890625 C 3.222656 -1.066406 3.3125 -1.332031 3.3125 -1.6875 L 3.3125 -3.8125 C 3.3125 -3.914062 3.347656 -4.003906 3.421875 -4.078125 C 3.492188 -4.148438 3.582031 -4.1875 3.6875 -4.1875 Z M 3.6875 -4.1875 "/></g></g></g><g fill="#000000" fill-opacity="1"><g transform="translate(165.049758, 214.909278)"><g><path d="M 1.390625 -0.390625 C 1.390625 -0.273438 1.351562 -0.179688 1.28125 -0.109375 C 1.207031 -0.0351562 1.117188 0 1.015625 0 C 0.898438 0 0.804688 -0.0351562 0.734375 -0.109375 C 0.660156 -0.179688 0.625 -0.273438 0.625 -0.390625 L 0.625 -5.53125 C 0.625 -5.644531 0.660156 -5.738281 0.734375 -5.8125 C 0.816406 -5.882812 0.910156 -5.921875 1.015625 -5.921875 C 1.117188 -5.921875 1.207031 -5.882812 1.28125 -5.8125 C 1.351562 -5.738281 1.390625 -5.644531 1.390625 -5.53125 Z M 1.390625 -0.390625 "/></g></g></g><g fill="#000000" fill-opacity="1"><g transform="translate(172.289801, 214.909278)"><g><path d="M 1.703125 -3.453125 L 1.703125 -1.0625 C 1.703125 -0.789062 1.820312 -0.65625 2.0625 -0.65625 C 2.101562 -0.65625 2.15625 -0.664062 2.21875 -0.6875 C 2.28125 -0.707031 2.332031 -0.71875 2.375 -0.71875 C 2.4375 -0.71875 2.488281 -0.6875 2.53125 -0.625 C 2.582031 -0.570312 2.609375 -0.5 2.609375 -0.40625 C 2.609375 -0.289062 2.546875 -0.191406 2.421875 -0.109375 C 2.296875 -0.0351562 2.148438 0 1.984375 0 C 1.816406 0 1.65625 -0.015625 1.5 -0.046875 C 1.351562 -0.0859375 1.222656 -0.179688 1.109375 -0.328125 C 0.992188 -0.484375 0.9375 -0.71875 0.9375 -1.03125 L 0.9375 -3.453125 L 0.484375 -3.453125 C 0.378906 -3.453125 0.289062 -3.484375 0.21875 -3.546875 C 0.15625 -3.609375 0.125 -3.691406 0.125 -3.796875 C 0.125 -3.898438 0.15625 -3.984375 0.21875 -4.046875 C 0.289062 -4.109375 0.378906 -4.140625 0.484375 -4.140625 L 0.9375 -4.140625 L 0.9375 -4.8125 C 0.9375 -4.914062 0.972656 -5.003906 1.046875 -5.078125 C 1.117188 -5.160156 1.210938 -5.203125 1.328125 -5.203125 C 1.429688 -5.203125 1.519531 -5.160156 1.59375 -5.078125 C 1.664062 -5.003906 1.703125 -4.914062 1.703125 -4.8125 L 1.703125 -4.140625 L 2.375 -4.140625 C 2.46875 -4.140625 2.546875 -4.101562 2.609375 -4.03125 C 2.679688 -3.96875 2.71875 -3.890625 2.71875 -3.796875 C 2.71875 -3.691406 2.679688 -3.609375 2.609375 -3.546875 C 2.546875 -3.484375 2.46875 -3.453125 2.375 -3.453125 Z M 1.703125 -3.453125 "/></g></g></g><g fill="#000000" fill-opacity="1"><g transform="translate(180.545847, 214.909278)"><g><path d="M 3.96875 -4.25 C 4.082031 -4.25 4.175781 -4.210938 4.25 -4.140625 C 4.320312 -4.066406 4.359375 -3.972656 4.359375 -3.859375 L 4.359375 -0.390625 C 4.359375 -0.273438 4.320312 -0.179688 4.25 -0.109375 C 4.175781 -0.0351562 4.082031 0 3.96875 0 C 3.851562 0 3.757812 -0.0351562 3.6875 -0.109375 C 3.625 -0.179688 3.59375 -0.273438 3.59375 -0.390625 L 3.59375 -0.59375 C 3.457031 -0.40625 3.265625 -0.242188 3.015625 -0.109375 C 2.773438 0.015625 2.519531 0.078125 2.25 0.078125 C 1.882812 0.078125 1.550781 -0.015625 1.25 -0.203125 C 0.957031 -0.390625 0.726562 -0.648438 0.5625 -0.984375 C 0.394531 -1.316406 0.3125 -1.691406 0.3125 -2.109375 C 0.3125 -2.523438 0.394531 -2.898438 0.5625 -3.234375 C 0.726562 -3.566406 0.957031 -3.820312 1.25 -4 C 1.550781 -4.1875 1.875 -4.28125 2.21875 -4.28125 C 2.5 -4.28125 2.757812 -4.222656 3 -4.109375 C 3.25 -3.992188 3.445312 -3.84375 3.59375 -3.65625 L 3.59375 -3.859375 C 3.59375 -3.972656 3.625 -4.066406 3.6875 -4.140625 C 3.757812 -4.210938 3.851562 -4.25 3.96875 -4.25 Z M 2.34375 -0.625 C 2.59375 -0.625 2.8125 -0.6875 3 -0.8125 C 3.195312 -0.945312 3.347656 -1.125 3.453125 -1.34375 C 3.566406 -1.570312 3.625 -1.828125 3.625 -2.109375 C 3.625 -2.378906 3.566406 -2.625 3.453125 -2.84375 C 3.347656 -3.070312 3.195312 -3.25 3 -3.375 C 2.8125 -3.507812 2.59375 -3.578125 2.34375 -3.578125 C 2.082031 -3.578125 1.851562 -3.515625 1.65625 -3.390625 C 1.46875 -3.265625 1.316406 -3.085938 1.203125 -2.859375 C 1.097656 -2.640625 1.046875 -2.390625 1.046875 -2.109375 C 1.046875 -1.828125 1.097656 -1.570312 1.203125 -1.34375 C 1.316406 -1.125 1.46875 -0.945312 1.65625 -0.8125 C 1.851562 -0.6875 2.082031 -0.625 2.34375 -0.625 Z M 2.34375 -0.625 "/></g></g></g><g fill="#000000" fill-opacity="1"><g transform="translate(190.673919, 214.909278)"><g><path d="M 2.703125 -4.28125 C 3.660156 -4.28125 4.140625 -3.707031 4.140625 -2.5625 L 4.140625 -0.390625 C 4.140625 -0.273438 4.101562 -0.179688 4.03125 -0.109375 C 3.957031 -0.0351562 3.867188 0 3.765625 0 C 3.648438 0 3.554688 -0.0351562 3.484375 -0.109375 C 3.421875 -0.179688 3.390625 -0.273438 3.390625 -0.390625 L 3.390625 -2.546875 C 3.390625 -2.867188 3.316406 -3.117188 3.171875 -3.296875 C 3.023438 -3.484375 2.789062 -3.578125 2.46875 -3.578125 C 2.25 -3.578125 2.050781 -3.53125 1.875 -3.4375 C 1.707031 -3.34375 1.570312 -3.21875 1.46875 -3.0625 C 1.375 -2.90625 1.328125 -2.734375 1.328125 -2.546875 L 1.328125 -0.390625 C 1.328125 -0.273438 1.289062 -0.179688 1.21875 -0.109375 C 1.144531 -0.0351562 1.050781 0 0.9375 0 C 0.832031 0 0.742188 -0.0351562 0.671875 -0.109375 C 0.597656 -0.179688 0.5625 -0.273438 0.5625 -0.390625 L 0.5625 -3.8125 C 0.5625 -3.914062 0.597656 -4.003906 0.671875 -4.078125 C 0.742188 -4.148438 0.832031 -4.1875 0.9375 -4.1875 C 1.050781 -4.1875 1.144531 -4.148438 1.21875 -4.078125 C 1.289062 -4.003906 1.328125 -3.914062 1.328125 -3.8125 L 1.328125 -3.53125 C 1.460938 -3.738281 1.65625 -3.914062 1.90625 -4.0625 C 2.15625 -4.207031 2.421875 -4.28125 2.703125 -4.28125 Z M 2.703125 -4.28125 "/></g></g></g><g fill="#000000" fill-opacity="1"><g transform="translate(200.601989, 214.909278)"><g><path d="M 2.390625 -4.28125 C 2.816406 -4.28125 3.164062 -4.210938 3.4375 -4.078125 C 3.71875 -3.953125 3.859375 -3.785156 3.859375 -3.578125 C 3.859375 -3.484375 3.828125 -3.398438 3.765625 -3.328125 C 3.710938 -3.253906 3.640625 -3.21875 3.546875 -3.21875 C 3.484375 -3.21875 3.429688 -3.226562 3.390625 -3.25 C 3.347656 -3.269531 3.289062 -3.304688 3.21875 -3.359375 C 3.1875 -3.390625 3.140625 -3.425781 3.078125 -3.46875 C 3.003906 -3.5 2.910156 -3.523438 2.796875 -3.546875 C 2.679688 -3.566406 2.578125 -3.578125 2.484375 -3.578125 C 2.203125 -3.578125 1.953125 -3.515625 1.734375 -3.390625 C 1.523438 -3.265625 1.363281 -3.085938 1.25 -2.859375 C 1.132812 -2.628906 1.078125 -2.378906 1.078125 -2.109375 C 1.078125 -1.828125 1.132812 -1.570312 1.25 -1.34375 C 1.363281 -1.125 1.523438 -0.945312 1.734375 -0.8125 C 1.941406 -0.6875 2.175781 -0.625 2.4375 -0.625 C 2.71875 -0.625 2.941406 -0.664062 3.109375 -0.75 C 3.148438 -0.769531 3.203125 -0.804688 3.265625 -0.859375 C 3.316406 -0.898438 3.363281 -0.929688 3.40625 -0.953125 C 3.445312 -0.972656 3.492188 -0.984375 3.546875 -0.984375 C 3.660156 -0.984375 3.742188 -0.945312 3.796875 -0.875 C 3.859375 -0.8125 3.890625 -0.726562 3.890625 -0.625 C 3.890625 -0.507812 3.816406 -0.394531 3.671875 -0.28125 C 3.535156 -0.175781 3.347656 -0.0859375 3.109375 -0.015625 C 2.878906 0.046875 2.628906 0.078125 2.359375 0.078125 C 1.953125 0.078125 1.59375 -0.015625 1.28125 -0.203125 C 0.96875 -0.390625 0.726562 -0.648438 0.5625 -0.984375 C 0.394531 -1.316406 0.3125 -1.691406 0.3125 -2.109375 C 0.3125 -2.515625 0.398438 -2.882812 0.578125 -3.21875 C 0.753906 -3.550781 1 -3.8125 1.3125 -4 C 1.625 -4.1875 1.984375 -4.28125 2.390625 -4.28125 Z M 2.390625 -4.28125 "/></g></g></g><g fill="#000000" fill-opacity="1"><g transform="translate(209.93005, 214.909278)"><g><path d="M 3.6875 -4.234375 C 3.800781 -4.234375 3.894531 -4.195312 3.96875 -4.125 C 4.039062 -4.050781 4.078125 -3.957031 4.078125 -3.84375 L 4.078125 -0.390625 C 4.078125 0.273438 3.890625 0.769531 3.515625 1.09375 C 3.148438 1.425781 2.664062 1.59375 2.0625 1.59375 C 1.863281 1.59375 1.664062 1.570312 1.46875 1.53125 C 1.28125 1.5 1.128906 1.453125 1.015625 1.390625 C 0.816406 1.296875 0.71875 1.175781 0.71875 1.03125 C 0.71875 1 0.722656 0.960938 0.734375 0.921875 C 0.765625 0.828125 0.804688 0.753906 0.859375 0.703125 C 0.921875 0.660156 0.988281 0.640625 1.0625 0.640625 C 1.101562 0.640625 1.144531 0.644531 1.1875 0.65625 C 1.351562 0.738281 1.5 0.800781 1.625 0.84375 C 1.75 0.882812 1.898438 0.90625 2.078125 0.90625 C 2.898438 0.90625 3.3125 0.476562 3.3125 -0.375 L 3.3125 -0.53125 C 3.164062 -0.332031 2.976562 -0.179688 2.75 -0.078125 C 2.53125 0.0234375 2.269531 0.078125 1.96875 0.078125 C 1.53125 0.078125 1.1875 -0.0625 0.9375 -0.34375 C 0.6875 -0.625 0.5625 -0.992188 0.5625 -1.453125 L 0.5625 -3.84375 C 0.5625 -3.957031 0.597656 -4.050781 0.671875 -4.125 C 0.742188 -4.195312 0.832031 -4.234375 0.9375 -4.234375 C 1.050781 -4.234375 1.144531 -4.195312 1.21875 -4.125 C 1.289062 -4.050781 1.328125 -3.957031 1.328125 -3.84375 L 1.328125 -1.65625 C 1.328125 -1.300781 1.40625 -1.039062 1.5625 -0.875 C 1.71875 -0.707031 1.953125 -0.625 2.265625 -0.625 C 2.566406 -0.625 2.816406 -0.71875 3.015625 -0.90625 C 3.210938 -1.101562 3.3125 -1.351562 3.3125 -1.65625 L 3.3125 -3.84375 C 3.3125 -3.957031 3.34375 -4.050781 3.40625 -4.125 C 3.476562 -4.195312 3.570312 -4.234375 3.6875 -4.234375 Z M 3.6875 -4.234375 "/></g></g></g><g fill="#000000" fill-opacity="1"><g transform="translate(219.778102, 214.909278)"><g/></g></g><g fill="#000000" fill-opacity="1"><g transform="translate(227.210131, 214.909278)"><g><path d="M 5.203125 -0.65625 C 5.316406 -0.5625 5.375 -0.457031 5.375 -0.34375 C 5.375 -0.257812 5.34375 -0.179688 5.28125 -0.109375 C 5.226562 -0.0351562 5.15625 0 5.0625 0 C 4.96875 0 4.890625 -0.0195312 4.828125 -0.0625 L 4.09375 -0.671875 C 3.59375 -0.171875 2.960938 0.078125 2.203125 0.078125 C 1.835938 0.078125 1.503906 -0.00390625 1.203125 -0.171875 C 0.898438 -0.335938 0.660156 -0.554688 0.484375 -0.828125 C 0.316406 -1.109375 0.234375 -1.398438 0.234375 -1.703125 C 0.234375 -2.078125 0.332031 -2.410156 0.53125 -2.703125 C 0.726562 -2.992188 1.023438 -3.222656 1.421875 -3.390625 C 1.316406 -3.535156 1.238281 -3.675781 1.1875 -3.8125 C 1.132812 -3.957031 1.109375 -4.101562 1.109375 -4.25 C 1.109375 -4.507812 1.171875 -4.75 1.296875 -4.96875 C 1.429688 -5.1875 1.625 -5.359375 1.875 -5.484375 C 2.125 -5.617188 2.414062 -5.6875 2.75 -5.6875 C 3.113281 -5.6875 3.4375 -5.617188 3.71875 -5.484375 C 4 -5.347656 4.191406 -5.179688 4.296875 -4.984375 C 4.335938 -4.910156 4.359375 -4.828125 4.359375 -4.734375 C 4.359375 -4.648438 4.328125 -4.578125 4.265625 -4.515625 C 4.203125 -4.460938 4.117188 -4.4375 4.015625 -4.4375 C 3.898438 -4.4375 3.816406 -4.476562 3.765625 -4.5625 C 3.648438 -4.71875 3.507812 -4.832031 3.34375 -4.90625 C 3.1875 -4.988281 2.988281 -5.03125 2.75 -5.03125 C 2.476562 -5.03125 2.269531 -4.957031 2.125 -4.8125 C 1.976562 -4.675781 1.90625 -4.5 1.90625 -4.28125 C 1.90625 -4.09375 1.972656 -3.898438 2.109375 -3.703125 C 2.242188 -3.503906 2.441406 -3.265625 2.703125 -2.984375 L 2.84375 -2.828125 C 3.15625 -2.484375 3.535156 -2.113281 3.984375 -1.71875 C 4.117188 -1.988281 4.210938 -2.285156 4.265625 -2.609375 C 4.296875 -2.765625 4.40625 -2.84375 4.59375 -2.84375 C 4.695312 -2.84375 4.78125 -2.796875 4.84375 -2.703125 C 4.914062 -2.617188 4.941406 -2.519531 4.921875 -2.40625 C 4.859375 -1.96875 4.726562 -1.578125 4.53125 -1.234375 C 4.75 -1.046875 4.972656 -0.851562 5.203125 -0.65625 Z M 2.359375 -0.640625 C 2.828125 -0.640625 3.226562 -0.800781 3.5625 -1.125 C 3 -1.625 2.519531 -2.097656 2.125 -2.546875 C 2.050781 -2.628906 1.960938 -2.734375 1.859375 -2.859375 C 1.554688 -2.765625 1.335938 -2.628906 1.203125 -2.453125 C 1.078125 -2.273438 1.015625 -2.0625 1.015625 -1.8125 C 1.015625 -1.601562 1.0625 -1.410156 1.15625 -1.234375 C 1.25 -1.054688 1.394531 -0.910156 1.59375 -0.796875 C 1.800781 -0.691406 2.054688 -0.640625 2.359375 -0.640625 Z M 2.359375 -0.640625 "/></g></g></g><g fill="#000000" fill-opacity="1"><g transform="translate(238.002197, 214.909278)"><g/></g></g><g fill="#000000" fill-opacity="1"><g transform="translate(245.434226, 214.909278)"><g><path d="M 4.96875 -0.5 C 4.976562 -0.445312 4.984375 -0.394531 4.984375 -0.34375 C 4.984375 -0.238281 4.945312 -0.148438 4.875 -0.078125 C 4.8125 -0.00390625 4.726562 0.03125 4.625 0.03125 C 4.550781 0.03125 4.484375 0.0078125 4.421875 -0.03125 C 4.367188 -0.0820312 4.320312 -0.148438 4.28125 -0.234375 L 3.78125 -1.40625 L 1.3125 -1.40625 L 0.828125 -0.21875 C 0.796875 -0.144531 0.75 -0.0820312 0.6875 -0.03125 C 0.625 0.0078125 0.554688 0.03125 0.484375 0.03125 C 0.367188 0.03125 0.28125 0 0.21875 -0.0625 C 0.164062 -0.125 0.140625 -0.203125 0.140625 -0.296875 C 0.140625 -0.328125 0.144531 -0.375 0.15625 -0.4375 L 2.203125 -5.375 C 2.234375 -5.457031 2.28125 -5.519531 2.34375 -5.5625 C 2.414062 -5.613281 2.492188 -5.632812 2.578125 -5.625 C 2.660156 -5.625 2.734375 -5.601562 2.796875 -5.5625 C 2.859375 -5.519531 2.90625 -5.457031 2.9375 -5.375 Z M 1.609375 -2.140625 L 3.484375 -2.140625 L 2.546875 -4.375 Z M 1.609375 -2.140625 "/></g></g></g><g fill="#000000" fill-opacity="1"><g transform="translate(255.786287, 214.909278)"><g><path d="M 2.390625 -4.28125 C 2.816406 -4.28125 3.164062 -4.210938 3.4375 -4.078125 C 3.71875 -3.953125 3.859375 -3.785156 3.859375 -3.578125 C 3.859375 -3.484375 3.828125 -3.398438 3.765625 -3.328125 C 3.710938 -3.253906 3.640625 -3.21875 3.546875 -3.21875 C 3.484375 -3.21875 3.429688 -3.226562 3.390625 -3.25 C 3.347656 -3.269531 3.289062 -3.304688 3.21875 -3.359375 C 3.1875 -3.390625 3.140625 -3.425781 3.078125 -3.46875 C 3.003906 -3.5 2.910156 -3.523438 2.796875 -3.546875 C 2.679688 -3.566406 2.578125 -3.578125 2.484375 -3.578125 C 2.203125 -3.578125 1.953125 -3.515625 1.734375 -3.390625 C 1.523438 -3.265625 1.363281 -3.085938 1.25 -2.859375 C 1.132812 -2.628906 1.078125 -2.378906 1.078125 -2.109375 C 1.078125 -1.828125 1.132812 -1.570312 1.25 -1.34375 C 1.363281 -1.125 1.523438 -0.945312 1.734375 -0.8125 C 1.941406 -0.6875 2.175781 -0.625 2.4375 -0.625 C 2.71875 -0.625 2.941406 -0.664062 3.109375 -0.75 C 3.148438 -0.769531 3.203125 -0.804688 3.265625 -0.859375 C 3.316406 -0.898438 3.363281 -0.929688 3.40625 -0.953125 C 3.445312 -0.972656 3.492188 -0.984375 3.546875 -0.984375 C 3.660156 -0.984375 3.742188 -0.945312 3.796875 -0.875 C 3.859375 -0.8125 3.890625 -0.726562 3.890625 -0.625 C 3.890625 -0.507812 3.816406 -0.394531 3.671875 -0.28125 C 3.535156 -0.175781 3.347656 -0.0859375 3.109375 -0.015625 C 2.878906 0.046875 2.628906 0.078125 2.359375 0.078125 C 1.953125 0.078125 1.59375 -0.015625 1.28125 -0.203125 C 0.96875 -0.390625 0.726562 -0.648438 0.5625 -0.984375 C 0.394531 -1.316406 0.3125 -1.691406 0.3125 -2.109375 C 0.3125 -2.515625 0.398438 -2.882812 0.578125 -3.21875 C 0.753906 -3.550781 1 -3.8125 1.3125 -4 C 1.625 -4.1875 1.984375 -4.28125 2.390625 -4.28125 Z M 2.390625 -4.28125 "/></g></g></g><g fill="#000000" fill-opacity="1"><g transform="translate(265.114339, 214.909278)"><g><path d="M 2.390625 -4.28125 C 2.816406 -4.28125 3.164062 -4.210938 3.4375 -4.078125 C 3.71875 -3.953125 3.859375 -3.785156 3.859375 -3.578125 C 3.859375 -3.484375 3.828125 -3.398438 3.765625 -3.328125 C 3.710938 -3.253906 3.640625 -3.21875 3.546875 -3.21875 C 3.484375 -3.21875 3.429688 -3.226562 3.390625 -3.25 C 3.347656 -3.269531 3.289062 -3.304688 3.21875 -3.359375 C 3.1875 -3.390625 3.140625 -3.425781 3.078125 -3.46875 C 3.003906 -3.5 2.910156 -3.523438 2.796875 -3.546875 C 2.679688 -3.566406 2.578125 -3.578125 2.484375 -3.578125 C 2.203125 -3.578125 1.953125 -3.515625 1.734375 -3.390625 C 1.523438 -3.265625 1.363281 -3.085938 1.25 -2.859375 C 1.132812 -2.628906 1.078125 -2.378906 1.078125 -2.109375 C 1.078125 -1.828125 1.132812 -1.570312 1.25 -1.34375 C 1.363281 -1.125 1.523438 -0.945312 1.734375 -0.8125 C 1.941406 -0.6875 2.175781 -0.625 2.4375 -0.625 C 2.71875 -0.625 2.941406 -0.664062 3.109375 -0.75 C 3.148438 -0.769531 3.203125 -0.804688 3.265625 -0.859375 C 3.316406 -0.898438 3.363281 -0.929688 3.40625 -0.953125 C 3.445312 -0.972656 3.492188 -0.984375 3.546875 -0.984375 C 3.660156 -0.984375 3.742188 -0.945312 3.796875 -0.875 C 3.859375 -0.8125 3.890625 -0.726562 3.890625 -0.625 C 3.890625 -0.507812 3.816406 -0.394531 3.671875 -0.28125 C 3.535156 -0.175781 3.347656 -0.0859375 3.109375 -0.015625 C 2.878906 0.046875 2.628906 0.078125 2.359375 0.078125 C 1.953125 0.078125 1.59375 -0.015625 1.28125 -0.203125 C 0.96875 -0.390625 0.726562 -0.648438 0.5625 -0.984375 C 0.394531 -1.316406 0.3125 -1.691406 0.3125 -2.109375 C 0.3125 -2.515625 0.398438 -2.882812 0.578125 -3.21875 C 0.753906 -3.550781 1 -3.8125 1.3125 -4 C 1.625 -4.1875 1.984375 -4.28125 2.390625 -4.28125 Z M 2.390625 -4.28125 "/></g></g></g><g fill="#000000" fill-opacity="1"><g transform="translate(274.44239, 214.909278)"><g><path d="M 4.53125 -2.09375 C 4.53125 -1.675781 4.4375 -1.300781 4.25 -0.96875 C 4.0625 -0.644531 3.804688 -0.390625 3.484375 -0.203125 C 3.171875 -0.015625 2.816406 0.078125 2.421875 0.078125 C 2.035156 0.078125 1.679688 -0.015625 1.359375 -0.203125 C 1.035156 -0.390625 0.78125 -0.644531 0.59375 -0.96875 C 0.40625 -1.300781 0.3125 -1.675781 0.3125 -2.09375 C 0.3125 -2.507812 0.40625 -2.882812 0.59375 -3.21875 C 0.78125 -3.5625 1.035156 -3.820312 1.359375 -4 C 1.679688 -4.1875 2.035156 -4.28125 2.421875 -4.28125 C 2.816406 -4.28125 3.171875 -4.1875 3.484375 -4 C 3.804688 -3.820312 4.0625 -3.5625 4.25 -3.21875 C 4.4375 -2.882812 4.53125 -2.507812 4.53125 -2.09375 Z M 3.78125 -2.09375 C 3.78125 -2.382812 3.71875 -2.640625 3.59375 -2.859375 C 3.476562 -3.085938 3.316406 -3.265625 3.109375 -3.390625 C 2.898438 -3.515625 2.671875 -3.578125 2.421875 -3.578125 C 2.171875 -3.578125 1.941406 -3.515625 1.734375 -3.390625 C 1.535156 -3.265625 1.375 -3.085938 1.25 -2.859375 C 1.132812 -2.640625 1.078125 -2.382812 1.078125 -2.09375 C 1.078125 -1.8125 1.132812 -1.554688 1.25 -1.328125 C 1.375 -1.109375 1.535156 -0.9375 1.734375 -0.8125 C 1.941406 -0.6875 2.171875 -0.625 2.421875 -0.625 C 2.671875 -0.625 2.898438 -0.6875 3.109375 -0.8125 C 3.316406 -0.9375 3.476562 -1.109375 3.59375 -1.328125 C 3.71875 -1.554688 3.78125 -1.8125 3.78125 -2.09375 Z M 3.78125 -2.09375 "/></g></g></g><g fill="#000000" fill-opacity="1"><g transform="translate(284.506446, 214.909278)"><g><path d="M 3.6875 -4.1875 C 3.800781 -4.1875 3.894531 -4.148438 3.96875 -4.078125 C 4.039062 -4.003906 4.078125 -3.914062 4.078125 -3.8125 L 4.078125 -1.6875 C 4.078125 -1.125 3.921875 -0.6875 3.609375 -0.375 C 3.304688 -0.0703125 2.875 0.078125 2.3125 0.078125 C 1.757812 0.078125 1.328125 -0.0703125 1.015625 -0.375 C 0.710938 -0.6875 0.5625 -1.125 0.5625 -1.6875 L 0.5625 -3.8125 C 0.5625 -3.914062 0.597656 -4.003906 0.671875 -4.078125 C 0.742188 -4.148438 0.832031 -4.1875 0.9375 -4.1875 C 1.050781 -4.1875 1.144531 -4.148438 1.21875 -4.078125 C 1.289062 -4.003906 1.328125 -3.914062 1.328125 -3.8125 L 1.328125 -1.6875 C 1.328125 -0.976562 1.65625 -0.625 2.3125 -0.625 C 2.632812 -0.625 2.878906 -0.710938 3.046875 -0.890625 C 3.222656 -1.066406 3.3125 -1.332031 3.3125 -1.6875 L 3.3125 -3.8125 C 3.3125 -3.914062 3.347656 -4.003906 3.421875 -4.078125 C 3.492188 -4.148438 3.582031 -4.1875 3.6875 -4.1875 Z M 3.6875 -4.1875 "/></g></g></g><g fill="#000000" fill-opacity="1"><g transform="translate(294.362514, 214.909278)"><g><path d="M 2.703125 -4.28125 C 3.660156 -4.28125 4.140625 -3.707031 4.140625 -2.5625 L 4.140625 -0.390625 C 4.140625 -0.273438 4.101562 -0.179688 4.03125 -0.109375 C 3.957031 -0.0351562 3.867188 0 3.765625 0 C 3.648438 0 3.554688 -0.0351562 3.484375 -0.109375 C 3.421875 -0.179688 3.390625 -0.273438 3.390625 -0.390625 L 3.390625 -2.546875 C 3.390625 -2.867188 3.316406 -3.117188 3.171875 -3.296875 C 3.023438 -3.484375 2.789062 -3.578125 2.46875 -3.578125 C 2.25 -3.578125 2.050781 -3.53125 1.875 -3.4375 C 1.707031 -3.34375 1.570312 -3.21875 1.46875 -3.0625 C 1.375 -2.90625 1.328125 -2.734375 1.328125 -2.546875 L 1.328125 -0.390625 C 1.328125 -0.273438 1.289062 -0.179688 1.21875 -0.109375 C 1.144531 -0.0351562 1.050781 0 0.9375 0 C 0.832031 0 0.742188 -0.0351562 0.671875 -0.109375 C 0.597656 -0.179688 0.5625 -0.273438 0.5625 -0.390625 L 0.5625 -3.8125 C 0.5625 -3.914062 0.597656 -4.003906 0.671875 -4.078125 C 0.742188 -4.148438 0.832031 -4.1875 0.9375 -4.1875 C 1.050781 -4.1875 1.144531 -4.148438 1.21875 -4.078125 C 1.289062 -4.003906 1.328125 -3.914062 1.328125 -3.8125 L 1.328125 -3.53125 C 1.460938 -3.738281 1.65625 -3.914062 1.90625 -4.0625 C 2.15625 -4.207031 2.421875 -4.28125 2.703125 -4.28125 Z M 2.703125 -4.28125 "/></g></g></g><g fill="#000000" fill-opacity="1"><g transform="translate(304.290583, 214.909278)"><g><path d="M 1.703125 -3.453125 L 1.703125 -1.0625 C 1.703125 -0.789062 1.820312 -0.65625 2.0625 -0.65625 C 2.101562 -0.65625 2.15625 -0.664062 2.21875 -0.6875 C 2.28125 -0.707031 2.332031 -0.71875 2.375 -0.71875 C 2.4375 -0.71875 2.488281 -0.6875 2.53125 -0.625 C 2.582031 -0.570312 2.609375 -0.5 2.609375 -0.40625 C 2.609375 -0.289062 2.546875 -0.191406 2.421875 -0.109375 C 2.296875 -0.0351562 2.148438 0 1.984375 0 C 1.816406 0 1.65625 -0.015625 1.5 -0.046875 C 1.351562 -0.0859375 1.222656 -0.179688 1.109375 -0.328125 C 0.992188 -0.484375 0.9375 -0.71875 0.9375 -1.03125 L 0.9375 -3.453125 L 0.484375 -3.453125 C 0.378906 -3.453125 0.289062 -3.484375 0.21875 -3.546875 C 0.15625 -3.609375 0.125 -3.691406 0.125 -3.796875 C 0.125 -3.898438 0.15625 -3.984375 0.21875 -4.046875 C 0.289062 -4.109375 0.378906 -4.140625 0.484375 -4.140625 L 0.9375 -4.140625 L 0.9375 -4.8125 C 0.9375 -4.914062 0.972656 -5.003906 1.046875 -5.078125 C 1.117188 -5.160156 1.210938 -5.203125 1.328125 -5.203125 C 1.429688 -5.203125 1.519531 -5.160156 1.59375 -5.078125 C 1.664062 -5.003906 1.703125 -4.914062 1.703125 -4.8125 L 1.703125 -4.140625 L 2.375 -4.140625 C 2.46875 -4.140625 2.546875 -4.101562 2.609375 -4.03125 C 2.679688 -3.96875 2.71875 -3.890625 2.71875 -3.796875 C 2.71875 -3.691406 2.679688 -3.609375 2.609375 -3.546875 C 2.546875 -3.484375 2.46875 -3.453125 2.375 -3.453125 Z M 1.703125 -3.453125 "/></g></g></g><g fill="#000000" fill-opacity="1"><g transform="translate(312.54663, 214.909278)"><g><path d="M 1.28125 -0.390625 C 1.28125 -0.273438 1.242188 -0.179688 1.171875 -0.109375 C 1.109375 -0.0351562 1.019531 0 0.90625 0 C 0.800781 0 0.710938 -0.0351562 0.640625 -0.109375 C 0.566406 -0.179688 0.53125 -0.273438 0.53125 -0.390625 L 0.53125 -3.84375 C 0.53125 -3.957031 0.566406 -4.050781 0.640625 -4.125 C 0.710938 -4.195312 0.800781 -4.234375 0.90625 -4.234375 C 1.019531 -4.234375 1.109375 -4.195312 1.171875 -4.125 C 1.242188 -4.050781 1.28125 -3.957031 1.28125 -3.84375 Z M 0.90625 -4.765625 C 0.75 -4.765625 0.632812 -4.789062 0.5625 -4.84375 C 0.5 -4.894531 0.46875 -4.984375 0.46875 -5.109375 L 0.46875 -5.234375 C 0.46875 -5.367188 0.503906 -5.460938 0.578125 -5.515625 C 0.648438 -5.566406 0.757812 -5.59375 0.90625 -5.59375 C 1.0625 -5.59375 1.171875 -5.5625 1.234375 -5.5 C 1.296875 -5.445312 1.328125 -5.359375 1.328125 -5.234375 L 1.328125 -5.109375 C 1.328125 -4.984375 1.289062 -4.894531 1.21875 -4.84375 C 1.15625 -4.789062 1.050781 -4.765625 0.90625 -4.765625 Z M 0.90625 -4.765625 "/></g></g></g><g fill="#000000" fill-opacity="1"><g transform="translate(319.578654, 214.909278)"><g><path d="M 2.703125 -4.28125 C 3.660156 -4.28125 4.140625 -3.707031 4.140625 -2.5625 L 4.140625 -0.390625 C 4.140625 -0.273438 4.101562 -0.179688 4.03125 -0.109375 C 3.957031 -0.0351562 3.867188 0 3.765625 0 C 3.648438 0 3.554688 -0.0351562 3.484375 -0.109375 C 3.421875 -0.179688 3.390625 -0.273438 3.390625 -0.390625 L 3.390625 -2.546875 C 3.390625 -2.867188 3.316406 -3.117188 3.171875 -3.296875 C 3.023438 -3.484375 2.789062 -3.578125 2.46875 -3.578125 C 2.25 -3.578125 2.050781 -3.53125 1.875 -3.4375 C 1.707031 -3.34375 1.570312 -3.21875 1.46875 -3.0625 C 1.375 -2.90625 1.328125 -2.734375 1.328125 -2.546875 L 1.328125 -0.390625 C 1.328125 -0.273438 1.289062 -0.179688 1.21875 -0.109375 C 1.144531 -0.0351562 1.050781 0 0.9375 0 C 0.832031 0 0.742188 -0.0351562 0.671875 -0.109375 C 0.597656 -0.179688 0.5625 -0.273438 0.5625 -0.390625 L 0.5625 -3.8125 C 0.5625 -3.914062 0.597656 -4.003906 0.671875 -4.078125 C 0.742188 -4.148438 0.832031 -4.1875 0.9375 -4.1875 C 1.050781 -4.1875 1.144531 -4.148438 1.21875 -4.078125 C 1.289062 -4.003906 1.328125 -3.914062 1.328125 -3.8125 L 1.328125 -3.53125 C 1.460938 -3.738281 1.65625 -3.914062 1.90625 -4.0625 C 2.15625 -4.207031 2.421875 -4.28125 2.703125 -4.28125 Z M 2.703125 -4.28125 "/></g></g></g><g fill="#000000" fill-opacity="1"><g transform="translate(329.506724, 214.909278)"><g><path d="M 4.078125 -4.25 C 4.179688 -4.25 4.269531 -4.210938 4.34375 -4.140625 C 4.414062 -4.066406 4.453125 -3.972656 4.453125 -3.859375 L 4.453125 -0.34375 C 4.453125 0.09375 4.359375 0.457031 4.171875 0.75 C 3.992188 1.039062 3.742188 1.253906 3.421875 1.390625 C 3.109375 1.523438 2.757812 1.59375 2.375 1.59375 C 2.15625 1.59375 1.898438 1.554688 1.609375 1.484375 C 1.328125 1.410156 1.148438 1.332031 1.078125 1.25 C 0.910156 1.164062 0.828125 1.0625 0.828125 0.9375 C 0.828125 0.90625 0.835938 0.863281 0.859375 0.8125 C 0.910156 0.675781 1.007812 0.609375 1.15625 0.609375 C 1.21875 0.609375 1.289062 0.625 1.375 0.65625 C 1.800781 0.820312 2.132812 0.90625 2.375 0.90625 C 2.800781 0.90625 3.128906 0.800781 3.359375 0.59375 C 3.585938 0.382812 3.703125 0.101562 3.703125 -0.25 L 3.703125 -0.6875 C 3.585938 -0.476562 3.394531 -0.296875 3.125 -0.140625 C 2.863281 0.00390625 2.585938 0.078125 2.296875 0.078125 C 1.929688 0.078125 1.59375 -0.015625 1.28125 -0.203125 C 0.976562 -0.390625 0.738281 -0.648438 0.5625 -0.984375 C 0.394531 -1.316406 0.3125 -1.691406 0.3125 -2.109375 C 0.3125 -2.523438 0.394531 -2.898438 0.5625 -3.234375 C 0.738281 -3.566406 0.976562 -3.820312 1.28125 -4 C 1.582031 -4.1875 1.914062 -4.28125 2.28125 -4.28125 C 2.570312 -4.28125 2.84375 -4.210938 3.09375 -4.078125 C 3.351562 -3.953125 3.554688 -3.789062 3.703125 -3.59375 L 3.703125 -3.859375 C 3.703125 -3.972656 3.734375 -4.066406 3.796875 -4.140625 C 3.867188 -4.210938 3.960938 -4.25 4.078125 -4.25 Z M 2.390625 -0.625 C 2.648438 -0.625 2.878906 -0.6875 3.078125 -0.8125 C 3.285156 -0.9375 3.445312 -1.113281 3.5625 -1.34375 C 3.675781 -1.570312 3.734375 -1.828125 3.734375 -2.109375 C 3.734375 -2.390625 3.675781 -2.640625 3.5625 -2.859375 C 3.445312 -3.085938 3.285156 -3.265625 3.078125 -3.390625 C 2.878906 -3.515625 2.648438 -3.578125 2.390625 -3.578125 C 2.128906 -3.578125 1.894531 -3.515625 1.6875 -3.390625 C 1.488281 -3.265625 1.332031 -3.085938 1.21875 -2.859375 C 1.101562 -2.628906 1.046875 -2.378906 1.046875 -2.109375 C 1.046875 -1.828125 1.101562 -1.570312 1.21875 -1.34375 C 1.332031 -1.125 1.488281 -0.945312 1.6875 -0.8125 C 1.894531 -0.6875 2.128906 -0.625 2.390625 -0.625 Z M 2.390625 -0.625 "/></g></g></g></svg>