<svg width="100" height="100" viewBox="0 0 100 100" fill="none" xmlns="http://www.w3.org/2000/svg">
  <rect width="100" height="100" rx="8" fill="#F2EFE8"/>
  <path d="M45 60C45 60 50 65 55 60C60 55 65 60 65 60" stroke="#010000" stroke-width="3" stroke-linecap="round"/>
  <path d="M35 40H45M35 50H45" stroke="#010000" stroke-width="3" stroke-linecap="round"/>
  <rect x="25" y="25" width="50" height="50" rx="4" stroke="#010000" stroke-width="4" stroke-linejoin="round"/>
  <path d="M50 25V75" stroke="#010000" stroke-width="2" stroke-dasharray="4 4"/>
  <path d="M55 35C55 33.3431 56.3431 32 58 32H72C73.6569 32 75 33.3431 75 35V65C75 66.6569 73.6569 68 72 68H58C56.3431 68 55 66.6569 55 65V35Z" stroke="#010000" stroke-width="4"/>
</svg>