<svg xmlns="http://www.w3.org/2000/svg" xmlns:xlink="http://www.w3.org/1999/xlink" width="221" zoomAndPan="magnify" viewBox="0 0 165.75 123.750003" height="165" preserveAspectRatio="xMidYMid meet" version="1.0"><defs><g/><clipPath id="82d69cf90c"><path d="M 1.304688 0 L 163.863281 0 L 163.863281 122.832031 L 1.304688 122.832031 Z M 1.304688 0 " clip-rule="nonzero"/></clipPath></defs><g clip-path="url(#82d69cf90c)"><path fill="#f0efe7" d="M 1.304688 0 L 163.960938 0 L 163.960938 122.832031 L 1.304688 122.832031 Z M 1.304688 0 " fill-opacity="1" fill-rule="nonzero"/></g><g fill="#000000" fill-opacity="1"><g transform="translate(13.865267, 48.954798)"><g><path d="M 0.21875 -18.0625 L 0.21875 -22.578125 L 16.09375 -22.578125 L 16.09375 -18.0625 L 10.71875 -18.0625 L 10.71875 0 L 5.578125 0 L 5.578125 -18.0625 Z M 0.21875 -18.0625 "/></g></g></g><g fill="#000000" fill-opacity="1"><g transform="translate(28.941472, 48.954798)"><g><path d="M 15.84375 -6.34375 L 5.65625 -6.34375 C 5.65625 -5.363281 5.972656 -4.632812 6.609375 -4.15625 C 7.253906 -3.6875 7.953125 -3.453125 8.703125 -3.453125 C 9.484375 -3.453125 10.101562 -3.554688 10.5625 -3.765625 C 11.019531 -3.972656 11.539062 -4.382812 12.125 -5 L 15.625 -3.25 C 14.164062 -0.8125 11.738281 0.40625 8.34375 0.40625 C 6.226562 0.40625 4.410156 -0.316406 2.890625 -1.765625 C 1.378906 -3.210938 0.625 -4.957031 0.625 -7 C 0.625 -9.039062 1.378906 -10.789062 2.890625 -12.25 C 4.410156 -13.71875 6.226562 -14.453125 8.34375 -14.453125 C 10.570312 -14.453125 12.382812 -13.804688 13.78125 -12.515625 C 15.175781 -11.234375 15.875 -9.394531 15.875 -7 C 15.875 -6.675781 15.863281 -6.457031 15.84375 -6.34375 Z M 5.796875 -9.03125 L 11.140625 -9.03125 C 11.023438 -9.757812 10.734375 -10.316406 10.265625 -10.703125 C 9.804688 -11.097656 9.210938 -11.296875 8.484375 -11.296875 C 7.679688 -11.296875 7.039062 -11.085938 6.5625 -10.671875 C 6.09375 -10.253906 5.835938 -9.707031 5.796875 -9.03125 Z M 5.796875 -9.03125 "/></g></g></g><g fill="#000000" fill-opacity="1"><g transform="translate(44.209205, 48.954798)"><g><path d="M 15.84375 -6.34375 L 5.65625 -6.34375 C 5.65625 -5.363281 5.972656 -4.632812 6.609375 -4.15625 C 7.253906 -3.6875 7.953125 -3.453125 8.703125 -3.453125 C 9.484375 -3.453125 10.101562 -3.554688 10.5625 -3.765625 C 11.019531 -3.972656 11.539062 -4.382812 12.125 -5 L 15.625 -3.25 C 14.164062 -0.8125 11.738281 0.40625 8.34375 0.40625 C 6.226562 0.40625 4.410156 -0.316406 2.890625 -1.765625 C 1.378906 -3.210938 0.625 -4.957031 0.625 -7 C 0.625 -9.039062 1.378906 -10.789062 2.890625 -12.25 C 4.410156 -13.71875 6.226562 -14.453125 8.34375 -14.453125 C 10.570312 -14.453125 12.382812 -13.804688 13.78125 -12.515625 C 15.175781 -11.234375 15.875 -9.394531 15.875 -7 C 15.875 -6.675781 15.863281 -6.457031 15.84375 -6.34375 Z M 5.796875 -9.03125 L 11.140625 -9.03125 C 11.023438 -9.757812 10.734375 -10.316406 10.265625 -10.703125 C 9.804688 -11.097656 9.210938 -11.296875 8.484375 -11.296875 C 7.679688 -11.296875 7.039062 -11.085938 6.5625 -10.671875 C 6.09375 -10.253906 5.835938 -9.707031 5.796875 -9.03125 Z M 5.796875 -9.03125 "/></g></g></g><g fill="#000000" fill-opacity="1"><g transform="translate(59.476939, 48.954798)"><g/></g></g><g fill="#000000" fill-opacity="1"><g transform="translate(65.715271, 48.954798)"><g><path d="M 1.640625 -22.578125 L 9.71875 -22.578125 C 11.882812 -22.578125 13.648438 -21.992188 15.015625 -20.828125 C 16.390625 -19.671875 17.078125 -18.019531 17.078125 -15.875 C 17.078125 -14.207031 16.660156 -12.8125 15.828125 -11.6875 C 14.992188 -10.570312 13.867188 -9.785156 12.453125 -9.328125 L 20.21875 0 L 13.6875 0 L 6.78125 -8.921875 L 6.78125 0 L 1.640625 0 Z M 6.78125 -12.5625 L 7.390625 -12.5625 C 7.859375 -12.5625 8.253906 -12.566406 8.578125 -12.578125 C 8.910156 -12.597656 9.285156 -12.660156 9.703125 -12.765625 C 10.128906 -12.878906 10.46875 -13.035156 10.71875 -13.234375 C 10.976562 -13.441406 11.195312 -13.734375 11.375 -14.109375 C 11.5625 -14.492188 11.65625 -14.957031 11.65625 -15.5 C 11.65625 -16.050781 11.5625 -16.519531 11.375 -16.90625 C 11.195312 -17.289062 10.976562 -17.582031 10.71875 -17.78125 C 10.46875 -17.976562 10.128906 -18.128906 9.703125 -18.234375 C 9.285156 -18.347656 8.910156 -18.414062 8.578125 -18.4375 C 8.253906 -18.457031 7.859375 -18.46875 7.390625 -18.46875 L 6.78125 -18.46875 Z M 6.78125 -12.5625 "/></g></g></g><g fill="#000000" fill-opacity="1"><g transform="translate(84.074892, 48.954798)"><g><path d="M 15.84375 -6.34375 L 5.65625 -6.34375 C 5.65625 -5.363281 5.972656 -4.632812 6.609375 -4.15625 C 7.253906 -3.6875 7.953125 -3.453125 8.703125 -3.453125 C 9.484375 -3.453125 10.101562 -3.554688 10.5625 -3.765625 C 11.019531 -3.972656 11.539062 -4.382812 12.125 -5 L 15.625 -3.25 C 14.164062 -0.8125 11.738281 0.40625 8.34375 0.40625 C 6.226562 0.40625 4.410156 -0.316406 2.890625 -1.765625 C 1.378906 -3.210938 0.625 -4.957031 0.625 -7 C 0.625 -9.039062 1.378906 -10.789062 2.890625 -12.25 C 4.410156 -13.71875 6.226562 -14.453125 8.34375 -14.453125 C 10.570312 -14.453125 12.382812 -13.804688 13.78125 -12.515625 C 15.175781 -11.234375 15.875 -9.394531 15.875 -7 C 15.875 -6.675781 15.863281 -6.457031 15.84375 -6.34375 Z M 5.796875 -9.03125 L 11.140625 -9.03125 C 11.023438 -9.757812 10.734375 -10.316406 10.265625 -10.703125 C 9.804688 -11.097656 9.210938 -11.296875 8.484375 -11.296875 C 7.679688 -11.296875 7.039062 -11.085938 6.5625 -10.671875 C 6.09375 -10.253906 5.835938 -9.707031 5.796875 -9.03125 Z M 5.796875 -9.03125 "/></g></g></g><g fill="#000000" fill-opacity="1"><g transform="translate(99.342623, 48.954798)"><g><path d="M 17.890625 0 L 12.03125 0 L 8.953125 -3.96875 L 5.859375 0 L 0 0 L 5.984375 -7.328125 L 0.84375 -14.03125 L 6.515625 -14.03125 L 8.953125 -10.78125 L 11.375 -14.03125 L 17.046875 -14.03125 L 11.90625 -7.328125 Z M 17.890625 0 "/></g></g></g><g fill="#000000" fill-opacity="1"><g transform="translate(116.005814, 48.954798)"><g/></g></g><g fill="#000000" fill-opacity="1"><g transform="translate(122.244151, 48.954798)"><g><path d="M 0.796875 -5.9375 C 0.796875 -6.613281 0.945312 -7.257812 1.25 -7.875 C 1.5625 -8.5 2 -9.066406 2.5625 -9.578125 C 3.132812 -10.085938 3.710938 -10.53125 4.296875 -10.90625 C 4.878906 -11.289062 5.546875 -11.6875 6.296875 -12.09375 C 4.773438 -13.988281 4.015625 -15.65625 4.015625 -17.09375 C 4.015625 -18.882812 4.640625 -20.3125 5.890625 -21.375 C 7.140625 -22.445312 8.914062 -22.984375 11.21875 -22.984375 C 13.332031 -22.984375 14.976562 -22.390625 16.15625 -21.203125 C 17.332031 -20.015625 17.921875 -18.644531 17.921875 -17.09375 C 17.921875 -16.457031 17.765625 -15.832031 17.453125 -15.21875 C 17.140625 -14.613281 16.769531 -14.09375 16.34375 -13.65625 C 15.914062 -13.226562 15.484375 -12.847656 15.046875 -12.515625 C 14.609375 -12.191406 14.234375 -11.953125 13.921875 -11.796875 L 13.453125 -11.546875 L 16.46875 -8.421875 C 17.125 -8.710938 18.226562 -9.660156 19.78125 -11.265625 L 22.953125 -8.15625 C 21.929688 -6.988281 20.863281 -5.957031 19.75 -5.0625 L 24.625 0 L 18.140625 0 L 15.890625 -2.328125 C 15.203125 -1.835938 14.691406 -1.484375 14.359375 -1.265625 C 14.035156 -1.054688 13.546875 -0.785156 12.890625 -0.453125 C 12.242188 -0.128906 11.578125 0.09375 10.890625 0.21875 C 10.210938 0.34375 9.460938 0.40625 8.640625 0.40625 C 7.929688 0.40625 7.226562 0.347656 6.53125 0.234375 C 5.84375 0.117188 5.144531 -0.0859375 4.4375 -0.390625 C 3.738281 -0.691406 3.125 -1.070312 2.59375 -1.53125 C 2.070312 -1.988281 1.640625 -2.59375 1.296875 -3.34375 C 0.960938 -4.101562 0.796875 -4.96875 0.796875 -5.9375 Z M 11.21875 -19.34375 C 10.5625 -19.34375 10.066406 -19.128906 9.734375 -18.703125 C 9.410156 -18.285156 9.25 -17.75 9.25 -17.09375 C 9.25 -16.71875 9.382812 -16.296875 9.65625 -15.828125 C 9.925781 -15.359375 10.203125 -14.988281 10.484375 -14.71875 L 10.890625 -14.34375 C 12.566406 -15.25 13.40625 -16.164062 13.40625 -17.09375 C 13.40625 -18.59375 12.675781 -19.34375 11.21875 -19.34375 Z M 12.5625 -5.75 L 8.96875 -9.28125 C 8.914062 -9.257812 8.832031 -9.222656 8.71875 -9.171875 C 8.613281 -9.128906 8.425781 -9.019531 8.15625 -8.84375 C 7.882812 -8.675781 7.644531 -8.488281 7.4375 -8.28125 C 7.238281 -8.070312 7.050781 -7.789062 6.875 -7.4375 C 6.707031 -7.09375 6.625 -6.726562 6.625 -6.34375 C 6.625 -5.738281 6.878906 -5.269531 7.390625 -4.9375 C 7.898438 -4.613281 8.492188 -4.453125 9.171875 -4.453125 C 9.710938 -4.453125 10.265625 -4.554688 10.828125 -4.765625 C 11.398438 -4.984375 11.832031 -5.203125 12.125 -5.421875 Z M 12.5625 -5.75 "/></g></g></g><g fill="#000000" fill-opacity="1"><g transform="translate(143.813524, 48.954798)"><g/></g></g><g fill="#000000" fill-opacity="1"><g transform="translate(10.154423, 87.07112)"><g><path d="M 13.109375 -22.578125 L 22.21875 0 L 16.6875 0 L 15.015625 -4.515625 L 6.421875 -4.515625 L 4.765625 0 L -0.765625 0 L 8.34375 -22.578125 Z M 13.265625 -9.03125 L 10.75 -15.59375 L 10.703125 -15.59375 L 8.1875 -9.03125 Z M 13.265625 -9.03125 "/></g></g></g><g fill="#000000" fill-opacity="1"><g transform="translate(30.374657, 87.07112)"><g><path d="M 7.75 -14.453125 C 8.550781 -14.453125 9.34375 -14.359375 10.125 -14.171875 C 10.90625 -13.992188 11.488281 -13.8125 11.875 -13.625 L 12.453125 -13.34375 L 10.859375 -10.171875 C 9.765625 -10.753906 8.726562 -11.046875 7.75 -11.046875 C 7.195312 -11.046875 6.804688 -10.988281 6.578125 -10.875 C 6.347656 -10.757812 6.234375 -10.535156 6.234375 -10.203125 C 6.234375 -10.128906 6.242188 -10.054688 6.265625 -9.984375 C 6.285156 -9.910156 6.320312 -9.84375 6.375 -9.78125 C 6.425781 -9.71875 6.472656 -9.660156 6.515625 -9.609375 C 6.566406 -9.566406 6.644531 -9.519531 6.75 -9.46875 C 6.863281 -9.414062 6.953125 -9.375 7.015625 -9.34375 C 7.078125 -9.3125 7.179688 -9.269531 7.328125 -9.21875 C 7.472656 -9.164062 7.582031 -9.125 7.65625 -9.09375 C 7.726562 -9.070312 7.851562 -9.03125 8.03125 -8.96875 C 8.207031 -8.914062 8.335938 -8.878906 8.421875 -8.859375 C 8.992188 -8.703125 9.488281 -8.519531 9.90625 -8.3125 C 10.320312 -8.113281 10.757812 -7.84375 11.21875 -7.5 C 11.6875 -7.15625 12.046875 -6.71875 12.296875 -6.1875 C 12.554688 -5.65625 12.6875 -5.050781 12.6875 -4.375 C 12.6875 -1.1875 10.472656 0.40625 6.046875 0.40625 C 5.046875 0.40625 4.09375 0.253906 3.1875 -0.046875 C 2.28125 -0.359375 1.628906 -0.671875 1.234375 -0.984375 L 0.625 -1.484375 L 2.59375 -4.78125 C 2.738281 -4.65625 2.929688 -4.503906 3.171875 -4.328125 C 3.410156 -4.160156 3.835938 -3.925781 4.453125 -3.625 C 5.078125 -3.320312 5.617188 -3.171875 6.078125 -3.171875 C 7.078125 -3.171875 7.578125 -3.507812 7.578125 -4.1875 C 7.578125 -4.5 7.445312 -4.738281 7.1875 -4.90625 C 6.9375 -5.082031 6.503906 -5.28125 5.890625 -5.5 C 5.285156 -5.71875 4.804688 -5.914062 4.453125 -6.09375 C 3.578125 -6.550781 2.882812 -7.066406 2.375 -7.640625 C 1.863281 -8.222656 1.609375 -8.988281 1.609375 -9.9375 C 1.609375 -11.351562 2.160156 -12.457031 3.265625 -13.25 C 4.367188 -14.050781 5.863281 -14.453125 7.75 -14.453125 Z M 7.75 -14.453125 "/></g></g></g><g fill="#000000" fill-opacity="1"><g transform="translate(42.605228, 87.07112)"><g><path d="M 7.75 -14.453125 C 8.550781 -14.453125 9.34375 -14.359375 10.125 -14.171875 C 10.90625 -13.992188 11.488281 -13.8125 11.875 -13.625 L 12.453125 -13.34375 L 10.859375 -10.171875 C 9.765625 -10.753906 8.726562 -11.046875 7.75 -11.046875 C 7.195312 -11.046875 6.804688 -10.988281 6.578125 -10.875 C 6.347656 -10.757812 6.234375 -10.535156 6.234375 -10.203125 C 6.234375 -10.128906 6.242188 -10.054688 6.265625 -9.984375 C 6.285156 -9.910156 6.320312 -9.84375 6.375 -9.78125 C 6.425781 -9.71875 6.472656 -9.660156 6.515625 -9.609375 C 6.566406 -9.566406 6.644531 -9.519531 6.75 -9.46875 C 6.863281 -9.414062 6.953125 -9.375 7.015625 -9.34375 C 7.078125 -9.3125 7.179688 -9.269531 7.328125 -9.21875 C 7.472656 -9.164062 7.582031 -9.125 7.65625 -9.09375 C 7.726562 -9.070312 7.851562 -9.03125 8.03125 -8.96875 C 8.207031 -8.914062 8.335938 -8.878906 8.421875 -8.859375 C 8.992188 -8.703125 9.488281 -8.519531 9.90625 -8.3125 C 10.320312 -8.113281 10.757812 -7.84375 11.21875 -7.5 C 11.6875 -7.15625 12.046875 -6.71875 12.296875 -6.1875 C 12.554688 -5.65625 12.6875 -5.050781 12.6875 -4.375 C 12.6875 -1.1875 10.472656 0.40625 6.046875 0.40625 C 5.046875 0.40625 4.09375 0.253906 3.1875 -0.046875 C 2.28125 -0.359375 1.628906 -0.671875 1.234375 -0.984375 L 0.625 -1.484375 L 2.59375 -4.78125 C 2.738281 -4.65625 2.929688 -4.503906 3.171875 -4.328125 C 3.410156 -4.160156 3.835938 -3.925781 4.453125 -3.625 C 5.078125 -3.320312 5.617188 -3.171875 6.078125 -3.171875 C 7.078125 -3.171875 7.578125 -3.507812 7.578125 -4.1875 C 7.578125 -4.5 7.445312 -4.738281 7.1875 -4.90625 C 6.9375 -5.082031 6.503906 -5.28125 5.890625 -5.5 C 5.285156 -5.71875 4.804688 -5.914062 4.453125 -6.09375 C 3.578125 -6.550781 2.882812 -7.066406 2.375 -7.640625 C 1.863281 -8.222656 1.609375 -8.988281 1.609375 -9.9375 C 1.609375 -11.351562 2.160156 -12.457031 3.265625 -13.25 C 4.367188 -14.050781 5.863281 -14.453125 7.75 -14.453125 Z M 7.75 -14.453125 "/></g></g></g><g fill="#000000" fill-opacity="1"><g transform="translate(54.835801, 87.07112)"><g><path d="M 2.96875 -1.671875 C 1.40625 -3.054688 0.625 -4.832031 0.625 -7 C 0.625 -9.175781 1.4375 -10.960938 3.0625 -12.359375 C 4.6875 -13.753906 6.691406 -14.453125 9.078125 -14.453125 C 11.429688 -14.453125 13.414062 -13.75 15.03125 -12.34375 C 16.644531 -10.9375 17.453125 -9.15625 17.453125 -7 C 17.453125 -4.851562 16.660156 -3.082031 15.078125 -1.6875 C 13.503906 -0.289062 11.503906 0.40625 9.078125 0.40625 C 6.566406 0.40625 4.53125 -0.285156 2.96875 -1.671875 Z M 6.703125 -9.375 C 6.078125 -8.757812 5.765625 -7.96875 5.765625 -7 C 5.765625 -6.03125 6.066406 -5.238281 6.671875 -4.625 C 7.273438 -4.019531 8.070312 -3.71875 9.0625 -3.71875 C 10.007812 -3.71875 10.785156 -4.023438 11.390625 -4.640625 C 12.003906 -5.265625 12.3125 -6.050781 12.3125 -7 C 12.3125 -7.96875 11.992188 -8.757812 11.359375 -9.375 C 10.734375 -10 9.96875 -10.3125 9.0625 -10.3125 C 8.125 -10.3125 7.335938 -10 6.703125 -9.375 Z M 6.703125 -9.375 "/></g></g></g><g fill="#000000" fill-opacity="1"><g transform="translate(71.69052, 87.07112)"><g><path d="M 9.109375 -10.484375 C 8.203125 -10.484375 7.414062 -10.144531 6.75 -9.46875 C 6.09375 -8.789062 5.765625 -7.976562 5.765625 -7.03125 C 5.765625 -6.0625 6.09375 -5.238281 6.75 -4.5625 C 7.414062 -3.894531 8.203125 -3.5625 9.109375 -3.5625 C 9.546875 -3.5625 9.957031 -3.613281 10.34375 -3.71875 C 10.738281 -3.832031 11.03125 -3.941406 11.21875 -4.046875 L 11.46875 -4.21875 L 13.109375 -0.84375 C 12.972656 -0.757812 12.789062 -0.644531 12.5625 -0.5 C 12.34375 -0.363281 11.828125 -0.179688 11.015625 0.046875 C 10.203125 0.285156 9.332031 0.40625 8.40625 0.40625 C 6.34375 0.40625 4.53125 -0.316406 2.96875 -1.765625 C 1.40625 -3.210938 0.625 -4.953125 0.625 -6.984375 C 0.625 -9.023438 1.40625 -10.78125 2.96875 -12.25 C 4.53125 -13.71875 6.34375 -14.453125 8.40625 -14.453125 C 9.332031 -14.453125 10.1875 -14.34375 10.96875 -14.125 C 11.75 -13.90625 12.304688 -13.679688 12.640625 -13.453125 L 13.109375 -13.125 L 11.46875 -9.828125 C 10.863281 -10.265625 10.078125 -10.484375 9.109375 -10.484375 Z M 9.109375 -10.484375 "/></g></g></g><g fill="#000000" fill-opacity="1"><g transform="translate(83.893732, 87.07112)"><g><path d="M 2.109375 -21.859375 C 2.671875 -22.421875 3.34375 -22.703125 4.125 -22.703125 C 4.914062 -22.703125 5.59375 -22.421875 6.15625 -21.859375 C 6.71875 -21.296875 7 -20.617188 7 -19.828125 C 7 -19.046875 6.71875 -18.375 6.15625 -17.8125 C 5.59375 -17.25 4.914062 -16.96875 4.125 -16.96875 C 3.34375 -16.96875 2.671875 -17.25 2.109375 -17.8125 C 1.546875 -18.375 1.265625 -19.046875 1.265625 -19.828125 C 1.265625 -20.617188 1.546875 -21.296875 2.109375 -21.859375 Z M 1.640625 -14.03125 L 1.640625 0 L 6.484375 0 L 6.484375 -14.03125 Z M 1.640625 -14.03125 "/></g></g></g><g fill="#000000" fill-opacity="1"><g transform="translate(90.925557, 87.07112)"><g><path d="M 2.59375 -1.734375 C 1.28125 -3.171875 0.625 -4.925781 0.625 -7 C 0.625 -9.082031 1.28125 -10.84375 2.59375 -12.28125 C 3.90625 -13.726562 5.578125 -14.453125 7.609375 -14.453125 C 9.460938 -14.453125 10.992188 -13.863281 12.203125 -12.6875 L 12.203125 -14.03125 L 17.046875 -14.03125 L 17.046875 0 L 12.25 0 L 12.25 -1.59375 L 12.203125 -1.59375 C 10.992188 -0.257812 9.460938 0.40625 7.609375 0.40625 C 5.578125 0.40625 3.90625 -0.304688 2.59375 -1.734375 Z M 6.703125 -9.375 C 6.078125 -8.757812 5.765625 -7.96875 5.765625 -7 C 5.765625 -6.03125 6.066406 -5.238281 6.671875 -4.625 C 7.273438 -4.019531 8.070312 -3.71875 9.0625 -3.71875 C 10.007812 -3.71875 10.785156 -4.023438 11.390625 -4.640625 C 12.003906 -5.265625 12.3125 -6.050781 12.3125 -7 C 12.3125 -7.96875 11.992188 -8.757812 11.359375 -9.375 C 10.734375 -10 9.96875 -10.3125 9.0625 -10.3125 C 8.125 -10.3125 7.335938 -10 6.703125 -9.375 Z M 6.703125 -9.375 "/></g></g></g><g fill="#000000" fill-opacity="1"><g transform="translate(108.382241, 87.07112)"><g><path d="M 2.46875 -14.03125 L 2.46875 -19.265625 L 7.3125 -19.265625 L 7.3125 -14.03125 L 10.265625 -14.03125 L 10.265625 -10.34375 L 7.3125 -10.34375 L 7.3125 -5.875 C 7.3125 -4.582031 7.675781 -3.9375 8.40625 -3.9375 C 8.582031 -3.9375 8.769531 -3.972656 8.96875 -4.046875 C 9.175781 -4.117188 9.332031 -4.191406 9.4375 -4.265625 L 9.609375 -4.375 L 10.8125 -0.46875 C 9.769531 0.113281 8.582031 0.40625 7.25 0.40625 C 6.332031 0.40625 5.546875 0.25 4.890625 -0.0625 C 4.234375 -0.382812 3.738281 -0.8125 3.40625 -1.34375 C 3.070312 -1.882812 2.832031 -2.453125 2.6875 -3.046875 C 2.539062 -3.640625 2.46875 -4.273438 2.46875 -4.953125 L 2.46875 -10.34375 L 0.4375 -10.34375 L 0.4375 -14.03125 Z M 2.46875 -14.03125 "/></g></g></g><g fill="#000000" fill-opacity="1"><g transform="translate(117.958723, 87.07112)"><g><path d="M 15.84375 -6.34375 L 5.65625 -6.34375 C 5.65625 -5.363281 5.972656 -4.632812 6.609375 -4.15625 C 7.253906 -3.6875 7.953125 -3.453125 8.703125 -3.453125 C 9.484375 -3.453125 10.101562 -3.554688 10.5625 -3.765625 C 11.019531 -3.972656 11.539062 -4.382812 12.125 -5 L 15.625 -3.25 C 14.164062 -0.8125 11.738281 0.40625 8.34375 0.40625 C 6.226562 0.40625 4.410156 -0.316406 2.890625 -1.765625 C 1.378906 -3.210938 0.625 -4.957031 0.625 -7 C 0.625 -9.039062 1.378906 -10.789062 2.890625 -12.25 C 4.410156 -13.71875 6.226562 -14.453125 8.34375 -14.453125 C 10.570312 -14.453125 12.382812 -13.804688 13.78125 -12.515625 C 15.175781 -11.234375 15.875 -9.394531 15.875 -7 C 15.875 -6.675781 15.863281 -6.457031 15.84375 -6.34375 Z M 5.796875 -9.03125 L 11.140625 -9.03125 C 11.023438 -9.757812 10.734375 -10.316406 10.265625 -10.703125 C 9.804688 -11.097656 9.210938 -11.296875 8.484375 -11.296875 C 7.679688 -11.296875 7.039062 -11.085938 6.5625 -10.671875 C 6.09375 -10.253906 5.835938 -9.707031 5.796875 -9.03125 Z M 5.796875 -9.03125 "/></g></g></g><g fill="#000000" fill-opacity="1"><g transform="translate(133.22646, 87.07112)"><g><path d="M 7.75 -14.453125 C 8.550781 -14.453125 9.34375 -14.359375 10.125 -14.171875 C 10.90625 -13.992188 11.488281 -13.8125 11.875 -13.625 L 12.453125 -13.34375 L 10.859375 -10.171875 C 9.765625 -10.753906 8.726562 -11.046875 7.75 -11.046875 C 7.195312 -11.046875 6.804688 -10.988281 6.578125 -10.875 C 6.347656 -10.757812 6.234375 -10.535156 6.234375 -10.203125 C 6.234375 -10.128906 6.242188 -10.054688 6.265625 -9.984375 C 6.285156 -9.910156 6.320312 -9.84375 6.375 -9.78125 C 6.425781 -9.71875 6.472656 -9.660156 6.515625 -9.609375 C 6.566406 -9.566406 6.644531 -9.519531 6.75 -9.46875 C 6.863281 -9.414062 6.953125 -9.375 7.015625 -9.34375 C 7.078125 -9.3125 7.179688 -9.269531 7.328125 -9.21875 C 7.472656 -9.164062 7.582031 -9.125 7.65625 -9.09375 C 7.726562 -9.070312 7.851562 -9.03125 8.03125 -8.96875 C 8.207031 -8.914062 8.335938 -8.878906 8.421875 -8.859375 C 8.992188 -8.703125 9.488281 -8.519531 9.90625 -8.3125 C 10.320312 -8.113281 10.757812 -7.84375 11.21875 -7.5 C 11.6875 -7.15625 12.046875 -6.71875 12.296875 -6.1875 C 12.554688 -5.65625 12.6875 -5.050781 12.6875 -4.375 C 12.6875 -1.1875 10.472656 0.40625 6.046875 0.40625 C 5.046875 0.40625 4.09375 0.253906 3.1875 -0.046875 C 2.28125 -0.359375 1.628906 -0.671875 1.234375 -0.984375 L 0.625 -1.484375 L 2.59375 -4.78125 C 2.738281 -4.65625 2.929688 -4.503906 3.171875 -4.328125 C 3.410156 -4.160156 3.835938 -3.925781 4.453125 -3.625 C 5.078125 -3.320312 5.617188 -3.171875 6.078125 -3.171875 C 7.078125 -3.171875 7.578125 -3.507812 7.578125 -4.1875 C 7.578125 -4.5 7.445312 -4.738281 7.1875 -4.90625 C 6.9375 -5.082031 6.503906 -5.28125 5.890625 -5.5 C 5.285156 -5.71875 4.804688 -5.914062 4.453125 -6.09375 C 3.578125 -6.550781 2.882812 -7.066406 2.375 -7.640625 C 1.863281 -8.222656 1.609375 -8.988281 1.609375 -9.9375 C 1.609375 -11.351562 2.160156 -12.457031 3.265625 -13.25 C 4.367188 -14.050781 5.863281 -14.453125 7.75 -14.453125 Z M 7.75 -14.453125 "/></g></g></g><g fill="#000000" fill-opacity="1"><g transform="translate(145.457036, 87.07112)"><g><path d="M 4.765625 -5.859375 C 5.640625 -5.859375 6.378906 -5.550781 6.984375 -4.9375 C 7.597656 -4.320312 7.90625 -3.578125 7.90625 -2.703125 C 7.90625 -1.847656 7.597656 -1.113281 6.984375 -0.5 C 6.378906 0.101562 5.640625 0.40625 4.765625 0.40625 C 3.898438 0.40625 3.160156 0.101562 2.546875 -0.5 C 1.941406 -1.113281 1.640625 -1.847656 1.640625 -2.703125 C 1.640625 -3.578125 1.941406 -4.320312 2.546875 -4.9375 C 3.160156 -5.550781 3.898438 -5.859375 4.765625 -5.859375 Z M 4.765625 -5.859375 "/></g></g></g></svg>