<svg xmlns="http://www.w3.org/2000/svg" xmlns:xlink="http://www.w3.org/1999/xlink" width="545" zoomAndPan="magnify" viewBox="0 0 408.75 55.5" height="74" preserveAspectRatio="xMidYMid meet" version="1.0"><defs><g/></defs><g fill="#000000" fill-opacity="1"><g transform="translate(67.392145, 32.787861)"><g><path d="M 0.21875 -17.9375 L 0.21875 -22.421875 L 15.984375 -22.421875 L 15.984375 -17.9375 L 10.65625 -17.9375 L 10.65625 0 L 5.546875 0 L 5.546875 -17.9375 Z M 0.21875 -17.9375 "/></g></g></g><g fill="#000000" fill-opacity="1"><g transform="translate(82.363925, 32.787861)"><g><path d="M 15.734375 -6.296875 L 5.625 -6.296875 C 5.625 -5.328125 5.941406 -4.601562 6.578125 -4.125 C 7.210938 -3.65625 7.898438 -3.421875 8.640625 -3.421875 C 9.421875 -3.421875 10.035156 -3.523438 10.484375 -3.734375 C 10.941406 -3.941406 11.457031 -4.351562 12.03125 -4.96875 L 15.515625 -3.234375 C 14.066406 -0.804688 11.65625 0.40625 8.28125 0.40625 C 6.1875 0.40625 4.382812 -0.3125 2.875 -1.75 C 1.375 -3.1875 0.625 -4.921875 0.625 -6.953125 C 0.625 -8.984375 1.375 -10.722656 2.875 -12.171875 C 4.382812 -13.617188 6.1875 -14.34375 8.28125 -14.34375 C 10.5 -14.34375 12.300781 -13.703125 13.6875 -12.421875 C 15.070312 -11.148438 15.765625 -9.328125 15.765625 -6.953125 C 15.765625 -6.628906 15.753906 -6.410156 15.734375 -6.296875 Z M 5.765625 -8.96875 L 11.0625 -8.96875 C 10.945312 -9.6875 10.660156 -10.238281 10.203125 -10.625 C 9.742188 -11.019531 9.148438 -11.21875 8.421875 -11.21875 C 7.628906 -11.21875 6.992188 -11.007812 6.515625 -10.59375 C 6.046875 -10.175781 5.796875 -9.632812 5.765625 -8.96875 Z M 5.765625 -8.96875 "/></g></g></g><g fill="#000000" fill-opacity="1"><g transform="translate(97.525907, 32.787861)"><g><path d="M 15.734375 -6.296875 L 5.625 -6.296875 C 5.625 -5.328125 5.941406 -4.601562 6.578125 -4.125 C 7.210938 -3.65625 7.898438 -3.421875 8.640625 -3.421875 C 9.421875 -3.421875 10.035156 -3.523438 10.484375 -3.734375 C 10.941406 -3.941406 11.457031 -4.351562 12.03125 -4.96875 L 15.515625 -3.234375 C 14.066406 -0.804688 11.65625 0.40625 8.28125 0.40625 C 6.1875 0.40625 4.382812 -0.3125 2.875 -1.75 C 1.375 -3.1875 0.625 -4.921875 0.625 -6.953125 C 0.625 -8.984375 1.375 -10.722656 2.875 -12.171875 C 4.382812 -13.617188 6.1875 -14.34375 8.28125 -14.34375 C 10.5 -14.34375 12.300781 -13.703125 13.6875 -12.421875 C 15.070312 -11.148438 15.765625 -9.328125 15.765625 -6.953125 C 15.765625 -6.628906 15.753906 -6.410156 15.734375 -6.296875 Z M 5.765625 -8.96875 L 11.0625 -8.96875 C 10.945312 -9.6875 10.660156 -10.238281 10.203125 -10.625 C 9.742188 -11.019531 9.148438 -11.21875 8.421875 -11.21875 C 7.628906 -11.21875 6.992188 -11.007812 6.515625 -10.59375 C 6.046875 -10.175781 5.796875 -9.632812 5.765625 -8.96875 Z M 5.765625 -8.96875 "/></g></g></g><g fill="#000000" fill-opacity="1"><g transform="translate(112.687891, 32.787861)"><g/></g></g><g fill="#000000" fill-opacity="1"><g transform="translate(118.883013, 32.787861)"><g><path d="M 1.625 -22.421875 L 9.640625 -22.421875 C 11.796875 -22.421875 13.550781 -21.84375 14.90625 -20.6875 C 16.269531 -19.539062 16.953125 -17.898438 16.953125 -15.765625 C 16.953125 -14.109375 16.539062 -12.722656 15.71875 -11.609375 C 14.894531 -10.492188 13.773438 -9.710938 12.359375 -9.265625 L 20.078125 0 L 13.578125 0 L 6.734375 -8.859375 L 6.734375 0 L 1.625 0 Z M 6.734375 -12.46875 L 7.34375 -12.46875 C 7.8125 -12.46875 8.207031 -12.476562 8.53125 -12.5 C 8.851562 -12.519531 9.222656 -12.582031 9.640625 -12.6875 C 10.054688 -12.800781 10.390625 -12.957031 10.640625 -13.15625 C 10.898438 -13.351562 11.117188 -13.640625 11.296875 -14.015625 C 11.484375 -14.398438 11.578125 -14.863281 11.578125 -15.40625 C 11.578125 -15.945312 11.484375 -16.40625 11.296875 -16.78125 C 11.117188 -17.164062 10.898438 -17.457031 10.640625 -17.65625 C 10.390625 -17.851562 10.054688 -18.003906 9.640625 -18.109375 C 9.222656 -18.222656 8.851562 -18.289062 8.53125 -18.3125 C 8.207031 -18.332031 7.8125 -18.34375 7.34375 -18.34375 L 6.734375 -18.34375 Z M 6.734375 -12.46875 "/></g></g></g><g fill="#000000" fill-opacity="1"><g transform="translate(137.115467, 32.787861)"><g><path d="M 15.734375 -6.296875 L 5.625 -6.296875 C 5.625 -5.328125 5.941406 -4.601562 6.578125 -4.125 C 7.210938 -3.65625 7.898438 -3.421875 8.640625 -3.421875 C 9.421875 -3.421875 10.035156 -3.523438 10.484375 -3.734375 C 10.941406 -3.941406 11.457031 -4.351562 12.03125 -4.96875 L 15.515625 -3.234375 C 14.066406 -0.804688 11.65625 0.40625 8.28125 0.40625 C 6.1875 0.40625 4.382812 -0.3125 2.875 -1.75 C 1.375 -3.1875 0.625 -4.921875 0.625 -6.953125 C 0.625 -8.984375 1.375 -10.722656 2.875 -12.171875 C 4.382812 -13.617188 6.1875 -14.34375 8.28125 -14.34375 C 10.5 -14.34375 12.300781 -13.703125 13.6875 -12.421875 C 15.070312 -11.148438 15.765625 -9.328125 15.765625 -6.953125 C 15.765625 -6.628906 15.753906 -6.410156 15.734375 -6.296875 Z M 5.765625 -8.96875 L 11.0625 -8.96875 C 10.945312 -9.6875 10.660156 -10.238281 10.203125 -10.625 C 9.742188 -11.019531 9.148438 -11.21875 8.421875 -11.21875 C 7.628906 -11.21875 6.992188 -11.007812 6.515625 -10.59375 C 6.046875 -10.175781 5.796875 -9.632812 5.765625 -8.96875 Z M 5.765625 -8.96875 "/></g></g></g><g fill="#000000" fill-opacity="1"><g transform="translate(152.277448, 32.787861)"><g><path d="M 17.765625 0 L 11.953125 0 L 8.890625 -3.9375 L 5.8125 0 L 0 0 L 5.953125 -7.28125 L 0.84375 -13.9375 L 6.46875 -13.9375 L 8.890625 -10.703125 L 11.296875 -13.9375 L 16.921875 -13.9375 L 11.8125 -7.28125 Z M 17.765625 0 "/></g></g></g><g fill="#000000" fill-opacity="1"><g transform="translate(168.825222, 32.787861)"><g/></g></g><g fill="#000000" fill-opacity="1"><g transform="translate(175.02035, 32.787861)"><g><path d="M 0.78125 -5.890625 C 0.78125 -6.566406 0.9375 -7.210938 1.25 -7.828125 C 1.5625 -8.441406 1.992188 -9 2.546875 -9.5 C 3.109375 -10.007812 3.679688 -10.453125 4.265625 -10.828125 C 4.847656 -11.210938 5.507812 -11.609375 6.25 -12.015625 C 4.75 -13.890625 4 -15.546875 4 -16.984375 C 4 -18.753906 4.617188 -20.171875 5.859375 -21.234375 C 7.097656 -22.296875 8.859375 -22.828125 11.140625 -22.828125 C 13.242188 -22.828125 14.878906 -22.238281 16.046875 -21.0625 C 17.210938 -19.882812 17.796875 -18.523438 17.796875 -16.984375 C 17.796875 -16.347656 17.640625 -15.722656 17.328125 -15.109375 C 17.023438 -14.503906 16.660156 -13.988281 16.234375 -13.5625 C 15.804688 -13.144531 15.375 -12.769531 14.9375 -12.4375 C 14.507812 -12.113281 14.140625 -11.875 13.828125 -11.71875 L 13.375 -11.46875 L 16.359375 -8.375 C 17.003906 -8.65625 18.097656 -9.59375 19.640625 -11.1875 L 22.796875 -8.09375 C 21.785156 -6.9375 20.726562 -5.914062 19.625 -5.03125 L 24.453125 0 L 18.015625 0 L 15.78125 -2.3125 C 15.09375 -1.820312 14.585938 -1.472656 14.265625 -1.265625 C 13.941406 -1.054688 13.457031 -0.785156 12.8125 -0.453125 C 12.164062 -0.128906 11.503906 0.09375 10.828125 0.21875 C 10.148438 0.34375 9.40625 0.40625 8.59375 0.40625 C 7.882812 0.40625 7.1875 0.34375 6.5 0.21875 C 5.8125 0.101562 5.117188 -0.0976562 4.421875 -0.390625 C 3.722656 -0.691406 3.109375 -1.066406 2.578125 -1.515625 C 2.054688 -1.972656 1.625 -2.578125 1.28125 -3.328125 C 0.945312 -4.078125 0.78125 -4.929688 0.78125 -5.890625 Z M 11.140625 -19.203125 C 10.484375 -19.203125 9.992188 -18.992188 9.671875 -18.578125 C 9.347656 -18.160156 9.1875 -17.628906 9.1875 -16.984375 C 9.1875 -16.597656 9.320312 -16.175781 9.59375 -15.71875 C 9.863281 -15.257812 10.132812 -14.894531 10.40625 -14.625 L 10.8125 -14.234375 C 12.476562 -15.140625 13.3125 -16.054688 13.3125 -16.984375 C 13.3125 -18.460938 12.585938 -19.203125 11.140625 -19.203125 Z M 12.46875 -5.703125 L 8.90625 -9.21875 C 8.851562 -9.195312 8.769531 -9.160156 8.65625 -9.109375 C 8.550781 -9.066406 8.363281 -8.957031 8.09375 -8.78125 C 7.820312 -8.613281 7.585938 -8.425781 7.390625 -8.21875 C 7.191406 -8.007812 7.003906 -7.734375 6.828125 -7.390625 C 6.660156 -7.046875 6.578125 -6.679688 6.578125 -6.296875 C 6.578125 -5.703125 6.828125 -5.238281 7.328125 -4.90625 C 7.835938 -4.582031 8.429688 -4.421875 9.109375 -4.421875 C 9.648438 -4.421875 10.203125 -4.523438 10.765625 -4.734375 C 11.328125 -4.941406 11.75 -5.15625 12.03125 -5.375 Z M 12.46875 -5.703125 "/></g></g></g><g fill="#000000" fill-opacity="1"><g transform="translate(196.431968, 32.787861)"><g/></g></g><g fill="#000000" fill-opacity="1"><g transform="translate(202.627096, 32.787861)"><g><path d="M 13.015625 -22.421875 L 22.0625 0 L 16.578125 0 L 14.921875 -4.484375 L 6.390625 -4.484375 L 4.734375 0 L -0.765625 0 L 8.28125 -22.421875 Z M 13.171875 -8.96875 L 10.671875 -15.484375 L 10.625 -15.484375 L 8.125 -8.96875 Z M 13.171875 -8.96875 "/></g></g></g><g fill="#000000" fill-opacity="1"><g transform="translate(222.70728, 32.787861)"><g><path d="M 7.6875 -14.34375 C 8.488281 -14.34375 9.273438 -14.25 10.046875 -14.0625 C 10.828125 -13.882812 11.410156 -13.707031 11.796875 -13.53125 L 12.359375 -13.265625 L 10.78125 -10.109375 C 9.695312 -10.691406 8.664062 -10.984375 7.6875 -10.984375 C 7.144531 -10.984375 6.757812 -10.921875 6.53125 -10.796875 C 6.300781 -10.679688 6.1875 -10.460938 6.1875 -10.140625 C 6.1875 -10.066406 6.195312 -9.992188 6.21875 -9.921875 C 6.238281 -9.847656 6.273438 -9.78125 6.328125 -9.71875 C 6.378906 -9.65625 6.425781 -9.597656 6.46875 -9.546875 C 6.519531 -9.503906 6.597656 -9.453125 6.703125 -9.390625 C 6.816406 -9.335938 6.90625 -9.296875 6.96875 -9.265625 C 7.03125 -9.242188 7.132812 -9.207031 7.28125 -9.15625 C 7.425781 -9.101562 7.535156 -9.0625 7.609375 -9.03125 C 7.679688 -9.007812 7.800781 -8.96875 7.96875 -8.90625 C 8.144531 -8.851562 8.28125 -8.816406 8.375 -8.796875 C 8.9375 -8.640625 9.425781 -8.460938 9.84375 -8.265625 C 10.257812 -8.066406 10.695312 -7.789062 11.15625 -7.4375 C 11.613281 -7.09375 11.96875 -6.660156 12.21875 -6.140625 C 12.476562 -5.617188 12.609375 -5.019531 12.609375 -4.34375 C 12.609375 -1.175781 10.40625 0.40625 6 0.40625 C 5.007812 0.40625 4.066406 0.253906 3.171875 -0.046875 C 2.273438 -0.359375 1.625 -0.671875 1.21875 -0.984375 L 0.625 -1.46875 L 2.578125 -4.75 C 2.722656 -4.625 2.910156 -4.472656 3.140625 -4.296875 C 3.378906 -4.128906 3.804688 -3.894531 4.421875 -3.59375 C 5.046875 -3.300781 5.582031 -3.15625 6.03125 -3.15625 C 7.03125 -3.15625 7.53125 -3.488281 7.53125 -4.15625 C 7.53125 -4.46875 7.398438 -4.707031 7.140625 -4.875 C 6.890625 -5.050781 6.457031 -5.242188 5.84375 -5.453125 C 5.238281 -5.671875 4.765625 -5.875 4.421875 -6.0625 C 3.554688 -6.507812 2.867188 -7.019531 2.359375 -7.59375 C 1.859375 -8.164062 1.609375 -8.921875 1.609375 -9.859375 C 1.609375 -11.273438 2.15625 -12.375 3.25 -13.15625 C 4.34375 -13.945312 5.820312 -14.34375 7.6875 -14.34375 Z M 7.6875 -14.34375 "/></g></g></g><g fill="#000000" fill-opacity="1"><g transform="translate(234.853141, 32.787861)"><g><path d="M 7.6875 -14.34375 C 8.488281 -14.34375 9.273438 -14.25 10.046875 -14.0625 C 10.828125 -13.882812 11.410156 -13.707031 11.796875 -13.53125 L 12.359375 -13.265625 L 10.78125 -10.109375 C 9.695312 -10.691406 8.664062 -10.984375 7.6875 -10.984375 C 7.144531 -10.984375 6.757812 -10.921875 6.53125 -10.796875 C 6.300781 -10.679688 6.1875 -10.460938 6.1875 -10.140625 C 6.1875 -10.066406 6.195312 -9.992188 6.21875 -9.921875 C 6.238281 -9.847656 6.273438 -9.78125 6.328125 -9.71875 C 6.378906 -9.65625 6.425781 -9.597656 6.46875 -9.546875 C 6.519531 -9.503906 6.597656 -9.453125 6.703125 -9.390625 C 6.816406 -9.335938 6.90625 -9.296875 6.96875 -9.265625 C 7.03125 -9.242188 7.132812 -9.207031 7.28125 -9.15625 C 7.425781 -9.101562 7.535156 -9.0625 7.609375 -9.03125 C 7.679688 -9.007812 7.800781 -8.96875 7.96875 -8.90625 C 8.144531 -8.851562 8.28125 -8.816406 8.375 -8.796875 C 8.9375 -8.640625 9.425781 -8.460938 9.84375 -8.265625 C 10.257812 -8.066406 10.695312 -7.789062 11.15625 -7.4375 C 11.613281 -7.09375 11.96875 -6.660156 12.21875 -6.140625 C 12.476562 -5.617188 12.609375 -5.019531 12.609375 -4.34375 C 12.609375 -1.175781 10.40625 0.40625 6 0.40625 C 5.007812 0.40625 4.066406 0.253906 3.171875 -0.046875 C 2.273438 -0.359375 1.625 -0.671875 1.21875 -0.984375 L 0.625 -1.46875 L 2.578125 -4.75 C 2.722656 -4.625 2.910156 -4.472656 3.140625 -4.296875 C 3.378906 -4.128906 3.804688 -3.894531 4.421875 -3.59375 C 5.046875 -3.300781 5.582031 -3.15625 6.03125 -3.15625 C 7.03125 -3.15625 7.53125 -3.488281 7.53125 -4.15625 C 7.53125 -4.46875 7.398438 -4.707031 7.140625 -4.875 C 6.890625 -5.050781 6.457031 -5.242188 5.84375 -5.453125 C 5.238281 -5.671875 4.765625 -5.875 4.421875 -6.0625 C 3.554688 -6.507812 2.867188 -7.019531 2.359375 -7.59375 C 1.859375 -8.164062 1.609375 -8.921875 1.609375 -9.859375 C 1.609375 -11.273438 2.15625 -12.375 3.25 -13.15625 C 4.34375 -13.945312 5.820312 -14.34375 7.6875 -14.34375 Z M 7.6875 -14.34375 "/></g></g></g><g fill="#000000" fill-opacity="1"><g transform="translate(246.999002, 32.787861)"><g><path d="M 2.9375 -1.65625 C 1.394531 -3.03125 0.625 -4.796875 0.625 -6.953125 C 0.625 -9.109375 1.429688 -10.878906 3.046875 -12.265625 C 4.660156 -13.648438 6.648438 -14.34375 9.015625 -14.34375 C 11.359375 -14.34375 13.328125 -13.644531 14.921875 -12.25 C 16.523438 -10.851562 17.328125 -9.085938 17.328125 -6.953125 C 17.328125 -4.816406 16.546875 -3.054688 14.984375 -1.671875 C 13.421875 -0.285156 11.429688 0.40625 9.015625 0.40625 C 6.515625 0.40625 4.488281 -0.28125 2.9375 -1.65625 Z M 6.671875 -9.3125 C 6.046875 -8.695312 5.734375 -7.910156 5.734375 -6.953125 C 5.734375 -5.992188 6.03125 -5.210938 6.625 -4.609375 C 7.226562 -4.003906 8.019531 -3.703125 9 -3.703125 C 9.9375 -3.703125 10.707031 -4.007812 11.3125 -4.625 C 11.925781 -5.238281 12.234375 -6.015625 12.234375 -6.953125 C 12.234375 -7.910156 11.921875 -8.695312 11.296875 -9.3125 C 10.671875 -9.9375 9.90625 -10.25 9 -10.25 C 8.070312 -10.25 7.296875 -9.9375 6.671875 -9.3125 Z M 6.671875 -9.3125 "/></g></g></g><g fill="#000000" fill-opacity="1"><g transform="translate(263.736973, 32.787861)"><g><path d="M 9.046875 -10.40625 C 8.140625 -10.40625 7.359375 -10.066406 6.703125 -9.390625 C 6.054688 -8.722656 5.734375 -7.921875 5.734375 -6.984375 C 5.734375 -6.023438 6.054688 -5.207031 6.703125 -4.53125 C 7.359375 -3.863281 8.140625 -3.53125 9.046875 -3.53125 C 9.484375 -3.53125 9.894531 -3.582031 10.28125 -3.6875 C 10.675781 -3.800781 10.960938 -3.910156 11.140625 -4.015625 L 11.390625 -4.1875 L 13.015625 -0.84375 C 12.890625 -0.75 12.710938 -0.632812 12.484375 -0.5 C 12.253906 -0.363281 11.738281 -0.179688 10.9375 0.046875 C 10.132812 0.285156 9.269531 0.40625 8.34375 0.40625 C 6.289062 0.40625 4.488281 -0.3125 2.9375 -1.75 C 1.394531 -3.1875 0.625 -4.910156 0.625 -6.921875 C 0.625 -8.953125 1.394531 -10.695312 2.9375 -12.15625 C 4.488281 -13.613281 6.289062 -14.34375 8.34375 -14.34375 C 9.269531 -14.34375 10.117188 -14.234375 10.890625 -14.015625 C 11.671875 -13.796875 12.222656 -13.582031 12.546875 -13.375 L 13.015625 -13.046875 L 11.390625 -9.75 C 10.785156 -10.1875 10.003906 -10.40625 9.046875 -10.40625 Z M 9.046875 -10.40625 "/></g></g></g><g fill="#000000" fill-opacity="1"><g transform="translate(275.855654, 32.787861)"><g><path d="M 2.09375 -21.703125 C 2.65625 -22.265625 3.320312 -22.546875 4.09375 -22.546875 C 4.875 -22.546875 5.546875 -22.265625 6.109375 -21.703125 C 6.671875 -21.148438 6.953125 -20.484375 6.953125 -19.703125 C 6.953125 -18.921875 6.671875 -18.25 6.109375 -17.6875 C 5.546875 -17.125 4.875 -16.84375 4.09375 -16.84375 C 3.320312 -16.84375 2.65625 -17.125 2.09375 -17.6875 C 1.53125 -18.25 1.25 -18.921875 1.25 -19.703125 C 1.25 -20.484375 1.53125 -21.148438 2.09375 -21.703125 Z M 1.625 -13.9375 L 1.625 0 L 6.4375 0 L 6.4375 -13.9375 Z M 1.625 -13.9375 "/></g></g></g><g fill="#000000" fill-opacity="1"><g transform="translate(282.838779, 32.787861)"><g><path d="M 2.578125 -1.71875 C 1.273438 -3.144531 0.625 -4.890625 0.625 -6.953125 C 0.625 -9.015625 1.273438 -10.757812 2.578125 -12.1875 C 3.878906 -13.625 5.535156 -14.34375 7.546875 -14.34375 C 9.398438 -14.34375 10.925781 -13.765625 12.125 -12.609375 L 12.125 -13.9375 L 16.921875 -13.9375 L 16.921875 0 L 12.171875 0 L 12.171875 -1.578125 L 12.125 -1.578125 C 10.925781 -0.253906 9.398438 0.40625 7.546875 0.40625 C 5.535156 0.40625 3.878906 -0.300781 2.578125 -1.71875 Z M 6.671875 -9.3125 C 6.046875 -8.695312 5.734375 -7.910156 5.734375 -6.953125 C 5.734375 -5.992188 6.03125 -5.210938 6.625 -4.609375 C 7.226562 -4.003906 8.019531 -3.703125 9 -3.703125 C 9.9375 -3.703125 10.707031 -4.007812 11.3125 -4.625 C 11.925781 -5.238281 12.234375 -6.015625 12.234375 -6.953125 C 12.234375 -7.910156 11.921875 -8.695312 11.296875 -9.3125 C 10.671875 -9.9375 9.90625 -10.25 9 -10.25 C 8.070312 -10.25 7.296875 -9.9375 6.671875 -9.3125 Z M 6.671875 -9.3125 "/></g></g></g><g fill="#000000" fill-opacity="1"><g transform="translate(300.174546, 32.787861)"><g><path d="M 2.453125 -13.9375 L 2.453125 -19.125 L 7.25 -19.125 L 7.25 -13.9375 L 10.1875 -13.9375 L 10.1875 -10.265625 L 7.25 -10.265625 L 7.25 -5.84375 C 7.25 -4.550781 7.613281 -3.90625 8.34375 -3.90625 C 8.519531 -3.90625 8.707031 -3.941406 8.90625 -4.015625 C 9.113281 -4.085938 9.269531 -4.160156 9.375 -4.234375 L 9.53125 -4.34375 L 10.734375 -0.46875 C 9.703125 0.113281 8.523438 0.40625 7.203125 0.40625 C 6.296875 0.40625 5.515625 0.25 4.859375 -0.0625 C 4.210938 -0.382812 3.71875 -0.8125 3.375 -1.34375 C 3.039062 -1.875 2.800781 -2.429688 2.65625 -3.015625 C 2.519531 -3.609375 2.453125 -4.242188 2.453125 -4.921875 L 2.453125 -10.265625 L 0.4375 -10.265625 L 0.4375 -13.9375 Z M 2.453125 -13.9375 "/></g></g></g><g fill="#000000" fill-opacity="1"><g transform="translate(309.684696, 32.787861)"><g><path d="M 15.734375 -6.296875 L 5.625 -6.296875 C 5.625 -5.328125 5.941406 -4.601562 6.578125 -4.125 C 7.210938 -3.65625 7.898438 -3.421875 8.640625 -3.421875 C 9.421875 -3.421875 10.035156 -3.523438 10.484375 -3.734375 C 10.941406 -3.941406 11.457031 -4.351562 12.03125 -4.96875 L 15.515625 -3.234375 C 14.066406 -0.804688 11.65625 0.40625 8.28125 0.40625 C 6.1875 0.40625 4.382812 -0.3125 2.875 -1.75 C 1.375 -3.1875 0.625 -4.921875 0.625 -6.953125 C 0.625 -8.984375 1.375 -10.722656 2.875 -12.171875 C 4.382812 -13.617188 6.1875 -14.34375 8.28125 -14.34375 C 10.5 -14.34375 12.300781 -13.703125 13.6875 -12.421875 C 15.070312 -11.148438 15.765625 -9.328125 15.765625 -6.953125 C 15.765625 -6.628906 15.753906 -6.410156 15.734375 -6.296875 Z M 5.765625 -8.96875 L 11.0625 -8.96875 C 10.945312 -9.6875 10.660156 -10.238281 10.203125 -10.625 C 9.742188 -11.019531 9.148438 -11.21875 8.421875 -11.21875 C 7.628906 -11.21875 6.992188 -11.007812 6.515625 -10.59375 C 6.046875 -10.175781 5.796875 -9.632812 5.765625 -8.96875 Z M 5.765625 -8.96875 "/></g></g></g><g fill="#000000" fill-opacity="1"><g transform="translate(324.846671, 32.787861)"><g><path d="M 7.6875 -14.34375 C 8.488281 -14.34375 9.273438 -14.25 10.046875 -14.0625 C 10.828125 -13.882812 11.410156 -13.707031 11.796875 -13.53125 L 12.359375 -13.265625 L 10.78125 -10.109375 C 9.695312 -10.691406 8.664062 -10.984375 7.6875 -10.984375 C 7.144531 -10.984375 6.757812 -10.921875 6.53125 -10.796875 C 6.300781 -10.679688 6.1875 -10.460938 6.1875 -10.140625 C 6.1875 -10.066406 6.195312 -9.992188 6.21875 -9.921875 C 6.238281 -9.847656 6.273438 -9.78125 6.328125 -9.71875 C 6.378906 -9.65625 6.425781 -9.597656 6.46875 -9.546875 C 6.519531 -9.503906 6.597656 -9.453125 6.703125 -9.390625 C 6.816406 -9.335938 6.90625 -9.296875 6.96875 -9.265625 C 7.03125 -9.242188 7.132812 -9.207031 7.28125 -9.15625 C 7.425781 -9.101562 7.535156 -9.0625 7.609375 -9.03125 C 7.679688 -9.007812 7.800781 -8.96875 7.96875 -8.90625 C 8.144531 -8.851562 8.28125 -8.816406 8.375 -8.796875 C 8.9375 -8.640625 9.425781 -8.460938 9.84375 -8.265625 C 10.257812 -8.066406 10.695312 -7.789062 11.15625 -7.4375 C 11.613281 -7.09375 11.96875 -6.660156 12.21875 -6.140625 C 12.476562 -5.617188 12.609375 -5.019531 12.609375 -4.34375 C 12.609375 -1.175781 10.40625 0.40625 6 0.40625 C 5.007812 0.40625 4.066406 0.253906 3.171875 -0.046875 C 2.273438 -0.359375 1.625 -0.671875 1.21875 -0.984375 L 0.625 -1.46875 L 2.578125 -4.75 C 2.722656 -4.625 2.910156 -4.472656 3.140625 -4.296875 C 3.378906 -4.128906 3.804688 -3.894531 4.421875 -3.59375 C 5.046875 -3.300781 5.582031 -3.15625 6.03125 -3.15625 C 7.03125 -3.15625 7.53125 -3.488281 7.53125 -4.15625 C 7.53125 -4.46875 7.398438 -4.707031 7.140625 -4.875 C 6.890625 -5.050781 6.457031 -5.242188 5.84375 -5.453125 C 5.238281 -5.671875 4.765625 -5.875 4.421875 -6.0625 C 3.554688 -6.507812 2.867188 -7.019531 2.359375 -7.59375 C 1.859375 -8.164062 1.609375 -8.921875 1.609375 -9.859375 C 1.609375 -11.273438 2.15625 -12.375 3.25 -13.15625 C 4.34375 -13.945312 5.820312 -14.34375 7.6875 -14.34375 Z M 7.6875 -14.34375 "/></g></g></g><g fill="#000000" fill-opacity="1"><g transform="translate(336.992521, 32.787861)"><g><path d="M 4.734375 -5.8125 C 5.597656 -5.8125 6.332031 -5.507812 6.9375 -4.90625 C 7.550781 -4.300781 7.859375 -3.5625 7.859375 -2.6875 C 7.859375 -1.832031 7.550781 -1.101562 6.9375 -0.5 C 6.332031 0.101562 5.597656 0.40625 4.734375 0.40625 C 3.878906 0.40625 3.144531 0.101562 2.53125 -0.5 C 1.925781 -1.101562 1.625 -1.832031 1.625 -2.6875 C 1.625 -3.5625 1.925781 -4.300781 2.53125 -4.90625 C 3.144531 -5.507812 3.878906 -5.8125 4.734375 -5.8125 Z M 4.734375 -5.8125 "/></g></g></g><g fill="#000000" fill-opacity="1"><g transform="translate(55.103205, 50.324092)"><g><path d="M 3.828125 -3.03125 C 4.117188 -2.925781 4.359375 -2.757812 4.546875 -2.53125 C 4.734375 -2.300781 4.828125 -2 4.828125 -1.625 C 4.828125 -1.039062 4.65625 -0.625 4.3125 -0.375 C 3.976562 -0.125 3.566406 0 3.078125 0 L 1.03125 0 C 0.925781 0 0.835938 -0.0351562 0.765625 -0.109375 C 0.691406 -0.179688 0.65625 -0.269531 0.65625 -0.375 L 0.65625 -5.171875 C 0.65625 -5.273438 0.691406 -5.363281 0.765625 -5.4375 C 0.835938 -5.507812 0.925781 -5.546875 1.03125 -5.546875 L 3.078125 -5.546875 C 3.554688 -5.546875 3.921875 -5.425781 4.171875 -5.1875 C 4.421875 -4.945312 4.546875 -4.601562 4.546875 -4.15625 C 4.546875 -3.90625 4.484375 -3.679688 4.359375 -3.484375 C 4.242188 -3.285156 4.066406 -3.132812 3.828125 -3.03125 Z M 3.734375 -4.046875 C 3.734375 -4.285156 3.664062 -4.46875 3.53125 -4.59375 C 3.394531 -4.726562 3.207031 -4.796875 2.96875 -4.796875 L 1.46875 -4.796875 L 1.46875 -3.25 L 2.984375 -3.25 C 3.191406 -3.257812 3.367188 -3.332031 3.515625 -3.46875 C 3.660156 -3.601562 3.734375 -3.796875 3.734375 -4.046875 Z M 3.0625 -0.734375 C 3.351562 -0.734375 3.585938 -0.804688 3.765625 -0.953125 C 3.941406 -1.109375 4.03125 -1.332031 4.03125 -1.625 C 4.03125 -2.21875 3.695312 -2.515625 3.03125 -2.515625 L 1.46875 -2.515625 L 1.46875 -0.734375 Z M 3.0625 -0.734375 "/></g></g></g><g fill="#000000" fill-opacity="1"><g transform="translate(65.450061, 50.324092)"><g><path d="M 3.65625 -4.15625 C 3.757812 -4.15625 3.847656 -4.113281 3.921875 -4.03125 C 3.992188 -3.957031 4.03125 -3.867188 4.03125 -3.765625 L 4.03125 -1.65625 C 4.03125 -1.113281 3.878906 -0.6875 3.578125 -0.375 C 3.273438 -0.0703125 2.847656 0.078125 2.296875 0.078125 C 1.742188 0.078125 1.316406 -0.0703125 1.015625 -0.375 C 0.710938 -0.6875 0.5625 -1.113281 0.5625 -1.65625 L 0.5625 -3.765625 C 0.5625 -3.867188 0.597656 -3.957031 0.671875 -4.03125 C 0.742188 -4.113281 0.832031 -4.15625 0.9375 -4.15625 C 1.039062 -4.15625 1.128906 -4.113281 1.203125 -4.03125 C 1.273438 -3.957031 1.3125 -3.867188 1.3125 -3.765625 L 1.3125 -1.65625 C 1.3125 -0.96875 1.640625 -0.625 2.296875 -0.625 C 2.609375 -0.625 2.847656 -0.710938 3.015625 -0.890625 C 3.191406 -1.066406 3.28125 -1.320312 3.28125 -1.65625 L 3.28125 -3.765625 C 3.28125 -3.867188 3.316406 -3.957031 3.390625 -4.03125 C 3.460938 -4.113281 3.550781 -4.15625 3.65625 -4.15625 Z M 3.65625 -4.15625 "/></g></g></g><g fill="#000000" fill-opacity="1"><g transform="translate(75.218125, 50.324092)"><g><path d="M 0.328125 -0.65625 C 0.273438 -0.726562 0.25 -0.796875 0.25 -0.859375 C 0.25 -0.960938 0.304688 -1.054688 0.421875 -1.140625 C 0.472656 -1.171875 0.535156 -1.1875 0.609375 -1.1875 C 0.703125 -1.1875 0.785156 -1.144531 0.859375 -1.0625 C 1.015625 -0.882812 1.179688 -0.75 1.359375 -0.65625 C 1.546875 -0.570312 1.769531 -0.53125 2.03125 -0.53125 C 2.226562 -0.53125 2.398438 -0.570312 2.546875 -0.65625 C 2.703125 -0.75 2.78125 -0.894531 2.78125 -1.09375 C 2.78125 -1.269531 2.703125 -1.40625 2.546875 -1.5 C 2.398438 -1.59375 2.175781 -1.679688 1.875 -1.765625 C 1.570312 -1.847656 1.320312 -1.929688 1.125 -2.015625 C 0.9375 -2.097656 0.773438 -2.222656 0.640625 -2.390625 C 0.503906 -2.554688 0.4375 -2.773438 0.4375 -3.046875 C 0.4375 -3.285156 0.503906 -3.492188 0.640625 -3.671875 C 0.773438 -3.847656 0.953125 -3.988281 1.171875 -4.09375 C 1.398438 -4.195312 1.644531 -4.25 1.90625 -4.25 C 2.164062 -4.25 2.421875 -4.203125 2.671875 -4.109375 C 2.921875 -4.015625 3.125 -3.867188 3.28125 -3.671875 C 3.34375 -3.597656 3.375 -3.519531 3.375 -3.4375 C 3.375 -3.351562 3.332031 -3.269531 3.25 -3.1875 C 3.195312 -3.144531 3.128906 -3.125 3.046875 -3.125 C 2.953125 -3.125 2.875 -3.15625 2.8125 -3.21875 C 2.707031 -3.34375 2.570312 -3.4375 2.40625 -3.5 C 2.25 -3.570312 2.070312 -3.609375 1.875 -3.609375 C 1.675781 -3.609375 1.503906 -3.566406 1.359375 -3.484375 C 1.222656 -3.398438 1.15625 -3.265625 1.15625 -3.078125 C 1.164062 -2.890625 1.242188 -2.75 1.390625 -2.65625 C 1.546875 -2.570312 1.785156 -2.488281 2.109375 -2.40625 C 2.390625 -2.332031 2.625 -2.25 2.8125 -2.15625 C 3 -2.070312 3.15625 -1.945312 3.28125 -1.78125 C 3.40625 -1.613281 3.46875 -1.398438 3.46875 -1.140625 C 3.46875 -0.890625 3.394531 -0.671875 3.25 -0.484375 C 3.113281 -0.304688 2.929688 -0.164062 2.703125 -0.0625 C 2.472656 0.03125 2.226562 0.078125 1.96875 0.078125 C 1.632812 0.078125 1.328125 0.0195312 1.046875 -0.09375 C 0.765625 -0.207031 0.523438 -0.394531 0.328125 -0.65625 Z M 0.328125 -0.65625 "/></g></g></g><g fill="#000000" fill-opacity="1"><g transform="translate(84.16954, 50.324092)"><g><path d="M 1.28125 -0.375 C 1.28125 -0.269531 1.242188 -0.179688 1.171875 -0.109375 C 1.097656 -0.0351562 1.003906 0 0.890625 0 C 0.785156 0 0.695312 -0.0351562 0.625 -0.109375 C 0.550781 -0.179688 0.515625 -0.269531 0.515625 -0.375 L 0.515625 -3.8125 C 0.515625 -3.914062 0.550781 -4.003906 0.625 -4.078125 C 0.695312 -4.148438 0.785156 -4.1875 0.890625 -4.1875 C 1.003906 -4.1875 1.097656 -4.148438 1.171875 -4.078125 C 1.242188 -4.003906 1.28125 -3.914062 1.28125 -3.8125 Z M 0.890625 -4.71875 C 0.742188 -4.71875 0.632812 -4.742188 0.5625 -4.796875 C 0.5 -4.847656 0.46875 -4.9375 0.46875 -5.0625 L 0.46875 -5.1875 C 0.46875 -5.3125 0.503906 -5.398438 0.578125 -5.453125 C 0.648438 -5.503906 0.757812 -5.53125 0.90625 -5.53125 C 1.050781 -5.53125 1.15625 -5.503906 1.21875 -5.453125 C 1.289062 -5.398438 1.328125 -5.3125 1.328125 -5.1875 L 1.328125 -5.0625 C 1.328125 -4.9375 1.289062 -4.847656 1.21875 -4.796875 C 1.144531 -4.742188 1.035156 -4.71875 0.890625 -4.71875 Z M 0.890625 -4.71875 "/></g></g></g><g fill="#000000" fill-opacity="1"><g transform="translate(91.138783, 50.324092)"><g><path d="M 2.671875 -4.25 C 3.628906 -4.25 4.109375 -3.675781 4.109375 -2.53125 L 4.109375 -0.375 C 4.109375 -0.269531 4.070312 -0.179688 4 -0.109375 C 3.925781 -0.0351562 3.832031 0 3.71875 0 C 3.613281 0 3.523438 -0.0351562 3.453125 -0.109375 C 3.378906 -0.179688 3.34375 -0.269531 3.34375 -0.375 L 3.34375 -2.53125 C 3.34375 -2.84375 3.269531 -3.085938 3.125 -3.265625 C 2.988281 -3.453125 2.757812 -3.546875 2.4375 -3.546875 C 2.226562 -3.546875 2.035156 -3.5 1.859375 -3.40625 C 1.691406 -3.3125 1.554688 -3.1875 1.453125 -3.03125 C 1.359375 -2.875 1.3125 -2.707031 1.3125 -2.53125 L 1.3125 -0.375 C 1.3125 -0.269531 1.273438 -0.179688 1.203125 -0.109375 C 1.128906 -0.0351562 1.039062 0 0.9375 0 C 0.820312 0 0.726562 -0.0351562 0.65625 -0.109375 C 0.59375 -0.179688 0.5625 -0.269531 0.5625 -0.375 L 0.5625 -3.765625 C 0.5625 -3.867188 0.597656 -3.957031 0.671875 -4.03125 C 0.742188 -4.113281 0.832031 -4.15625 0.9375 -4.15625 C 1.039062 -4.15625 1.128906 -4.113281 1.203125 -4.03125 C 1.273438 -3.957031 1.3125 -3.867188 1.3125 -3.765625 L 1.3125 -3.5 C 1.445312 -3.707031 1.632812 -3.882812 1.875 -4.03125 C 2.125 -4.175781 2.390625 -4.25 2.671875 -4.25 Z M 2.671875 -4.25 "/></g></g></g><g fill="#000000" fill-opacity="1"><g transform="translate(100.978204, 50.324092)"><g><path d="M 4.203125 -2.234375 C 4.203125 -2.140625 4.164062 -2.054688 4.09375 -1.984375 C 4.019531 -1.921875 3.929688 -1.890625 3.828125 -1.890625 L 1.03125 -1.890625 C 1.070312 -1.503906 1.21875 -1.195312 1.46875 -0.96875 C 1.726562 -0.738281 2.046875 -0.625 2.421875 -0.625 C 2.671875 -0.625 2.875 -0.660156 3.03125 -0.734375 C 3.1875 -0.804688 3.328125 -0.898438 3.453125 -1.015625 C 3.535156 -1.054688 3.613281 -1.078125 3.6875 -1.078125 C 3.769531 -1.078125 3.84375 -1.046875 3.90625 -0.984375 C 3.96875 -0.921875 4 -0.847656 4 -0.765625 C 4 -0.660156 3.945312 -0.5625 3.84375 -0.46875 C 3.6875 -0.3125 3.484375 -0.179688 3.234375 -0.078125 C 2.984375 0.0234375 2.722656 0.078125 2.453125 0.078125 C 2.023438 0.078125 1.648438 -0.0078125 1.328125 -0.1875 C 1.003906 -0.363281 0.753906 -0.613281 0.578125 -0.9375 C 0.398438 -1.257812 0.3125 -1.625 0.3125 -2.03125 C 0.3125 -2.476562 0.398438 -2.867188 0.578125 -3.203125 C 0.765625 -3.535156 1.003906 -3.789062 1.296875 -3.96875 C 1.597656 -4.15625 1.921875 -4.25 2.265625 -4.25 C 2.597656 -4.25 2.910156 -4.160156 3.203125 -3.984375 C 3.503906 -3.804688 3.742188 -3.5625 3.921875 -3.25 C 4.109375 -2.945312 4.203125 -2.609375 4.203125 -2.234375 Z M 2.265625 -3.546875 C 1.972656 -3.546875 1.71875 -3.460938 1.5 -3.296875 C 1.28125 -3.128906 1.132812 -2.875 1.0625 -2.53125 L 3.40625 -2.53125 L 3.40625 -2.59375 C 3.375 -2.875 3.242188 -3.101562 3.015625 -3.28125 C 2.796875 -3.457031 2.546875 -3.546875 2.265625 -3.546875 Z M 2.265625 -3.546875 "/></g></g></g><g fill="#000000" fill-opacity="1"><g transform="translate(110.666974, 50.324092)"><g><path d="M 0.328125 -0.65625 C 0.273438 -0.726562 0.25 -0.796875 0.25 -0.859375 C 0.25 -0.960938 0.304688 -1.054688 0.421875 -1.140625 C 0.472656 -1.171875 0.535156 -1.1875 0.609375 -1.1875 C 0.703125 -1.1875 0.785156 -1.144531 0.859375 -1.0625 C 1.015625 -0.882812 1.179688 -0.75 1.359375 -0.65625 C 1.546875 -0.570312 1.769531 -0.53125 2.03125 -0.53125 C 2.226562 -0.53125 2.398438 -0.570312 2.546875 -0.65625 C 2.703125 -0.75 2.78125 -0.894531 2.78125 -1.09375 C 2.78125 -1.269531 2.703125 -1.40625 2.546875 -1.5 C 2.398438 -1.59375 2.175781 -1.679688 1.875 -1.765625 C 1.570312 -1.847656 1.320312 -1.929688 1.125 -2.015625 C 0.9375 -2.097656 0.773438 -2.222656 0.640625 -2.390625 C 0.503906 -2.554688 0.4375 -2.773438 0.4375 -3.046875 C 0.4375 -3.285156 0.503906 -3.492188 0.640625 -3.671875 C 0.773438 -3.847656 0.953125 -3.988281 1.171875 -4.09375 C 1.398438 -4.195312 1.644531 -4.25 1.90625 -4.25 C 2.164062 -4.25 2.421875 -4.203125 2.671875 -4.109375 C 2.921875 -4.015625 3.125 -3.867188 3.28125 -3.671875 C 3.34375 -3.597656 3.375 -3.519531 3.375 -3.4375 C 3.375 -3.351562 3.332031 -3.269531 3.25 -3.1875 C 3.195312 -3.144531 3.128906 -3.125 3.046875 -3.125 C 2.953125 -3.125 2.875 -3.15625 2.8125 -3.21875 C 2.707031 -3.34375 2.570312 -3.4375 2.40625 -3.5 C 2.25 -3.570312 2.070312 -3.609375 1.875 -3.609375 C 1.675781 -3.609375 1.503906 -3.566406 1.359375 -3.484375 C 1.222656 -3.398438 1.15625 -3.265625 1.15625 -3.078125 C 1.164062 -2.890625 1.242188 -2.75 1.390625 -2.65625 C 1.546875 -2.570312 1.785156 -2.488281 2.109375 -2.40625 C 2.390625 -2.332031 2.625 -2.25 2.8125 -2.15625 C 3 -2.070312 3.15625 -1.945312 3.28125 -1.78125 C 3.40625 -1.613281 3.46875 -1.398438 3.46875 -1.140625 C 3.46875 -0.890625 3.394531 -0.671875 3.25 -0.484375 C 3.113281 -0.304688 2.929688 -0.164062 2.703125 -0.0625 C 2.472656 0.03125 2.226562 0.078125 1.96875 0.078125 C 1.632812 0.078125 1.328125 0.0195312 1.046875 -0.09375 C 0.765625 -0.207031 0.523438 -0.394531 0.328125 -0.65625 Z M 0.328125 -0.65625 "/></g></g></g><g fill="#000000" fill-opacity="1"><g transform="translate(119.618386, 50.324092)"><g><path d="M 0.328125 -0.65625 C 0.273438 -0.726562 0.25 -0.796875 0.25 -0.859375 C 0.25 -0.960938 0.304688 -1.054688 0.421875 -1.140625 C 0.472656 -1.171875 0.535156 -1.1875 0.609375 -1.1875 C 0.703125 -1.1875 0.785156 -1.144531 0.859375 -1.0625 C 1.015625 -0.882812 1.179688 -0.75 1.359375 -0.65625 C 1.546875 -0.570312 1.769531 -0.53125 2.03125 -0.53125 C 2.226562 -0.53125 2.398438 -0.570312 2.546875 -0.65625 C 2.703125 -0.75 2.78125 -0.894531 2.78125 -1.09375 C 2.78125 -1.269531 2.703125 -1.40625 2.546875 -1.5 C 2.398438 -1.59375 2.175781 -1.679688 1.875 -1.765625 C 1.570312 -1.847656 1.320312 -1.929688 1.125 -2.015625 C 0.9375 -2.097656 0.773438 -2.222656 0.640625 -2.390625 C 0.503906 -2.554688 0.4375 -2.773438 0.4375 -3.046875 C 0.4375 -3.285156 0.503906 -3.492188 0.640625 -3.671875 C 0.773438 -3.847656 0.953125 -3.988281 1.171875 -4.09375 C 1.398438 -4.195312 1.644531 -4.25 1.90625 -4.25 C 2.164062 -4.25 2.421875 -4.203125 2.671875 -4.109375 C 2.921875 -4.015625 3.125 -3.867188 3.28125 -3.671875 C 3.34375 -3.597656 3.375 -3.519531 3.375 -3.4375 C 3.375 -3.351562 3.332031 -3.269531 3.25 -3.1875 C 3.195312 -3.144531 3.128906 -3.125 3.046875 -3.125 C 2.953125 -3.125 2.875 -3.15625 2.8125 -3.21875 C 2.707031 -3.34375 2.570312 -3.4375 2.40625 -3.5 C 2.25 -3.570312 2.070312 -3.609375 1.875 -3.609375 C 1.675781 -3.609375 1.503906 -3.566406 1.359375 -3.484375 C 1.222656 -3.398438 1.15625 -3.265625 1.15625 -3.078125 C 1.164062 -2.890625 1.242188 -2.75 1.390625 -2.65625 C 1.546875 -2.570312 1.785156 -2.488281 2.109375 -2.40625 C 2.390625 -2.332031 2.625 -2.25 2.8125 -2.15625 C 3 -2.070312 3.15625 -1.945312 3.28125 -1.78125 C 3.40625 -1.613281 3.46875 -1.398438 3.46875 -1.140625 C 3.46875 -0.890625 3.394531 -0.671875 3.25 -0.484375 C 3.113281 -0.304688 2.929688 -0.164062 2.703125 -0.0625 C 2.472656 0.03125 2.226562 0.078125 1.96875 0.078125 C 1.632812 0.078125 1.328125 0.0195312 1.046875 -0.09375 C 0.765625 -0.207031 0.523438 -0.394531 0.328125 -0.65625 Z M 0.328125 -0.65625 "/></g></g></g><g fill="#000000" fill-opacity="1"><g transform="translate(128.569798, 50.324092)"><g/></g></g><g fill="#000000" fill-opacity="1"><g transform="translate(135.935475, 50.324092)"><g><path d="M 4.609375 -5.21875 C 4.734375 -5.15625 4.796875 -5.050781 4.796875 -4.90625 C 4.796875 -4.8125 4.765625 -4.722656 4.703125 -4.640625 C 4.640625 -4.554688 4.550781 -4.515625 4.4375 -4.515625 C 4.363281 -4.515625 4.296875 -4.535156 4.234375 -4.578125 C 3.898438 -4.753906 3.546875 -4.84375 3.171875 -4.84375 C 2.773438 -4.84375 2.421875 -4.753906 2.109375 -4.578125 C 1.804688 -4.410156 1.570312 -4.164062 1.40625 -3.84375 C 1.238281 -3.53125 1.15625 -3.171875 1.15625 -2.765625 C 1.15625 -2.328125 1.238281 -1.953125 1.40625 -1.640625 C 1.582031 -1.328125 1.820312 -1.085938 2.125 -0.921875 C 2.4375 -0.753906 2.785156 -0.671875 3.171875 -0.671875 C 3.554688 -0.671875 3.910156 -0.765625 4.234375 -0.953125 C 4.296875 -0.984375 4.363281 -1 4.4375 -1 C 4.550781 -1 4.644531 -0.953125 4.71875 -0.859375 C 4.78125 -0.785156 4.8125 -0.703125 4.8125 -0.609375 C 4.8125 -0.546875 4.789062 -0.484375 4.75 -0.421875 C 4.71875 -0.367188 4.675781 -0.328125 4.625 -0.296875 C 4.414062 -0.179688 4.179688 -0.0859375 3.921875 -0.015625 C 3.671875 0.046875 3.421875 0.078125 3.171875 0.078125 C 2.660156 0.078125 2.1875 -0.0351562 1.75 -0.265625 C 1.320312 -0.492188 0.976562 -0.820312 0.71875 -1.25 C 0.46875 -1.6875 0.34375 -2.191406 0.34375 -2.765625 C 0.34375 -3.304688 0.460938 -3.789062 0.703125 -4.21875 C 0.953125 -4.644531 1.289062 -4.976562 1.71875 -5.21875 C 2.15625 -5.46875 2.640625 -5.59375 3.171875 -5.59375 C 3.679688 -5.59375 4.160156 -5.46875 4.609375 -5.21875 Z M 4.609375 -5.21875 "/></g></g></g><g fill="#000000" fill-opacity="1"><g transform="translate(146.1634, 50.324092)"><g><path d="M 4.484375 -2.078125 C 4.484375 -1.660156 4.390625 -1.285156 4.203125 -0.953125 C 4.023438 -0.628906 3.773438 -0.375 3.453125 -0.1875 C 3.140625 -0.0078125 2.789062 0.078125 2.40625 0.078125 C 2.019531 0.078125 1.664062 -0.0078125 1.34375 -0.1875 C 1.019531 -0.375 0.765625 -0.628906 0.578125 -0.953125 C 0.398438 -1.285156 0.3125 -1.660156 0.3125 -2.078125 C 0.3125 -2.484375 0.398438 -2.851562 0.578125 -3.1875 C 0.765625 -3.519531 1.019531 -3.78125 1.34375 -3.96875 C 1.664062 -4.15625 2.019531 -4.25 2.40625 -4.25 C 2.789062 -4.25 3.140625 -4.15625 3.453125 -3.96875 C 3.773438 -3.78125 4.023438 -3.519531 4.203125 -3.1875 C 4.390625 -2.851562 4.484375 -2.484375 4.484375 -2.078125 Z M 3.734375 -2.078125 C 3.734375 -2.359375 3.671875 -2.609375 3.546875 -2.828125 C 3.429688 -3.054688 3.269531 -3.234375 3.0625 -3.359375 C 2.863281 -3.484375 2.644531 -3.546875 2.40625 -3.546875 C 2.15625 -3.546875 1.925781 -3.484375 1.71875 -3.359375 C 1.519531 -3.234375 1.359375 -3.054688 1.234375 -2.828125 C 1.117188 -2.609375 1.0625 -2.359375 1.0625 -2.078125 C 1.0625 -1.796875 1.117188 -1.539062 1.234375 -1.3125 C 1.359375 -1.09375 1.519531 -0.921875 1.71875 -0.796875 C 1.925781 -0.679688 2.15625 -0.625 2.40625 -0.625 C 2.644531 -0.625 2.863281 -0.679688 3.0625 -0.796875 C 3.269531 -0.921875 3.429688 -1.09375 3.546875 -1.3125 C 3.671875 -1.539062 3.734375 -1.796875 3.734375 -2.078125 Z M 3.734375 -2.078125 "/></g></g></g><g fill="#000000" fill-opacity="1"><g transform="translate(156.137609, 50.324092)"><g><path d="M 2.671875 -4.25 C 3.628906 -4.25 4.109375 -3.675781 4.109375 -2.53125 L 4.109375 -0.375 C 4.109375 -0.269531 4.070312 -0.179688 4 -0.109375 C 3.925781 -0.0351562 3.832031 0 3.71875 0 C 3.613281 0 3.523438 -0.0351562 3.453125 -0.109375 C 3.378906 -0.179688 3.34375 -0.269531 3.34375 -0.375 L 3.34375 -2.53125 C 3.34375 -2.84375 3.269531 -3.085938 3.125 -3.265625 C 2.988281 -3.453125 2.757812 -3.546875 2.4375 -3.546875 C 2.226562 -3.546875 2.035156 -3.5 1.859375 -3.40625 C 1.691406 -3.3125 1.554688 -3.1875 1.453125 -3.03125 C 1.359375 -2.875 1.3125 -2.707031 1.3125 -2.53125 L 1.3125 -0.375 C 1.3125 -0.269531 1.273438 -0.179688 1.203125 -0.109375 C 1.128906 -0.0351562 1.039062 0 0.9375 0 C 0.820312 0 0.726562 -0.0351562 0.65625 -0.109375 C 0.59375 -0.179688 0.5625 -0.269531 0.5625 -0.375 L 0.5625 -3.765625 C 0.5625 -3.867188 0.597656 -3.957031 0.671875 -4.03125 C 0.742188 -4.113281 0.832031 -4.15625 0.9375 -4.15625 C 1.039062 -4.15625 1.128906 -4.113281 1.203125 -4.03125 C 1.273438 -3.957031 1.3125 -3.867188 1.3125 -3.765625 L 1.3125 -3.5 C 1.445312 -3.707031 1.632812 -3.882812 1.875 -4.03125 C 2.125 -4.175781 2.390625 -4.25 2.671875 -4.25 Z M 2.671875 -4.25 "/></g></g></g><g fill="#000000" fill-opacity="1"><g transform="translate(165.977035, 50.324092)"><g><path d="M 0.328125 -0.65625 C 0.273438 -0.726562 0.25 -0.796875 0.25 -0.859375 C 0.25 -0.960938 0.304688 -1.054688 0.421875 -1.140625 C 0.472656 -1.171875 0.535156 -1.1875 0.609375 -1.1875 C 0.703125 -1.1875 0.785156 -1.144531 0.859375 -1.0625 C 1.015625 -0.882812 1.179688 -0.75 1.359375 -0.65625 C 1.546875 -0.570312 1.769531 -0.53125 2.03125 -0.53125 C 2.226562 -0.53125 2.398438 -0.570312 2.546875 -0.65625 C 2.703125 -0.75 2.78125 -0.894531 2.78125 -1.09375 C 2.78125 -1.269531 2.703125 -1.40625 2.546875 -1.5 C 2.398438 -1.59375 2.175781 -1.679688 1.875 -1.765625 C 1.570312 -1.847656 1.320312 -1.929688 1.125 -2.015625 C 0.9375 -2.097656 0.773438 -2.222656 0.640625 -2.390625 C 0.503906 -2.554688 0.4375 -2.773438 0.4375 -3.046875 C 0.4375 -3.285156 0.503906 -3.492188 0.640625 -3.671875 C 0.773438 -3.847656 0.953125 -3.988281 1.171875 -4.09375 C 1.398438 -4.195312 1.644531 -4.25 1.90625 -4.25 C 2.164062 -4.25 2.421875 -4.203125 2.671875 -4.109375 C 2.921875 -4.015625 3.125 -3.867188 3.28125 -3.671875 C 3.34375 -3.597656 3.375 -3.519531 3.375 -3.4375 C 3.375 -3.351562 3.332031 -3.269531 3.25 -3.1875 C 3.195312 -3.144531 3.128906 -3.125 3.046875 -3.125 C 2.953125 -3.125 2.875 -3.15625 2.8125 -3.21875 C 2.707031 -3.34375 2.570312 -3.4375 2.40625 -3.5 C 2.25 -3.570312 2.070312 -3.609375 1.875 -3.609375 C 1.675781 -3.609375 1.503906 -3.566406 1.359375 -3.484375 C 1.222656 -3.398438 1.15625 -3.265625 1.15625 -3.078125 C 1.164062 -2.890625 1.242188 -2.75 1.390625 -2.65625 C 1.546875 -2.570312 1.785156 -2.488281 2.109375 -2.40625 C 2.390625 -2.332031 2.625 -2.25 2.8125 -2.15625 C 3 -2.070312 3.15625 -1.945312 3.28125 -1.78125 C 3.40625 -1.613281 3.46875 -1.398438 3.46875 -1.140625 C 3.46875 -0.890625 3.394531 -0.671875 3.25 -0.484375 C 3.113281 -0.304688 2.929688 -0.164062 2.703125 -0.0625 C 2.472656 0.03125 2.226562 0.078125 1.96875 0.078125 C 1.632812 0.078125 1.328125 0.0195312 1.046875 -0.09375 C 0.765625 -0.207031 0.523438 -0.394531 0.328125 -0.65625 Z M 0.328125 -0.65625 "/></g></g></g><g fill="#000000" fill-opacity="1"><g transform="translate(174.928452, 50.324092)"><g><path d="M 3.65625 -4.15625 C 3.757812 -4.15625 3.847656 -4.113281 3.921875 -4.03125 C 3.992188 -3.957031 4.03125 -3.867188 4.03125 -3.765625 L 4.03125 -1.65625 C 4.03125 -1.113281 3.878906 -0.6875 3.578125 -0.375 C 3.273438 -0.0703125 2.847656 0.078125 2.296875 0.078125 C 1.742188 0.078125 1.316406 -0.0703125 1.015625 -0.375 C 0.710938 -0.6875 0.5625 -1.113281 0.5625 -1.65625 L 0.5625 -3.765625 C 0.5625 -3.867188 0.597656 -3.957031 0.671875 -4.03125 C 0.742188 -4.113281 0.832031 -4.15625 0.9375 -4.15625 C 1.039062 -4.15625 1.128906 -4.113281 1.203125 -4.03125 C 1.273438 -3.957031 1.3125 -3.867188 1.3125 -3.765625 L 1.3125 -1.65625 C 1.3125 -0.96875 1.640625 -0.625 2.296875 -0.625 C 2.609375 -0.625 2.847656 -0.710938 3.015625 -0.890625 C 3.191406 -1.066406 3.28125 -1.320312 3.28125 -1.65625 L 3.28125 -3.765625 C 3.28125 -3.867188 3.316406 -3.957031 3.390625 -4.03125 C 3.460938 -4.113281 3.550781 -4.15625 3.65625 -4.15625 Z M 3.65625 -4.15625 "/></g></g></g><g fill="#000000" fill-opacity="1"><g transform="translate(184.69652, 50.324092)"><g><path d="M 1.375 -0.375 C 1.375 -0.269531 1.335938 -0.179688 1.265625 -0.109375 C 1.191406 -0.0351562 1.101562 0 1 0 C 0.894531 0 0.804688 -0.0351562 0.734375 -0.109375 C 0.660156 -0.179688 0.625 -0.269531 0.625 -0.375 L 0.625 -5.484375 C 0.625 -5.585938 0.660156 -5.675781 0.734375 -5.75 C 0.804688 -5.820312 0.894531 -5.859375 1 -5.859375 C 1.113281 -5.859375 1.203125 -5.820312 1.265625 -5.75 C 1.335938 -5.675781 1.375 -5.585938 1.375 -5.484375 Z M 1.375 -0.375 "/></g></g></g><g fill="#000000" fill-opacity="1"><g transform="translate(191.871919, 50.324092)"><g><path d="M 1.6875 -3.421875 L 1.6875 -1.046875 C 1.6875 -0.785156 1.804688 -0.65625 2.046875 -0.65625 C 2.078125 -0.65625 2.125 -0.664062 2.1875 -0.6875 C 2.257812 -0.707031 2.3125 -0.71875 2.34375 -0.71875 C 2.414062 -0.71875 2.472656 -0.6875 2.515625 -0.625 C 2.566406 -0.5625 2.59375 -0.488281 2.59375 -0.40625 C 2.59375 -0.289062 2.523438 -0.191406 2.390625 -0.109375 C 2.265625 -0.0351562 2.125 0 1.96875 0 C 1.800781 0 1.644531 -0.015625 1.5 -0.046875 C 1.351562 -0.0859375 1.222656 -0.179688 1.109375 -0.328125 C 0.992188 -0.484375 0.9375 -0.710938 0.9375 -1.015625 L 0.9375 -3.421875 L 0.46875 -3.421875 C 0.375 -3.421875 0.289062 -3.453125 0.21875 -3.515625 C 0.15625 -3.578125 0.125 -3.660156 0.125 -3.765625 C 0.125 -3.859375 0.15625 -3.9375 0.21875 -4 C 0.289062 -4.070312 0.375 -4.109375 0.46875 -4.109375 L 0.9375 -4.109375 L 0.9375 -4.765625 C 0.9375 -4.867188 0.972656 -4.957031 1.046875 -5.03125 C 1.117188 -5.113281 1.207031 -5.15625 1.3125 -5.15625 C 1.414062 -5.15625 1.503906 -5.113281 1.578125 -5.03125 C 1.648438 -4.957031 1.6875 -4.867188 1.6875 -4.765625 L 1.6875 -4.109375 L 2.34375 -4.109375 C 2.445312 -4.109375 2.53125 -4.070312 2.59375 -4 C 2.65625 -3.9375 2.6875 -3.851562 2.6875 -3.75 C 2.6875 -3.65625 2.65625 -3.578125 2.59375 -3.515625 C 2.53125 -3.453125 2.445312 -3.421875 2.34375 -3.421875 Z M 1.6875 -3.421875 "/></g></g></g><g fill="#000000" fill-opacity="1"><g transform="translate(200.054251, 50.324092)"><g><path d="M 3.921875 -4.203125 C 4.035156 -4.203125 4.128906 -4.164062 4.203125 -4.09375 C 4.273438 -4.03125 4.3125 -3.9375 4.3125 -3.8125 L 4.3125 -0.375 C 4.3125 -0.269531 4.273438 -0.179688 4.203125 -0.109375 C 4.128906 -0.0351562 4.035156 0 3.921875 0 C 3.816406 0 3.726562 -0.0351562 3.65625 -0.109375 C 3.59375 -0.179688 3.5625 -0.269531 3.5625 -0.375 L 3.5625 -0.59375 C 3.414062 -0.40625 3.222656 -0.242188 2.984375 -0.109375 C 2.753906 0.015625 2.5 0.078125 2.21875 0.078125 C 1.863281 0.078125 1.539062 -0.0078125 1.25 -0.1875 C 0.957031 -0.375 0.726562 -0.632812 0.5625 -0.96875 C 0.394531 -1.300781 0.3125 -1.671875 0.3125 -2.078125 C 0.3125 -2.492188 0.394531 -2.863281 0.5625 -3.1875 C 0.726562 -3.519531 0.953125 -3.78125 1.234375 -3.96875 C 1.523438 -4.15625 1.847656 -4.25 2.203125 -4.25 C 2.484375 -4.25 2.742188 -4.1875 2.984375 -4.0625 C 3.222656 -3.945312 3.414062 -3.800781 3.5625 -3.625 L 3.5625 -3.8125 C 3.5625 -3.925781 3.59375 -4.019531 3.65625 -4.09375 C 3.726562 -4.164062 3.816406 -4.203125 3.921875 -4.203125 Z M 2.3125 -0.625 C 2.5625 -0.625 2.78125 -0.6875 2.96875 -0.8125 C 3.164062 -0.9375 3.316406 -1.109375 3.421875 -1.328125 C 3.535156 -1.546875 3.59375 -1.796875 3.59375 -2.078125 C 3.59375 -2.359375 3.535156 -2.609375 3.421875 -2.828125 C 3.316406 -3.046875 3.164062 -3.21875 2.96875 -3.34375 C 2.78125 -3.476562 2.5625 -3.546875 2.3125 -3.546875 C 2.0625 -3.546875 1.835938 -3.484375 1.640625 -3.359375 C 1.453125 -3.234375 1.300781 -3.054688 1.1875 -2.828125 C 1.082031 -2.609375 1.03125 -2.359375 1.03125 -2.078125 C 1.03125 -1.796875 1.082031 -1.546875 1.1875 -1.328125 C 1.300781 -1.109375 1.453125 -0.9375 1.640625 -0.8125 C 1.835938 -0.6875 2.0625 -0.625 2.3125 -0.625 Z M 2.3125 -0.625 "/></g></g></g><g fill="#000000" fill-opacity="1"><g transform="translate(210.091894, 50.324092)"><g><path d="M 2.671875 -4.25 C 3.628906 -4.25 4.109375 -3.675781 4.109375 -2.53125 L 4.109375 -0.375 C 4.109375 -0.269531 4.070312 -0.179688 4 -0.109375 C 3.925781 -0.0351562 3.832031 0 3.71875 0 C 3.613281 0 3.523438 -0.0351562 3.453125 -0.109375 C 3.378906 -0.179688 3.34375 -0.269531 3.34375 -0.375 L 3.34375 -2.53125 C 3.34375 -2.84375 3.269531 -3.085938 3.125 -3.265625 C 2.988281 -3.453125 2.757812 -3.546875 2.4375 -3.546875 C 2.226562 -3.546875 2.035156 -3.5 1.859375 -3.40625 C 1.691406 -3.3125 1.554688 -3.1875 1.453125 -3.03125 C 1.359375 -2.875 1.3125 -2.707031 1.3125 -2.53125 L 1.3125 -0.375 C 1.3125 -0.269531 1.273438 -0.179688 1.203125 -0.109375 C 1.128906 -0.0351562 1.039062 0 0.9375 0 C 0.820312 0 0.726562 -0.0351562 0.65625 -0.109375 C 0.59375 -0.179688 0.5625 -0.269531 0.5625 -0.375 L 0.5625 -3.765625 C 0.5625 -3.867188 0.597656 -3.957031 0.671875 -4.03125 C 0.742188 -4.113281 0.832031 -4.15625 0.9375 -4.15625 C 1.039062 -4.15625 1.128906 -4.113281 1.203125 -4.03125 C 1.273438 -3.957031 1.3125 -3.867188 1.3125 -3.765625 L 1.3125 -3.5 C 1.445312 -3.707031 1.632812 -3.882812 1.875 -4.03125 C 2.125 -4.175781 2.390625 -4.25 2.671875 -4.25 Z M 2.671875 -4.25 "/></g></g></g><g fill="#000000" fill-opacity="1"><g transform="translate(219.93132, 50.324092)"><g><path d="M 2.375 -4.25 C 2.789062 -4.25 3.132812 -4.179688 3.40625 -4.046875 C 3.6875 -3.910156 3.828125 -3.742188 3.828125 -3.546875 C 3.828125 -3.453125 3.796875 -3.367188 3.734375 -3.296875 C 3.679688 -3.222656 3.609375 -3.1875 3.515625 -3.1875 C 3.453125 -3.1875 3.398438 -3.195312 3.359375 -3.21875 C 3.316406 -3.238281 3.257812 -3.273438 3.1875 -3.328125 C 3.15625 -3.359375 3.109375 -3.394531 3.046875 -3.4375 C 2.984375 -3.46875 2.890625 -3.492188 2.765625 -3.515625 C 2.648438 -3.535156 2.546875 -3.546875 2.453125 -3.546875 C 2.179688 -3.546875 1.9375 -3.484375 1.71875 -3.359375 C 1.507812 -3.234375 1.347656 -3.054688 1.234375 -2.828125 C 1.117188 -2.609375 1.0625 -2.359375 1.0625 -2.078125 C 1.0625 -1.796875 1.117188 -1.546875 1.234375 -1.328125 C 1.347656 -1.109375 1.503906 -0.9375 1.703125 -0.8125 C 1.910156 -0.6875 2.148438 -0.625 2.421875 -0.625 C 2.691406 -0.625 2.910156 -0.664062 3.078125 -0.75 C 3.117188 -0.769531 3.171875 -0.800781 3.234375 -0.84375 C 3.285156 -0.882812 3.332031 -0.914062 3.375 -0.9375 C 3.414062 -0.957031 3.460938 -0.96875 3.515625 -0.96875 C 3.617188 -0.96875 3.703125 -0.9375 3.765625 -0.875 C 3.828125 -0.8125 3.859375 -0.726562 3.859375 -0.625 C 3.859375 -0.507812 3.785156 -0.394531 3.640625 -0.28125 C 3.503906 -0.175781 3.316406 -0.0859375 3.078125 -0.015625 C 2.847656 0.046875 2.597656 0.078125 2.328125 0.078125 C 1.929688 0.078125 1.578125 -0.015625 1.265625 -0.203125 C 0.960938 -0.390625 0.726562 -0.644531 0.5625 -0.96875 C 0.394531 -1.300781 0.3125 -1.671875 0.3125 -2.078125 C 0.3125 -2.484375 0.394531 -2.851562 0.5625 -3.1875 C 0.738281 -3.519531 0.984375 -3.78125 1.296875 -3.96875 C 1.609375 -4.15625 1.96875 -4.25 2.375 -4.25 Z M 2.375 -4.25 "/></g></g></g><g fill="#000000" fill-opacity="1"><g transform="translate(229.176096, 50.324092)"><g><path d="M 3.65625 -4.1875 C 3.757812 -4.1875 3.847656 -4.148438 3.921875 -4.078125 C 3.992188 -4.003906 4.03125 -3.914062 4.03125 -3.8125 L 4.03125 -0.390625 C 4.03125 0.273438 3.847656 0.769531 3.484375 1.09375 C 3.117188 1.414062 2.640625 1.578125 2.046875 1.578125 C 1.847656 1.578125 1.65625 1.554688 1.46875 1.515625 C 1.28125 1.484375 1.125 1.4375 1 1.375 C 0.800781 1.289062 0.703125 1.171875 0.703125 1.015625 C 0.703125 0.984375 0.707031 0.945312 0.71875 0.90625 C 0.75 0.820312 0.789062 0.753906 0.84375 0.703125 C 0.90625 0.660156 0.972656 0.640625 1.046875 0.640625 C 1.085938 0.640625 1.128906 0.644531 1.171875 0.65625 C 1.335938 0.726562 1.484375 0.785156 1.609375 0.828125 C 1.734375 0.867188 1.878906 0.890625 2.046875 0.890625 C 2.867188 0.890625 3.28125 0.472656 3.28125 -0.359375 L 3.28125 -0.515625 C 3.132812 -0.328125 2.945312 -0.179688 2.71875 -0.078125 C 2.5 0.0234375 2.242188 0.078125 1.953125 0.078125 C 1.515625 0.078125 1.171875 -0.0625 0.921875 -0.34375 C 0.679688 -0.625 0.5625 -0.988281 0.5625 -1.4375 L 0.5625 -3.8125 C 0.5625 -3.925781 0.59375 -4.015625 0.65625 -4.078125 C 0.726562 -4.148438 0.820312 -4.1875 0.9375 -4.1875 C 1.039062 -4.1875 1.128906 -4.148438 1.203125 -4.078125 C 1.273438 -4.003906 1.3125 -3.914062 1.3125 -3.8125 L 1.3125 -1.640625 C 1.3125 -1.285156 1.390625 -1.023438 1.546875 -0.859375 C 1.703125 -0.703125 1.929688 -0.625 2.234375 -0.625 C 2.535156 -0.625 2.785156 -0.71875 2.984375 -0.90625 C 3.179688 -1.09375 3.28125 -1.335938 3.28125 -1.640625 L 3.28125 -3.8125 C 3.28125 -3.925781 3.3125 -4.015625 3.375 -4.078125 C 3.445312 -4.148438 3.539062 -4.1875 3.65625 -4.1875 Z M 3.65625 -4.1875 "/></g></g></g><g fill="#000000" fill-opacity="1"><g transform="translate(238.936219, 50.324092)"><g/></g></g><g fill="#000000" fill-opacity="1"><g transform="translate(246.301891, 50.324092)"><g><path d="M 5.15625 -0.65625 C 5.269531 -0.550781 5.328125 -0.441406 5.328125 -0.328125 C 5.328125 -0.253906 5.296875 -0.179688 5.234375 -0.109375 C 5.179688 -0.0351562 5.101562 0 5 0 C 4.914062 0 4.84375 -0.0195312 4.78125 -0.0625 L 4.0625 -0.671875 C 3.5625 -0.171875 2.9375 0.078125 2.1875 0.078125 C 1.820312 0.078125 1.488281 -0.00390625 1.1875 -0.171875 C 0.894531 -0.335938 0.660156 -0.554688 0.484375 -0.828125 C 0.316406 -1.097656 0.234375 -1.382812 0.234375 -1.6875 C 0.234375 -2.050781 0.332031 -2.378906 0.53125 -2.671875 C 0.726562 -2.960938 1.019531 -3.1875 1.40625 -3.34375 C 1.300781 -3.5 1.222656 -3.644531 1.171875 -3.78125 C 1.117188 -3.925781 1.09375 -4.070312 1.09375 -4.21875 C 1.09375 -4.476562 1.15625 -4.710938 1.28125 -4.921875 C 1.414062 -5.140625 1.609375 -5.3125 1.859375 -5.4375 C 2.109375 -5.5625 2.394531 -5.625 2.71875 -5.625 C 3.082031 -5.625 3.40625 -5.554688 3.6875 -5.421875 C 3.96875 -5.296875 4.15625 -5.132812 4.25 -4.9375 C 4.289062 -4.863281 4.3125 -4.78125 4.3125 -4.6875 C 4.3125 -4.601562 4.28125 -4.53125 4.21875 -4.46875 C 4.15625 -4.414062 4.078125 -4.390625 3.984375 -4.390625 C 3.859375 -4.390625 3.769531 -4.429688 3.71875 -4.515625 C 3.613281 -4.671875 3.476562 -4.785156 3.3125 -4.859375 C 3.15625 -4.941406 2.957031 -4.984375 2.71875 -4.984375 C 2.457031 -4.984375 2.253906 -4.914062 2.109375 -4.78125 C 1.960938 -4.644531 1.890625 -4.46875 1.890625 -4.25 C 1.890625 -4.0625 1.957031 -3.867188 2.09375 -3.671875 C 2.226562 -3.472656 2.421875 -3.238281 2.671875 -2.96875 L 2.8125 -2.796875 C 3.125 -2.460938 3.5 -2.097656 3.9375 -1.703125 C 4.082031 -1.972656 4.179688 -2.269531 4.234375 -2.59375 C 4.253906 -2.738281 4.359375 -2.8125 4.546875 -2.8125 C 4.648438 -2.8125 4.734375 -2.769531 4.796875 -2.6875 C 4.867188 -2.601562 4.894531 -2.503906 4.875 -2.390625 C 4.8125 -1.953125 4.679688 -1.566406 4.484375 -1.234375 C 4.703125 -1.035156 4.925781 -0.84375 5.15625 -0.65625 Z M 2.34375 -0.640625 C 2.800781 -0.640625 3.195312 -0.796875 3.53125 -1.109375 C 2.96875 -1.609375 2.488281 -2.082031 2.09375 -2.53125 C 2.019531 -2.601562 1.9375 -2.703125 1.84375 -2.828125 C 1.539062 -2.734375 1.320312 -2.597656 1.1875 -2.421875 C 1.0625 -2.253906 1 -2.046875 1 -1.796875 C 1 -1.585938 1.046875 -1.394531 1.140625 -1.21875 C 1.242188 -1.050781 1.394531 -0.910156 1.59375 -0.796875 C 1.789062 -0.691406 2.039062 -0.640625 2.34375 -0.640625 Z M 2.34375 -0.640625 "/></g></g></g><g fill="#000000" fill-opacity="1"><g transform="translate(256.997599, 50.324092)"><g/></g></g><g fill="#000000" fill-opacity="1"><g transform="translate(264.363271, 50.324092)"><g><path d="M 4.921875 -0.484375 C 4.929688 -0.441406 4.9375 -0.394531 4.9375 -0.34375 C 4.9375 -0.238281 4.898438 -0.148438 4.828125 -0.078125 C 4.765625 -0.00390625 4.6875 0.03125 4.59375 0.03125 C 4.507812 0.03125 4.4375 0.0078125 4.375 -0.03125 C 4.320312 -0.0820312 4.273438 -0.148438 4.234375 -0.234375 L 3.75 -1.390625 L 1.296875 -1.390625 L 0.8125 -0.21875 C 0.789062 -0.144531 0.75 -0.0820312 0.6875 -0.03125 C 0.625 0.0078125 0.554688 0.03125 0.484375 0.03125 C 0.367188 0.03125 0.28125 0 0.21875 -0.0625 C 0.164062 -0.125 0.140625 -0.203125 0.140625 -0.296875 C 0.140625 -0.316406 0.144531 -0.359375 0.15625 -0.421875 L 2.171875 -5.328125 C 2.210938 -5.410156 2.265625 -5.472656 2.328125 -5.515625 C 2.398438 -5.554688 2.476562 -5.570312 2.5625 -5.5625 C 2.632812 -5.5625 2.703125 -5.539062 2.765625 -5.5 C 2.835938 -5.457031 2.882812 -5.398438 2.90625 -5.328125 Z M 1.59375 -2.109375 L 3.453125 -2.109375 L 2.515625 -4.328125 Z M 1.59375 -2.109375 "/></g></g></g><g fill="#000000" fill-opacity="1"><g transform="translate(274.622903, 50.324092)"><g><path d="M 2.375 -4.25 C 2.789062 -4.25 3.132812 -4.179688 3.40625 -4.046875 C 3.6875 -3.910156 3.828125 -3.742188 3.828125 -3.546875 C 3.828125 -3.453125 3.796875 -3.367188 3.734375 -3.296875 C 3.679688 -3.222656 3.609375 -3.1875 3.515625 -3.1875 C 3.453125 -3.1875 3.398438 -3.195312 3.359375 -3.21875 C 3.316406 -3.238281 3.257812 -3.273438 3.1875 -3.328125 C 3.15625 -3.359375 3.109375 -3.394531 3.046875 -3.4375 C 2.984375 -3.46875 2.890625 -3.492188 2.765625 -3.515625 C 2.648438 -3.535156 2.546875 -3.546875 2.453125 -3.546875 C 2.179688 -3.546875 1.9375 -3.484375 1.71875 -3.359375 C 1.507812 -3.234375 1.347656 -3.054688 1.234375 -2.828125 C 1.117188 -2.609375 1.0625 -2.359375 1.0625 -2.078125 C 1.0625 -1.796875 1.117188 -1.546875 1.234375 -1.328125 C 1.347656 -1.109375 1.503906 -0.9375 1.703125 -0.8125 C 1.910156 -0.6875 2.148438 -0.625 2.421875 -0.625 C 2.691406 -0.625 2.910156 -0.664062 3.078125 -0.75 C 3.117188 -0.769531 3.171875 -0.800781 3.234375 -0.84375 C 3.285156 -0.882812 3.332031 -0.914062 3.375 -0.9375 C 3.414062 -0.957031 3.460938 -0.96875 3.515625 -0.96875 C 3.617188 -0.96875 3.703125 -0.9375 3.765625 -0.875 C 3.828125 -0.8125 3.859375 -0.726562 3.859375 -0.625 C 3.859375 -0.507812 3.785156 -0.394531 3.640625 -0.28125 C 3.503906 -0.175781 3.316406 -0.0859375 3.078125 -0.015625 C 2.847656 0.046875 2.597656 0.078125 2.328125 0.078125 C 1.929688 0.078125 1.578125 -0.015625 1.265625 -0.203125 C 0.960938 -0.390625 0.726562 -0.644531 0.5625 -0.96875 C 0.394531 -1.300781 0.3125 -1.671875 0.3125 -2.078125 C 0.3125 -2.484375 0.394531 -2.851562 0.5625 -3.1875 C 0.738281 -3.519531 0.984375 -3.78125 1.296875 -3.96875 C 1.609375 -4.15625 1.96875 -4.25 2.375 -4.25 Z M 2.375 -4.25 "/></g></g></g><g fill="#000000" fill-opacity="1"><g transform="translate(283.867668, 50.324092)"><g><path d="M 2.375 -4.25 C 2.789062 -4.25 3.132812 -4.179688 3.40625 -4.046875 C 3.6875 -3.910156 3.828125 -3.742188 3.828125 -3.546875 C 3.828125 -3.453125 3.796875 -3.367188 3.734375 -3.296875 C 3.679688 -3.222656 3.609375 -3.1875 3.515625 -3.1875 C 3.453125 -3.1875 3.398438 -3.195312 3.359375 -3.21875 C 3.316406 -3.238281 3.257812 -3.273438 3.1875 -3.328125 C 3.15625 -3.359375 3.109375 -3.394531 3.046875 -3.4375 C 2.984375 -3.46875 2.890625 -3.492188 2.765625 -3.515625 C 2.648438 -3.535156 2.546875 -3.546875 2.453125 -3.546875 C 2.179688 -3.546875 1.9375 -3.484375 1.71875 -3.359375 C 1.507812 -3.234375 1.347656 -3.054688 1.234375 -2.828125 C 1.117188 -2.609375 1.0625 -2.359375 1.0625 -2.078125 C 1.0625 -1.796875 1.117188 -1.546875 1.234375 -1.328125 C 1.347656 -1.109375 1.503906 -0.9375 1.703125 -0.8125 C 1.910156 -0.6875 2.148438 -0.625 2.421875 -0.625 C 2.691406 -0.625 2.910156 -0.664062 3.078125 -0.75 C 3.117188 -0.769531 3.171875 -0.800781 3.234375 -0.84375 C 3.285156 -0.882812 3.332031 -0.914062 3.375 -0.9375 C 3.414062 -0.957031 3.460938 -0.96875 3.515625 -0.96875 C 3.617188 -0.96875 3.703125 -0.9375 3.765625 -0.875 C 3.828125 -0.8125 3.859375 -0.726562 3.859375 -0.625 C 3.859375 -0.507812 3.785156 -0.394531 3.640625 -0.28125 C 3.503906 -0.175781 3.316406 -0.0859375 3.078125 -0.015625 C 2.847656 0.046875 2.597656 0.078125 2.328125 0.078125 C 1.929688 0.078125 1.578125 -0.015625 1.265625 -0.203125 C 0.960938 -0.390625 0.726562 -0.644531 0.5625 -0.96875 C 0.394531 -1.300781 0.3125 -1.671875 0.3125 -2.078125 C 0.3125 -2.484375 0.394531 -2.851562 0.5625 -3.1875 C 0.738281 -3.519531 0.984375 -3.78125 1.296875 -3.96875 C 1.609375 -4.15625 1.96875 -4.25 2.375 -4.25 Z M 2.375 -4.25 "/></g></g></g><g fill="#000000" fill-opacity="1"><g transform="translate(293.112434, 50.324092)"><g><path d="M 4.484375 -2.078125 C 4.484375 -1.660156 4.390625 -1.285156 4.203125 -0.953125 C 4.023438 -0.628906 3.773438 -0.375 3.453125 -0.1875 C 3.140625 -0.0078125 2.789062 0.078125 2.40625 0.078125 C 2.019531 0.078125 1.664062 -0.0078125 1.34375 -0.1875 C 1.019531 -0.375 0.765625 -0.628906 0.578125 -0.953125 C 0.398438 -1.285156 0.3125 -1.660156 0.3125 -2.078125 C 0.3125 -2.484375 0.398438 -2.851562 0.578125 -3.1875 C 0.765625 -3.519531 1.019531 -3.78125 1.34375 -3.96875 C 1.664062 -4.15625 2.019531 -4.25 2.40625 -4.25 C 2.789062 -4.25 3.140625 -4.15625 3.453125 -3.96875 C 3.773438 -3.78125 4.023438 -3.519531 4.203125 -3.1875 C 4.390625 -2.851562 4.484375 -2.484375 4.484375 -2.078125 Z M 3.734375 -2.078125 C 3.734375 -2.359375 3.671875 -2.609375 3.546875 -2.828125 C 3.429688 -3.054688 3.269531 -3.234375 3.0625 -3.359375 C 2.863281 -3.484375 2.644531 -3.546875 2.40625 -3.546875 C 2.15625 -3.546875 1.925781 -3.484375 1.71875 -3.359375 C 1.519531 -3.234375 1.359375 -3.054688 1.234375 -2.828125 C 1.117188 -2.609375 1.0625 -2.359375 1.0625 -2.078125 C 1.0625 -1.796875 1.117188 -1.539062 1.234375 -1.3125 C 1.359375 -1.09375 1.519531 -0.921875 1.71875 -0.796875 C 1.925781 -0.679688 2.15625 -0.625 2.40625 -0.625 C 2.644531 -0.625 2.863281 -0.679688 3.0625 -0.796875 C 3.269531 -0.921875 3.429688 -1.09375 3.546875 -1.3125 C 3.671875 -1.539062 3.734375 -1.796875 3.734375 -2.078125 Z M 3.734375 -2.078125 "/></g></g></g><g fill="#000000" fill-opacity="1"><g transform="translate(303.086632, 50.324092)"><g><path d="M 3.65625 -4.15625 C 3.757812 -4.15625 3.847656 -4.113281 3.921875 -4.03125 C 3.992188 -3.957031 4.03125 -3.867188 4.03125 -3.765625 L 4.03125 -1.65625 C 4.03125 -1.113281 3.878906 -0.6875 3.578125 -0.375 C 3.273438 -0.0703125 2.847656 0.078125 2.296875 0.078125 C 1.742188 0.078125 1.316406 -0.0703125 1.015625 -0.375 C 0.710938 -0.6875 0.5625 -1.113281 0.5625 -1.65625 L 0.5625 -3.765625 C 0.5625 -3.867188 0.597656 -3.957031 0.671875 -4.03125 C 0.742188 -4.113281 0.832031 -4.15625 0.9375 -4.15625 C 1.039062 -4.15625 1.128906 -4.113281 1.203125 -4.03125 C 1.273438 -3.957031 1.3125 -3.867188 1.3125 -3.765625 L 1.3125 -1.65625 C 1.3125 -0.96875 1.640625 -0.625 2.296875 -0.625 C 2.609375 -0.625 2.847656 -0.710938 3.015625 -0.890625 C 3.191406 -1.066406 3.28125 -1.320312 3.28125 -1.65625 L 3.28125 -3.765625 C 3.28125 -3.867188 3.316406 -3.957031 3.390625 -4.03125 C 3.460938 -4.113281 3.550781 -4.15625 3.65625 -4.15625 Z M 3.65625 -4.15625 "/></g></g></g><g fill="#000000" fill-opacity="1"><g transform="translate(312.8547, 50.324092)"><g><path d="M 2.671875 -4.25 C 3.628906 -4.25 4.109375 -3.675781 4.109375 -2.53125 L 4.109375 -0.375 C 4.109375 -0.269531 4.070312 -0.179688 4 -0.109375 C 3.925781 -0.0351562 3.832031 0 3.71875 0 C 3.613281 0 3.523438 -0.0351562 3.453125 -0.109375 C 3.378906 -0.179688 3.34375 -0.269531 3.34375 -0.375 L 3.34375 -2.53125 C 3.34375 -2.84375 3.269531 -3.085938 3.125 -3.265625 C 2.988281 -3.453125 2.757812 -3.546875 2.4375 -3.546875 C 2.226562 -3.546875 2.035156 -3.5 1.859375 -3.40625 C 1.691406 -3.3125 1.554688 -3.1875 1.453125 -3.03125 C 1.359375 -2.875 1.3125 -2.707031 1.3125 -2.53125 L 1.3125 -0.375 C 1.3125 -0.269531 1.273438 -0.179688 1.203125 -0.109375 C 1.128906 -0.0351562 1.039062 0 0.9375 0 C 0.820312 0 0.726562 -0.0351562 0.65625 -0.109375 C 0.59375 -0.179688 0.5625 -0.269531 0.5625 -0.375 L 0.5625 -3.765625 C 0.5625 -3.867188 0.597656 -3.957031 0.671875 -4.03125 C 0.742188 -4.113281 0.832031 -4.15625 0.9375 -4.15625 C 1.039062 -4.15625 1.128906 -4.113281 1.203125 -4.03125 C 1.273438 -3.957031 1.3125 -3.867188 1.3125 -3.765625 L 1.3125 -3.5 C 1.445312 -3.707031 1.632812 -3.882812 1.875 -4.03125 C 2.125 -4.175781 2.390625 -4.25 2.671875 -4.25 Z M 2.671875 -4.25 "/></g></g></g><g fill="#000000" fill-opacity="1"><g transform="translate(322.694126, 50.324092)"><g><path d="M 1.6875 -3.421875 L 1.6875 -1.046875 C 1.6875 -0.785156 1.804688 -0.65625 2.046875 -0.65625 C 2.078125 -0.65625 2.125 -0.664062 2.1875 -0.6875 C 2.257812 -0.707031 2.3125 -0.71875 2.34375 -0.71875 C 2.414062 -0.71875 2.472656 -0.6875 2.515625 -0.625 C 2.566406 -0.5625 2.59375 -0.488281 2.59375 -0.40625 C 2.59375 -0.289062 2.523438 -0.191406 2.390625 -0.109375 C 2.265625 -0.0351562 2.125 0 1.96875 0 C 1.800781 0 1.644531 -0.015625 1.5 -0.046875 C 1.351562 -0.0859375 1.222656 -0.179688 1.109375 -0.328125 C 0.992188 -0.484375 0.9375 -0.710938 0.9375 -1.015625 L 0.9375 -3.421875 L 0.46875 -3.421875 C 0.375 -3.421875 0.289062 -3.453125 0.21875 -3.515625 C 0.15625 -3.578125 0.125 -3.660156 0.125 -3.765625 C 0.125 -3.859375 0.15625 -3.9375 0.21875 -4 C 0.289062 -4.070312 0.375 -4.109375 0.46875 -4.109375 L 0.9375 -4.109375 L 0.9375 -4.765625 C 0.9375 -4.867188 0.972656 -4.957031 1.046875 -5.03125 C 1.117188 -5.113281 1.207031 -5.15625 1.3125 -5.15625 C 1.414062 -5.15625 1.503906 -5.113281 1.578125 -5.03125 C 1.648438 -4.957031 1.6875 -4.867188 1.6875 -4.765625 L 1.6875 -4.109375 L 2.34375 -4.109375 C 2.445312 -4.109375 2.53125 -4.070312 2.59375 -4 C 2.65625 -3.9375 2.6875 -3.851562 2.6875 -3.75 C 2.6875 -3.65625 2.65625 -3.578125 2.59375 -3.515625 C 2.53125 -3.453125 2.445312 -3.421875 2.34375 -3.421875 Z M 1.6875 -3.421875 "/></g></g></g><g fill="#000000" fill-opacity="1"><g transform="translate(330.876458, 50.324092)"><g><path d="M 1.28125 -0.375 C 1.28125 -0.269531 1.242188 -0.179688 1.171875 -0.109375 C 1.097656 -0.0351562 1.003906 0 0.890625 0 C 0.785156 0 0.695312 -0.0351562 0.625 -0.109375 C 0.550781 -0.179688 0.515625 -0.269531 0.515625 -0.375 L 0.515625 -3.8125 C 0.515625 -3.914062 0.550781 -4.003906 0.625 -4.078125 C 0.695312 -4.148438 0.785156 -4.1875 0.890625 -4.1875 C 1.003906 -4.1875 1.097656 -4.148438 1.171875 -4.078125 C 1.242188 -4.003906 1.28125 -3.914062 1.28125 -3.8125 Z M 0.890625 -4.71875 C 0.742188 -4.71875 0.632812 -4.742188 0.5625 -4.796875 C 0.5 -4.847656 0.46875 -4.9375 0.46875 -5.0625 L 0.46875 -5.1875 C 0.46875 -5.3125 0.503906 -5.398438 0.578125 -5.453125 C 0.648438 -5.503906 0.757812 -5.53125 0.90625 -5.53125 C 1.050781 -5.53125 1.15625 -5.503906 1.21875 -5.453125 C 1.289062 -5.398438 1.328125 -5.3125 1.328125 -5.1875 L 1.328125 -5.0625 C 1.328125 -4.9375 1.289062 -4.847656 1.21875 -4.796875 C 1.144531 -4.742188 1.035156 -4.71875 0.890625 -4.71875 Z M 0.890625 -4.71875 "/></g></g></g><g fill="#000000" fill-opacity="1"><g transform="translate(337.845696, 50.324092)"><g><path d="M 2.671875 -4.25 C 3.628906 -4.25 4.109375 -3.675781 4.109375 -2.53125 L 4.109375 -0.375 C 4.109375 -0.269531 4.070312 -0.179688 4 -0.109375 C 3.925781 -0.0351562 3.832031 0 3.71875 0 C 3.613281 0 3.523438 -0.0351562 3.453125 -0.109375 C 3.378906 -0.179688 3.34375 -0.269531 3.34375 -0.375 L 3.34375 -2.53125 C 3.34375 -2.84375 3.269531 -3.085938 3.125 -3.265625 C 2.988281 -3.453125 2.757812 -3.546875 2.4375 -3.546875 C 2.226562 -3.546875 2.035156 -3.5 1.859375 -3.40625 C 1.691406 -3.3125 1.554688 -3.1875 1.453125 -3.03125 C 1.359375 -2.875 1.3125 -2.707031 1.3125 -2.53125 L 1.3125 -0.375 C 1.3125 -0.269531 1.273438 -0.179688 1.203125 -0.109375 C 1.128906 -0.0351562 1.039062 0 0.9375 0 C 0.820312 0 0.726562 -0.0351562 0.65625 -0.109375 C 0.59375 -0.179688 0.5625 -0.269531 0.5625 -0.375 L 0.5625 -3.765625 C 0.5625 -3.867188 0.597656 -3.957031 0.671875 -4.03125 C 0.742188 -4.113281 0.832031 -4.15625 0.9375 -4.15625 C 1.039062 -4.15625 1.128906 -4.113281 1.203125 -4.03125 C 1.273438 -3.957031 1.3125 -3.867188 1.3125 -3.765625 L 1.3125 -3.5 C 1.445312 -3.707031 1.632812 -3.882812 1.875 -4.03125 C 2.125 -4.175781 2.390625 -4.25 2.671875 -4.25 Z M 2.671875 -4.25 "/></g></g></g><g fill="#000000" fill-opacity="1"><g transform="translate(347.685122, 50.324092)"><g><path d="M 4.03125 -4.203125 C 4.144531 -4.203125 4.234375 -4.164062 4.296875 -4.09375 C 4.367188 -4.03125 4.40625 -3.9375 4.40625 -3.8125 L 4.40625 -0.328125 C 4.40625 0.0976562 4.3125 0.453125 4.125 0.734375 C 3.945312 1.023438 3.703125 1.238281 3.390625 1.375 C 3.085938 1.507812 2.738281 1.578125 2.34375 1.578125 C 2.132812 1.578125 1.890625 1.539062 1.609375 1.46875 C 1.328125 1.394531 1.144531 1.320312 1.0625 1.25 C 0.894531 1.15625 0.8125 1.046875 0.8125 0.921875 C 0.8125 0.890625 0.820312 0.847656 0.84375 0.796875 C 0.90625 0.671875 1.003906 0.609375 1.140625 0.609375 C 1.210938 0.609375 1.285156 0.625 1.359375 0.65625 C 1.785156 0.8125 2.117188 0.890625 2.359375 0.890625 C 2.773438 0.890625 3.09375 0.785156 3.3125 0.578125 C 3.539062 0.378906 3.65625 0.101562 3.65625 -0.25 L 3.65625 -0.671875 C 3.550781 -0.460938 3.363281 -0.285156 3.09375 -0.140625 C 2.832031 0.00390625 2.5625 0.078125 2.28125 0.078125 C 1.914062 0.078125 1.582031 -0.0078125 1.28125 -0.1875 C 0.976562 -0.375 0.738281 -0.632812 0.5625 -0.96875 C 0.394531 -1.300781 0.3125 -1.671875 0.3125 -2.078125 C 0.3125 -2.492188 0.394531 -2.863281 0.5625 -3.1875 C 0.738281 -3.519531 0.972656 -3.78125 1.265625 -3.96875 C 1.566406 -4.15625 1.894531 -4.25 2.25 -4.25 C 2.539062 -4.25 2.8125 -4.179688 3.0625 -4.046875 C 3.320312 -3.910156 3.519531 -3.75 3.65625 -3.5625 L 3.65625 -3.8125 C 3.65625 -3.925781 3.6875 -4.019531 3.75 -4.09375 C 3.820312 -4.164062 3.914062 -4.203125 4.03125 -4.203125 Z M 2.359375 -0.625 C 2.617188 -0.625 2.847656 -0.679688 3.046875 -0.796875 C 3.242188 -0.921875 3.398438 -1.09375 3.515625 -1.3125 C 3.628906 -1.539062 3.6875 -1.796875 3.6875 -2.078125 C 3.6875 -2.359375 3.628906 -2.609375 3.515625 -2.828125 C 3.398438 -3.054688 3.242188 -3.234375 3.046875 -3.359375 C 2.847656 -3.484375 2.617188 -3.546875 2.359375 -3.546875 C 2.109375 -3.546875 1.878906 -3.484375 1.671875 -3.359375 C 1.472656 -3.234375 1.316406 -3.054688 1.203125 -2.828125 C 1.085938 -2.609375 1.03125 -2.359375 1.03125 -2.078125 C 1.03125 -1.804688 1.085938 -1.554688 1.203125 -1.328125 C 1.316406 -1.109375 1.472656 -0.9375 1.671875 -0.8125 C 1.878906 -0.6875 2.109375 -0.625 2.359375 -0.625 Z M 2.359375 -0.625 "/></g></g></g></svg>