<svg xmlns="http://www.w3.org/2000/svg" xmlns:xlink="http://www.w3.org/1999/xlink" width="221" zoomAndPan="magnify" viewBox="0 0 165.75 91.5" height="122" preserveAspectRatio="xMidYMid meet" version="1.0"><defs><g/></defs><g fill="#000000" fill-opacity="1"><g transform="translate(14.101666, 32.903449)"><g><path d="M 0.21875 -18 L 0.21875 -22.5 L 16.03125 -22.5 L 16.03125 -18 L 10.6875 -18 L 10.6875 0 L 5.5625 0 L 5.5625 -18 Z M 0.21875 -18 "/></g></g></g><g fill="#000000" fill-opacity="1"><g transform="translate(29.126225, 32.903449)"><g><path d="M 15.78125 -6.328125 L 5.640625 -6.328125 C 5.640625 -5.347656 5.957031 -4.617188 6.59375 -4.140625 C 7.226562 -3.671875 7.921875 -3.4375 8.671875 -3.4375 C 9.453125 -3.4375 10.066406 -3.539062 10.515625 -3.75 C 10.972656 -3.957031 11.492188 -4.367188 12.078125 -4.984375 L 15.5625 -3.25 C 14.113281 -0.8125 11.695312 0.40625 8.3125 0.40625 C 6.207031 0.40625 4.398438 -0.3125 2.890625 -1.75 C 1.378906 -3.195312 0.625 -4.9375 0.625 -6.96875 C 0.625 -9.007812 1.378906 -10.753906 2.890625 -12.203125 C 4.398438 -13.660156 6.207031 -14.390625 8.3125 -14.390625 C 10.53125 -14.390625 12.332031 -13.75 13.71875 -12.46875 C 15.113281 -11.1875 15.8125 -9.359375 15.8125 -6.984375 C 15.8125 -6.648438 15.800781 -6.429688 15.78125 -6.328125 Z M 5.78125 -9 L 11.09375 -9 C 10.988281 -9.726562 10.703125 -10.285156 10.234375 -10.671875 C 9.773438 -11.066406 9.179688 -11.265625 8.453125 -11.265625 C 7.648438 -11.265625 7.007812 -11.050781 6.53125 -10.625 C 6.0625 -10.207031 5.8125 -9.664062 5.78125 -9 Z M 5.78125 -9 "/></g></g></g><g fill="#000000" fill-opacity="1"><g transform="translate(44.341658, 32.903449)"><g><path d="M 15.78125 -6.328125 L 5.640625 -6.328125 C 5.640625 -5.347656 5.957031 -4.617188 6.59375 -4.140625 C 7.226562 -3.671875 7.921875 -3.4375 8.671875 -3.4375 C 9.453125 -3.4375 10.066406 -3.539062 10.515625 -3.75 C 10.972656 -3.957031 11.492188 -4.367188 12.078125 -4.984375 L 15.5625 -3.25 C 14.113281 -0.8125 11.695312 0.40625 8.3125 0.40625 C 6.207031 0.40625 4.398438 -0.3125 2.890625 -1.75 C 1.378906 -3.195312 0.625 -4.9375 0.625 -6.96875 C 0.625 -9.007812 1.378906 -10.753906 2.890625 -12.203125 C 4.398438 -13.660156 6.207031 -14.390625 8.3125 -14.390625 C 10.53125 -14.390625 12.332031 -13.75 13.71875 -12.46875 C 15.113281 -11.1875 15.8125 -9.359375 15.8125 -6.984375 C 15.8125 -6.648438 15.800781 -6.429688 15.78125 -6.328125 Z M 5.78125 -9 L 11.09375 -9 C 10.988281 -9.726562 10.703125 -10.285156 10.234375 -10.671875 C 9.773438 -11.066406 9.179688 -11.265625 8.453125 -11.265625 C 7.648438 -11.265625 7.007812 -11.050781 6.53125 -10.625 C 6.0625 -10.207031 5.8125 -9.664062 5.78125 -9 Z M 5.78125 -9 "/></g></g></g><g fill="#000000" fill-opacity="1"><g transform="translate(59.557091, 32.903449)"><g/></g></g><g fill="#000000" fill-opacity="1"><g transform="translate(65.774053, 32.903449)"><g><path d="M 1.640625 -22.5 L 9.671875 -22.5 C 11.835938 -22.5 13.601562 -21.921875 14.96875 -20.765625 C 16.332031 -19.609375 17.015625 -17.957031 17.015625 -15.8125 C 17.015625 -14.15625 16.597656 -12.769531 15.765625 -11.65625 C 14.941406 -10.539062 13.820312 -9.753906 12.40625 -9.296875 L 20.15625 0 L 13.625 0 L 6.765625 -8.890625 L 6.765625 0 L 1.640625 0 Z M 6.765625 -12.515625 L 7.359375 -12.515625 C 7.835938 -12.515625 8.238281 -12.519531 8.5625 -12.53125 C 8.882812 -12.550781 9.253906 -12.613281 9.671875 -12.71875 C 10.097656 -12.832031 10.4375 -12.988281 10.6875 -13.1875 C 10.9375 -13.394531 11.148438 -13.6875 11.328125 -14.0625 C 11.515625 -14.445312 11.609375 -14.910156 11.609375 -15.453125 C 11.609375 -16.003906 11.515625 -16.46875 11.328125 -16.84375 C 11.148438 -17.226562 10.9375 -17.519531 10.6875 -17.71875 C 10.4375 -17.914062 10.097656 -18.066406 9.671875 -18.171875 C 9.253906 -18.285156 8.882812 -18.351562 8.5625 -18.375 C 8.238281 -18.394531 7.835938 -18.40625 7.359375 -18.40625 L 6.765625 -18.40625 Z M 6.765625 -12.515625 "/></g></g></g><g fill="#000000" fill-opacity="1"><g transform="translate(84.070781, 32.903449)"><g><path d="M 15.78125 -6.328125 L 5.640625 -6.328125 C 5.640625 -5.347656 5.957031 -4.617188 6.59375 -4.140625 C 7.226562 -3.671875 7.921875 -3.4375 8.671875 -3.4375 C 9.453125 -3.4375 10.066406 -3.539062 10.515625 -3.75 C 10.972656 -3.957031 11.492188 -4.367188 12.078125 -4.984375 L 15.5625 -3.25 C 14.113281 -0.8125 11.695312 0.40625 8.3125 0.40625 C 6.207031 0.40625 4.398438 -0.3125 2.890625 -1.75 C 1.378906 -3.195312 0.625 -4.9375 0.625 -6.96875 C 0.625 -9.007812 1.378906 -10.753906 2.890625 -12.203125 C 4.398438 -13.660156 6.207031 -14.390625 8.3125 -14.390625 C 10.53125 -14.390625 12.332031 -13.75 13.71875 -12.46875 C 15.113281 -11.1875 15.8125 -9.359375 15.8125 -6.984375 C 15.8125 -6.648438 15.800781 -6.429688 15.78125 -6.328125 Z M 5.78125 -9 L 11.09375 -9 C 10.988281 -9.726562 10.703125 -10.285156 10.234375 -10.671875 C 9.773438 -11.066406 9.179688 -11.265625 8.453125 -11.265625 C 7.648438 -11.265625 7.007812 -11.050781 6.53125 -10.625 C 6.0625 -10.207031 5.8125 -9.664062 5.78125 -9 Z M 5.78125 -9 "/></g></g></g><g fill="#000000" fill-opacity="1"><g transform="translate(99.286212, 32.903449)"><g><path d="M 17.828125 0 L 12 0 L 8.921875 -3.953125 L 5.828125 0 L 0 0 L 5.96875 -7.3125 L 0.84375 -13.984375 L 6.484375 -13.984375 L 8.921875 -10.75 L 11.34375 -13.984375 L 16.984375 -13.984375 L 11.859375 -7.3125 Z M 17.828125 0 "/></g></g></g><g fill="#000000" fill-opacity="1"><g transform="translate(115.892322, 32.903449)"><g/></g></g><g fill="#000000" fill-opacity="1"><g transform="translate(122.109289, 32.903449)"><g><path d="M 0.796875 -5.921875 C 0.796875 -6.585938 0.945312 -7.226562 1.25 -7.84375 C 1.5625 -8.46875 2 -9.035156 2.5625 -9.546875 C 3.125 -10.054688 3.695312 -10.5 4.28125 -10.875 C 4.863281 -11.257812 5.523438 -11.648438 6.265625 -12.046875 C 4.765625 -13.941406 4.015625 -15.609375 4.015625 -17.046875 C 4.015625 -18.828125 4.632812 -20.25 5.875 -21.3125 C 7.125 -22.375 8.890625 -22.90625 11.171875 -22.90625 C 13.285156 -22.90625 14.925781 -22.3125 16.09375 -21.125 C 17.269531 -19.945312 17.859375 -18.585938 17.859375 -17.046875 C 17.859375 -16.410156 17.703125 -15.785156 17.390625 -15.171875 C 17.085938 -14.566406 16.722656 -14.050781 16.296875 -13.625 C 15.867188 -13.195312 15.4375 -12.816406 15 -12.484375 C 14.5625 -12.160156 14.1875 -11.914062 13.875 -11.75 L 13.421875 -11.5 L 16.40625 -8.390625 C 17.0625 -8.679688 18.164062 -9.628906 19.71875 -11.234375 L 22.875 -8.125 C 21.851562 -6.957031 20.789062 -5.929688 19.6875 -5.046875 L 24.53125 0 L 18.078125 0 L 15.84375 -2.3125 C 15.15625 -1.820312 14.644531 -1.472656 14.3125 -1.265625 C 13.988281 -1.054688 13.503906 -0.785156 12.859375 -0.453125 C 12.210938 -0.128906 11.546875 0.09375 10.859375 0.21875 C 10.179688 0.34375 9.429688 0.40625 8.609375 0.40625 C 7.898438 0.40625 7.203125 0.34375 6.515625 0.21875 C 5.828125 0.101562 5.128906 -0.0976562 4.421875 -0.390625 C 3.722656 -0.691406 3.109375 -1.066406 2.578125 -1.515625 C 2.054688 -1.972656 1.628906 -2.578125 1.296875 -3.328125 C 0.960938 -4.085938 0.796875 -4.953125 0.796875 -5.921875 Z M 11.171875 -19.28125 C 10.523438 -19.28125 10.035156 -19.066406 9.703125 -18.640625 C 9.378906 -18.222656 9.21875 -17.691406 9.21875 -17.046875 C 9.21875 -16.660156 9.351562 -16.234375 9.625 -15.765625 C 9.894531 -15.304688 10.164062 -14.941406 10.4375 -14.671875 L 10.859375 -14.28125 C 12.523438 -15.195312 13.359375 -16.117188 13.359375 -17.046875 C 13.359375 -18.535156 12.628906 -19.28125 11.171875 -19.28125 Z M 12.515625 -5.71875 L 8.9375 -9.25 C 8.882812 -9.226562 8.800781 -9.191406 8.6875 -9.140625 C 8.582031 -9.097656 8.394531 -8.988281 8.125 -8.8125 C 7.851562 -8.644531 7.613281 -8.457031 7.40625 -8.25 C 7.207031 -8.039062 7.019531 -7.757812 6.84375 -7.40625 C 6.675781 -7.0625 6.59375 -6.703125 6.59375 -6.328125 C 6.59375 -5.722656 6.847656 -5.253906 7.359375 -4.921875 C 7.867188 -4.597656 8.460938 -4.4375 9.140625 -4.4375 C 9.679688 -4.4375 10.234375 -4.539062 10.796875 -4.75 C 11.359375 -4.96875 11.785156 -5.1875 12.078125 -5.40625 Z M 12.515625 -5.71875 "/></g></g></g><g fill="#000000" fill-opacity="1"><g transform="translate(143.604774, 32.903449)"><g/></g></g><g fill="#000000" fill-opacity="1"><g transform="translate(10.403534, 70.8892)"><g><path d="M 13.0625 -22.5 L 22.140625 0 L 16.625 0 L 14.96875 -4.5 L 6.40625 -4.5 L 4.75 0 L -0.765625 0 L 8.3125 -22.5 Z M 13.21875 -9 L 10.71875 -15.546875 L 10.65625 -15.546875 L 8.15625 -9 Z M 13.21875 -9 "/></g></g></g><g fill="#000000" fill-opacity="1"><g transform="translate(30.554501, 70.8892)"><g><path d="M 7.71875 -14.390625 C 8.519531 -14.390625 9.3125 -14.296875 10.09375 -14.109375 C 10.875 -13.929688 11.453125 -13.753906 11.828125 -13.578125 L 12.40625 -13.3125 L 10.828125 -10.140625 C 9.734375 -10.722656 8.695312 -11.015625 7.71875 -11.015625 C 7.164062 -11.015625 6.773438 -10.953125 6.546875 -10.828125 C 6.328125 -10.710938 6.21875 -10.492188 6.21875 -10.171875 C 6.21875 -10.097656 6.222656 -10.023438 6.234375 -9.953125 C 6.253906 -9.878906 6.289062 -9.8125 6.34375 -9.75 C 6.40625 -9.6875 6.457031 -9.628906 6.5 -9.578125 C 6.550781 -9.535156 6.628906 -9.488281 6.734375 -9.4375 C 6.835938 -9.382812 6.921875 -9.34375 6.984375 -9.3125 C 7.054688 -9.28125 7.164062 -9.238281 7.3125 -9.1875 C 7.457031 -9.132812 7.566406 -9.09375 7.640625 -9.0625 C 7.710938 -9.039062 7.832031 -9 8 -8.9375 C 8.175781 -8.882812 8.304688 -8.847656 8.390625 -8.828125 C 8.960938 -8.671875 9.457031 -8.488281 9.875 -8.28125 C 10.289062 -8.082031 10.726562 -7.8125 11.1875 -7.46875 C 11.65625 -7.125 12.015625 -6.6875 12.265625 -6.15625 C 12.523438 -5.632812 12.65625 -5.035156 12.65625 -4.359375 C 12.65625 -1.179688 10.445312 0.40625 6.03125 0.40625 C 5.03125 0.40625 4.078125 0.253906 3.171875 -0.046875 C 2.273438 -0.359375 1.628906 -0.671875 1.234375 -0.984375 L 0.625 -1.46875 L 2.59375 -4.765625 C 2.738281 -4.640625 2.925781 -4.488281 3.15625 -4.3125 C 3.394531 -4.144531 3.820312 -3.910156 4.4375 -3.609375 C 5.0625 -3.304688 5.597656 -3.15625 6.046875 -3.15625 C 7.046875 -3.15625 7.546875 -3.492188 7.546875 -4.171875 C 7.546875 -4.484375 7.421875 -4.722656 7.171875 -4.890625 C 6.921875 -5.066406 6.488281 -5.265625 5.875 -5.484375 C 5.269531 -5.703125 4.789062 -5.898438 4.4375 -6.078125 C 3.570312 -6.535156 2.882812 -7.050781 2.375 -7.625 C 1.863281 -8.195312 1.609375 -8.953125 1.609375 -9.890625 C 1.609375 -11.316406 2.15625 -12.421875 3.25 -13.203125 C 4.351562 -13.992188 5.84375 -14.390625 7.71875 -14.390625 Z M 7.71875 -14.390625 "/></g></g></g><g fill="#000000" fill-opacity="1"><g transform="translate(42.743176, 70.8892)"><g><path d="M 7.71875 -14.390625 C 8.519531 -14.390625 9.3125 -14.296875 10.09375 -14.109375 C 10.875 -13.929688 11.453125 -13.753906 11.828125 -13.578125 L 12.40625 -13.3125 L 10.828125 -10.140625 C 9.734375 -10.722656 8.695312 -11.015625 7.71875 -11.015625 C 7.164062 -11.015625 6.773438 -10.953125 6.546875 -10.828125 C 6.328125 -10.710938 6.21875 -10.492188 6.21875 -10.171875 C 6.21875 -10.097656 6.222656 -10.023438 6.234375 -9.953125 C 6.253906 -9.878906 6.289062 -9.8125 6.34375 -9.75 C 6.40625 -9.6875 6.457031 -9.628906 6.5 -9.578125 C 6.550781 -9.535156 6.628906 -9.488281 6.734375 -9.4375 C 6.835938 -9.382812 6.921875 -9.34375 6.984375 -9.3125 C 7.054688 -9.28125 7.164062 -9.238281 7.3125 -9.1875 C 7.457031 -9.132812 7.566406 -9.09375 7.640625 -9.0625 C 7.710938 -9.039062 7.832031 -9 8 -8.9375 C 8.175781 -8.882812 8.304688 -8.847656 8.390625 -8.828125 C 8.960938 -8.671875 9.457031 -8.488281 9.875 -8.28125 C 10.289062 -8.082031 10.726562 -7.8125 11.1875 -7.46875 C 11.65625 -7.125 12.015625 -6.6875 12.265625 -6.15625 C 12.523438 -5.632812 12.65625 -5.035156 12.65625 -4.359375 C 12.65625 -1.179688 10.445312 0.40625 6.03125 0.40625 C 5.03125 0.40625 4.078125 0.253906 3.171875 -0.046875 C 2.273438 -0.359375 1.628906 -0.671875 1.234375 -0.984375 L 0.625 -1.46875 L 2.59375 -4.765625 C 2.738281 -4.640625 2.925781 -4.488281 3.15625 -4.3125 C 3.394531 -4.144531 3.820312 -3.910156 4.4375 -3.609375 C 5.0625 -3.304688 5.597656 -3.15625 6.046875 -3.15625 C 7.046875 -3.15625 7.546875 -3.492188 7.546875 -4.171875 C 7.546875 -4.484375 7.421875 -4.722656 7.171875 -4.890625 C 6.921875 -5.066406 6.488281 -5.265625 5.875 -5.484375 C 5.269531 -5.703125 4.789062 -5.898438 4.4375 -6.078125 C 3.570312 -6.535156 2.882812 -7.050781 2.375 -7.625 C 1.863281 -8.195312 1.609375 -8.953125 1.609375 -9.890625 C 1.609375 -11.316406 2.15625 -12.421875 3.25 -13.203125 C 4.351562 -13.992188 5.84375 -14.390625 7.71875 -14.390625 Z M 7.71875 -14.390625 "/></g></g></g><g fill="#000000" fill-opacity="1"><g transform="translate(54.931852, 70.8892)"><g><path d="M 2.953125 -1.65625 C 1.398438 -3.039062 0.625 -4.8125 0.625 -6.96875 C 0.625 -9.132812 1.429688 -10.910156 3.046875 -12.296875 C 4.671875 -13.691406 6.671875 -14.390625 9.046875 -14.390625 C 11.390625 -14.390625 13.363281 -13.691406 14.96875 -12.296875 C 16.582031 -10.898438 17.390625 -9.128906 17.390625 -6.984375 C 17.390625 -4.835938 16.601562 -3.066406 15.03125 -1.671875 C 13.457031 -0.285156 11.460938 0.40625 9.046875 0.40625 C 6.546875 0.40625 4.515625 -0.28125 2.953125 -1.65625 Z M 6.6875 -9.34375 C 6.0625 -8.726562 5.75 -7.9375 5.75 -6.96875 C 5.75 -6.007812 6.046875 -5.222656 6.640625 -4.609375 C 7.242188 -4.003906 8.039062 -3.703125 9.03125 -3.703125 C 9.96875 -3.703125 10.738281 -4.007812 11.34375 -4.625 C 11.957031 -5.25 12.265625 -6.035156 12.265625 -6.984375 C 12.265625 -7.941406 11.953125 -8.726562 11.328125 -9.34375 C 10.703125 -9.96875 9.9375 -10.28125 9.03125 -10.28125 C 8.101562 -10.28125 7.320312 -9.96875 6.6875 -9.34375 Z M 6.6875 -9.34375 "/></g></g></g><g fill="#000000" fill-opacity="1"><g transform="translate(71.728833, 70.8892)"><g><path d="M 9.078125 -10.4375 C 8.171875 -10.4375 7.390625 -10.097656 6.734375 -9.421875 C 6.078125 -8.753906 5.75 -7.945312 5.75 -7 C 5.75 -6.039062 6.078125 -5.222656 6.734375 -4.546875 C 7.390625 -3.878906 8.171875 -3.546875 9.078125 -3.546875 C 9.515625 -3.546875 9.925781 -3.597656 10.3125 -3.703125 C 10.707031 -3.816406 10.992188 -3.925781 11.171875 -4.03125 L 11.421875 -4.203125 L 13.0625 -0.84375 C 12.9375 -0.75 12.757812 -0.632812 12.53125 -0.5 C 12.300781 -0.363281 11.78125 -0.179688 10.96875 0.046875 C 10.164062 0.285156 9.300781 0.40625 8.375 0.40625 C 6.320312 0.40625 4.515625 -0.3125 2.953125 -1.75 C 1.398438 -3.195312 0.625 -4.929688 0.625 -6.953125 C 0.625 -8.984375 1.398438 -10.726562 2.953125 -12.1875 C 4.515625 -13.65625 6.320312 -14.390625 8.375 -14.390625 C 9.300781 -14.390625 10.15625 -14.28125 10.9375 -14.0625 C 11.71875 -13.84375 12.269531 -13.628906 12.59375 -13.421875 L 13.0625 -13.09375 L 11.421875 -9.78125 C 10.828125 -10.21875 10.046875 -10.4375 9.078125 -10.4375 Z M 9.078125 -10.4375 "/></g></g></g><g fill="#000000" fill-opacity="1"><g transform="translate(83.890242, 70.8892)"><g><path d="M 2.09375 -21.78125 C 2.65625 -22.34375 3.328125 -22.625 4.109375 -22.625 C 4.898438 -22.625 5.578125 -22.34375 6.140625 -21.78125 C 6.703125 -21.21875 6.984375 -20.546875 6.984375 -19.765625 C 6.984375 -18.984375 6.703125 -18.3125 6.140625 -17.75 C 5.578125 -17.1875 4.898438 -16.90625 4.109375 -16.90625 C 3.328125 -16.90625 2.65625 -17.1875 2.09375 -17.75 C 1.53125 -18.3125 1.25 -18.984375 1.25 -19.765625 C 1.25 -20.546875 1.53125 -21.21875 2.09375 -21.78125 Z M 1.640625 -13.984375 L 1.640625 0 L 6.46875 0 L 6.46875 -13.984375 Z M 1.640625 -13.984375 "/></g></g></g><g fill="#000000" fill-opacity="1"><g transform="translate(90.897979, 70.8892)"><g><path d="M 2.578125 -1.734375 C 1.273438 -3.160156 0.625 -4.910156 0.625 -6.984375 C 0.625 -9.054688 1.273438 -10.804688 2.578125 -12.234375 C 3.890625 -13.671875 5.554688 -14.390625 7.578125 -14.390625 C 9.429688 -14.390625 10.957031 -13.8125 12.15625 -12.65625 L 12.15625 -13.984375 L 16.984375 -13.984375 L 16.984375 0 L 12.21875 0 L 12.21875 -1.578125 L 12.15625 -1.578125 C 10.957031 -0.253906 9.429688 0.40625 7.578125 0.40625 C 5.554688 0.40625 3.890625 -0.304688 2.578125 -1.734375 Z M 6.6875 -9.34375 C 6.0625 -8.726562 5.75 -7.9375 5.75 -6.96875 C 5.75 -6.007812 6.046875 -5.222656 6.640625 -4.609375 C 7.242188 -4.003906 8.039062 -3.703125 9.03125 -3.703125 C 9.96875 -3.703125 10.738281 -4.007812 11.34375 -4.625 C 11.957031 -5.25 12.265625 -6.035156 12.265625 -6.984375 C 12.265625 -7.941406 11.953125 -8.726562 11.328125 -9.34375 C 10.703125 -9.96875 9.9375 -10.28125 9.03125 -10.28125 C 8.101562 -10.28125 7.320312 -9.96875 6.6875 -9.34375 Z M 6.6875 -9.34375 "/></g></g></g><g fill="#000000" fill-opacity="1"><g transform="translate(108.294864, 70.8892)"><g><path d="M 2.453125 -13.984375 L 2.453125 -19.1875 L 7.28125 -19.1875 L 7.28125 -13.984375 L 10.21875 -13.984375 L 10.21875 -10.3125 L 7.28125 -10.3125 L 7.28125 -5.859375 C 7.28125 -4.566406 7.644531 -3.921875 8.375 -3.921875 C 8.550781 -3.921875 8.738281 -3.957031 8.9375 -4.03125 C 9.144531 -4.101562 9.300781 -4.175781 9.40625 -4.25 L 9.5625 -4.359375 L 10.765625 -0.46875 C 9.734375 0.113281 8.550781 0.40625 7.21875 0.40625 C 6.3125 0.40625 5.53125 0.25 4.875 -0.0625 C 4.226562 -0.382812 3.734375 -0.8125 3.390625 -1.34375 C 3.054688 -1.882812 2.816406 -2.445312 2.671875 -3.03125 C 2.523438 -3.625 2.453125 -4.257812 2.453125 -4.9375 L 2.453125 -10.3125 L 0.4375 -10.3125 L 0.4375 -13.984375 Z M 2.453125 -13.984375 "/></g></g></g><g fill="#000000" fill-opacity="1"><g transform="translate(117.83854, 70.8892)"><g><path d="M 15.78125 -6.328125 L 5.640625 -6.328125 C 5.640625 -5.347656 5.957031 -4.617188 6.59375 -4.140625 C 7.226562 -3.671875 7.921875 -3.4375 8.671875 -3.4375 C 9.453125 -3.4375 10.066406 -3.539062 10.515625 -3.75 C 10.972656 -3.957031 11.492188 -4.367188 12.078125 -4.984375 L 15.5625 -3.25 C 14.113281 -0.8125 11.695312 0.40625 8.3125 0.40625 C 6.207031 0.40625 4.398438 -0.3125 2.890625 -1.75 C 1.378906 -3.195312 0.625 -4.9375 0.625 -6.96875 C 0.625 -9.007812 1.378906 -10.753906 2.890625 -12.203125 C 4.398438 -13.660156 6.207031 -14.390625 8.3125 -14.390625 C 10.53125 -14.390625 12.332031 -13.75 13.71875 -12.46875 C 15.113281 -11.1875 15.8125 -9.359375 15.8125 -6.984375 C 15.8125 -6.648438 15.800781 -6.429688 15.78125 -6.328125 Z M 5.78125 -9 L 11.09375 -9 C 10.988281 -9.726562 10.703125 -10.285156 10.234375 -10.671875 C 9.773438 -11.066406 9.179688 -11.265625 8.453125 -11.265625 C 7.648438 -11.265625 7.007812 -11.050781 6.53125 -10.625 C 6.0625 -10.207031 5.8125 -9.664062 5.78125 -9 Z M 5.78125 -9 "/></g></g></g><g fill="#000000" fill-opacity="1"><g transform="translate(133.053977, 70.8892)"><g><path d="M 7.71875 -14.390625 C 8.519531 -14.390625 9.3125 -14.296875 10.09375 -14.109375 C 10.875 -13.929688 11.453125 -13.753906 11.828125 -13.578125 L 12.40625 -13.3125 L 10.828125 -10.140625 C 9.734375 -10.722656 8.695312 -11.015625 7.71875 -11.015625 C 7.164062 -11.015625 6.773438 -10.953125 6.546875 -10.828125 C 6.328125 -10.710938 6.21875 -10.492188 6.21875 -10.171875 C 6.21875 -10.097656 6.222656 -10.023438 6.234375 -9.953125 C 6.253906 -9.878906 6.289062 -9.8125 6.34375 -9.75 C 6.40625 -9.6875 6.457031 -9.628906 6.5 -9.578125 C 6.550781 -9.535156 6.628906 -9.488281 6.734375 -9.4375 C 6.835938 -9.382812 6.921875 -9.34375 6.984375 -9.3125 C 7.054688 -9.28125 7.164062 -9.238281 7.3125 -9.1875 C 7.457031 -9.132812 7.566406 -9.09375 7.640625 -9.0625 C 7.710938 -9.039062 7.832031 -9 8 -8.9375 C 8.175781 -8.882812 8.304688 -8.847656 8.390625 -8.828125 C 8.960938 -8.671875 9.457031 -8.488281 9.875 -8.28125 C 10.289062 -8.082031 10.726562 -7.8125 11.1875 -7.46875 C 11.65625 -7.125 12.015625 -6.6875 12.265625 -6.15625 C 12.523438 -5.632812 12.65625 -5.035156 12.65625 -4.359375 C 12.65625 -1.179688 10.445312 0.40625 6.03125 0.40625 C 5.03125 0.40625 4.078125 0.253906 3.171875 -0.046875 C 2.273438 -0.359375 1.628906 -0.671875 1.234375 -0.984375 L 0.625 -1.46875 L 2.59375 -4.765625 C 2.738281 -4.640625 2.925781 -4.488281 3.15625 -4.3125 C 3.394531 -4.144531 3.820312 -3.910156 4.4375 -3.609375 C 5.0625 -3.304688 5.597656 -3.15625 6.046875 -3.15625 C 7.046875 -3.15625 7.546875 -3.492188 7.546875 -4.171875 C 7.546875 -4.484375 7.421875 -4.722656 7.171875 -4.890625 C 6.921875 -5.066406 6.488281 -5.265625 5.875 -5.484375 C 5.269531 -5.703125 4.789062 -5.898438 4.4375 -6.078125 C 3.570312 -6.535156 2.882812 -7.050781 2.375 -7.625 C 1.863281 -8.195312 1.609375 -8.953125 1.609375 -9.890625 C 1.609375 -11.316406 2.15625 -12.421875 3.25 -13.203125 C 4.351562 -13.992188 5.84375 -14.390625 7.71875 -14.390625 Z M 7.71875 -14.390625 "/></g></g></g><g fill="#000000" fill-opacity="1"><g transform="translate(145.242656, 70.8892)"><g><path d="M 4.75 -5.828125 C 5.613281 -5.828125 6.347656 -5.523438 6.953125 -4.921875 C 7.566406 -4.316406 7.875 -3.578125 7.875 -2.703125 C 7.875 -1.847656 7.566406 -1.113281 6.953125 -0.5 C 6.347656 0.101562 5.613281 0.40625 4.75 0.40625 C 3.894531 0.40625 3.160156 0.101562 2.546875 -0.5 C 1.941406 -1.113281 1.640625 -1.847656 1.640625 -2.703125 C 1.640625 -3.578125 1.941406 -4.316406 2.546875 -4.921875 C 3.160156 -5.523438 3.894531 -5.828125 4.75 -5.828125 Z M 4.75 -5.828125 "/></g></g></g></svg>